<svg width="322" height="358" viewBox="0 0 322 358" fill="none" xmlns="http://www.w3.org/2000/svg">
<path fill-rule="evenodd" clip-rule="evenodd" d="M191.652 3.82617C189.512 6.06022 188.887 7.75326 188.715 11.7823C188.466 17.6355 189.279 17.4885 176.497 14.0004C172.647 12.9494 165.897 11.1943 161.496 10.0993C157.096 9.00428 150.69 7.40625 147.261 6.54823C136.737 3.91517 132.686 4.38418 126.27 8.97828C116.553 15.9354 117.526 2.77514 117.254 130.925C117.121 193.315 116.757 245.168 116.445 246.151C115.366 249.552 99.7031 268.994 98.043 268.994C97.211 268.994 92.8399 258.234 91.3399 252.494C91.0519 251.394 90.5769 249.819 90.2839 248.994C89.9908 248.169 89.6928 245.919 89.6228 243.993C89.5028 240.707 89.2688 240.474 85.7978 240.186C81.9797 239.869 80.9786 238.996 72.9945 229.022C71.0694 226.618 66.8803 221.915 63.6863 218.572C57.5361 212.135 57.3921 211.609 59.4222 202.993C60.4612 198.581 57.7851 196.521 50.702 196.283C47.2869 196.168 44.1568 196.056 43.7438 196.033C43.3308 196.01 42.9938 195.339 42.9938 194.542C42.9938 193.744 42.4318 192.732 41.7438 192.292C41.0568 191.852 36.9197 187.217 32.5516 181.992C21.5633 168.848 15.5892 162.992 13.1671 162.992C8.08002 162.992 0.992859 169.751 0.992859 174.601C0.992859 176.227 7.60401 185.802 10.9301 188.992C11.7891 189.817 14.9902 193.417 18.0422 196.992C22.9173 202.704 23.5084 203.857 22.9103 206.493C21.8533 211.153 21.8923 216.844 22.9933 218.757C23.5424 219.712 24.4464 221.618 25.0004 222.993C25.5544 224.368 27.3924 227.937 29.0855 230.925L32.1626 236.356L31.1085 245.926C30.5295 251.188 30.0575 258.548 30.0615 262.28C30.0645 266.012 29.8265 269.455 29.5325 269.931C29.2385 270.407 28.5665 274.961 28.0405 280.052C27.1794 288.372 26.7754 289.625 24.0384 292.449C22.3633 294.177 20.9793 296.244 20.9613 297.043C20.9443 297.841 20.3163 299.303 19.5673 300.291C18.8183 301.279 17.4182 305.43 16.4562 309.516C14.5112 317.773 15.1782 319.995 19.6033 319.995C21.8963 319.995 24.0194 317.457 28.0825 309.856C28.8585 308.405 30.7815 305.13 32.3556 302.578C33.9296 300.026 35.5936 296.488 36.0536 294.716C37.5727 288.869 41.2318 278.511 42.1208 277.544C43.0878 276.492 43.1738 278.493 43.3648 306.495C43.4358 316.945 43.8578 326.058 44.3028 326.745C44.7478 327.433 46.8799 327.995 49.0409 327.995C52.86 327.995 52.989 327.881 53.618 323.945C54.243 320.038 54.375 319.917 57.3801 320.515C59.0932 320.856 63.1942 321.969 66.4943 322.99C69.7944 324.01 75.8695 325.611 79.9946 326.548C84.1197 327.485 89.2948 328.863 91.4949 329.609C93.6949 330.355 97.52 331.393 99.9951 331.915C107.537 333.507 117.244 335.966 122.13 337.521C124.679 338.332 127.417 338.996 128.215 338.996C129.013 338.996 132.328 339.824 135.581 340.836C138.834 341.848 144.753 343.477 148.733 344.456C155.548 346.131 156.268 346.137 161.084 344.562C164.432 343.467 167.807 341.299 170.849 338.291C173.405 335.761 178.76 331.23 182.747 328.222C186.735 325.214 189.997 322.357 189.997 321.874C189.997 321.39 190.686 320.995 191.528 320.995C192.371 320.995 193.297 320.378 193.586 319.623C193.876 318.868 196.224 316.739 198.805 314.891C201.386 313.043 204.509 310.445 205.747 309.117L207.997 306.703V311.414C207.997 315.421 208.445 316.501 211.001 318.651C214.467 321.567 214.12 322.995 209.944 322.995C207.627 322.995 204.788 325.025 196.502 332.607C185.228 342.924 184.224 344.9 187.65 350.023C191.49 355.766 194.325 357.996 197.782 357.996C200.749 357.996 202.487 356.73 211.122 348.275C218.621 340.933 221.336 337.569 222.217 334.524C222.859 332.308 224.055 329.435 224.875 328.14C226.313 325.869 226.688 325.806 235.432 326.385C245.701 327.066 252.163 325.848 258.666 322.008C264.016 318.847 266.007 315.392 265.966 309.341C265.913 301.604 260.55 297.187 247.238 293.919C237.983 291.647 232.902 291.518 226.657 293.397C224.095 294.168 221.998 294.7 221.998 294.579C221.998 294.458 223.585 292.589 225.525 290.427C227.464 288.263 229.32 285.455 229.648 284.184C230.068 282.558 230.726 282.062 231.871 282.507C239.098 285.317 250.568 285.277 251.658 282.439C251.962 281.644 252.64 280.994 253.164 280.994C255.194 280.994 261.942 274.595 262.944 271.721C263.524 270.057 263.999 263.363 263.999 256.845C263.999 248.023 264.318 244.998 265.249 245.009C267.088 245.032 268.55 246.209 269.884 248.744C270.536 249.982 271.729 250.994 272.534 250.994C273.688 250.994 273.999 252.555 273.999 258.34C273.999 272.425 275.194 283.994 276.649 283.994C277.528 283.994 277.999 285.229 277.999 287.536C277.999 289.484 278.648 294.323 279.441 298.287C282.099 311.579 282.165 311.23 276.731 312.77C270.895 314.424 268.376 317.625 269.724 321.671C272.287 329.359 297.487 330.015 306.126 322.619C307.169 321.726 309.607 320.995 311.544 320.995C313.48 320.995 316.625 320.343 318.532 319.546C321.424 318.338 322 317.586 322 315.021C322 312.398 321.555 311.856 318.977 311.34C316.316 310.808 315.98 310.358 316.167 307.578C316.404 304.066 315.493 302.005 313.691 301.975C313.036 301.964 311.15 299.663 309.5 296.861C307.85 294.059 304.813 290.018 302.75 287.879C298.784 283.769 298.195 282.24 300.27 281.444C301.24 281.072 301.45 277.643 301.157 266.975C300.79 253.626 300.862 252.994 302.733 252.994C303.811 252.994 306.084 252.3 307.784 251.452C310.358 250.168 311.05 249.038 311.919 244.702C312.552 241.539 313.384 200.759 314.037 140.901C315.02 50.7332 314.974 41.964 313.49 38.2559C311.551 33.4098 307.521 29.5897 302.887 28.2047C290.524 24.5106 284.094 22.7176 273.499 20.0075C262.176 17.1125 254.789 15.1334 241.998 11.5693C238.973 10.7263 231.773 8.90028 225.998 7.51225C220.223 6.12322 212.541 4.08717 208.926 2.98815C199.456 0.106085 195.01 0.32209 191.652 3.82617ZM74.2985 41.33C73.2855 42.618 71.4524 44.2091 70.2254 44.8651C68.0724 46.0181 67.9944 46.5731 67.9944 60.8334C67.9944 71.0977 68.3764 76.1158 69.2444 77.2728C70.6154 79.0988 78.0076 81.9819 81.3707 82.0029C82.5387 82.0099 86.3478 82.9099 89.8338 84.0029C97.971 86.553 104.643 86.655 105.432 84.24C105.746 83.2769 107.61 81.4509 109.574 80.1819L113.144 77.8738L112.82 64.1125C112.496 50.3922 112.486 50.3442 109.599 47.6701C108.006 46.1961 106.021 44.9891 105.187 44.9891C104.353 44.9891 101.381 44.3371 98.583 43.54C80.0326 38.2549 76.9386 37.9729 74.2985 41.33ZM76.4945 88.8321C75.3945 89.0411 74.1205 89.8631 73.6635 90.6571C73.2065 91.4511 71.8064 92.4911 70.5524 92.9681C67.6603 94.0682 66.9453 99.3333 67.6983 113.991C68.3444 126.561 69.6034 128.432 78.5236 130.081C81.5737 130.645 85.7507 131.699 87.8048 132.424C89.8598 133.149 94.3059 134.063 97.686 134.455C103.556 135.136 103.909 135.052 105.529 132.58C106.462 131.156 107.823 129.991 108.553 129.991C111.927 129.991 112.995 125.844 112.995 112.735V99.9233L109.975 96.9702C108.314 95.3472 105.726 93.7852 104.225 93.5012C102.723 93.2172 98.57 92.2511 94.995 91.3531C87.1898 89.3941 79.2336 88.31 76.4945 88.8321ZM74.4025 141.491C73.5015 142.866 71.9644 143.991 70.9864 143.991C68.3184 143.991 67.9944 145.876 67.9944 161.393C67.9944 179.647 67.1833 178.707 86.9948 183.395C99.4021 186.331 102.937 186.484 105.34 184.191C106.525 183.059 108.732 180.997 110.245 179.608C112.955 177.12 112.995 176.905 112.995 164.972C112.995 157.727 112.53 151.982 111.838 150.675C110.19 147.564 107.042 145.024 104.061 144.399C100.002 143.55 88.8418 140.946 84.8787 139.924C78.8426 138.367 76.1895 138.764 74.4025 141.491ZM69.9944 256.661C74.7385 262.29 76.7755 263.795 84.8167 267.611L94.1379 272.035L91.7909 274.765C90.5009 276.266 83.6367 283.119 76.5385 289.995C69.4404 296.87 61.4462 304.708 58.7741 307.414L53.916 312.332L54.465 308.414C56.6681 292.662 57.9941 279.513 57.9941 273.408C57.9941 268.255 58.4161 265.889 59.4942 264.994C60.5552 264.114 60.9942 261.784 60.9942 257.038C60.9942 246.959 61.7892 246.926 69.9944 256.661ZM291.377 289.355C292.172 291.259 295.832 295.272 299.816 298.606C306.991 304.613 308.964 307.431 307.218 309.177C306.679 309.716 302.428 310.249 297.77 310.361L289.303 310.565L289.211 298.28C289.16 291.523 289.31 285.994 289.545 285.994C289.78 285.994 290.604 287.507 291.377 289.355ZM247.711 301.757C253.034 303.945 254.876 306.988 252.998 310.495C252.262 311.87 251.243 312.995 250.733 312.995C250.224 312.995 248.612 313.83 247.152 314.851C243.952 317.089 235.261 318.14 228.728 317.08C223.986 316.311 218.998 312.885 218.998 310.397C218.998 307.632 223.939 303.433 229.128 301.788C232.082 300.851 235.173 299.858 235.998 299.582C238.122 298.869 242.798 299.738 247.711 301.757ZM11.7431 321.075C9.97606 322.104 9.20104 327.995 10.8321 327.995C12.5011 327.995 13.7701 332.412 12.6221 334.226C11.7891 335.544 11.8821 336.311 13.0101 337.431C14.2082 338.621 18.6413 338.95 36.0716 339.142C56.0751 339.364 57.8991 339.235 61.0692 337.384C65.6083 334.733 65.8233 332.753 61.7782 330.867C57.7981 329.012 49.9939 329.497 49.9939 331.6C49.9939 332.367 49.3189 332.995 48.4939 332.995C47.6689 332.995 46.9939 332.555 46.9939 332.018C46.9939 331.481 45.9699 330.37 44.7178 329.55C42.7118 328.235 41.7908 328.231 36.9677 329.515C30.3105 331.286 21.8263 331.428 20.1933 329.795C19.5333 329.135 18.9933 327.53 18.9933 326.229C18.9933 320.93 15.8402 318.689 11.7431 321.075Z" fill="#EBE0FF"/>
<path fill-rule="evenodd" clip-rule="evenodd" d="M129.922 6.99724C128.472 8.50728 129.142 8.83928 138.422 11.2133C143.963 12.6304 163.571 17.6315 181.997 22.3256C212.431 30.0798 223.247 32.8718 240.177 37.3429C249.223 39.732 252.711 42.475 254.86 48.8882C256.336 53.2943 256.466 106.397 254.999 105.49C254.373 105.103 253.998 94.8782 253.998 78.1268V51.3812L251.172 46.9351C249.617 44.4901 247.255 41.953 245.922 41.298C244.589 40.642 232.023 37.1559 217.998 33.5488C203.972 29.9428 190.022 26.3347 186.997 25.5317C183.972 24.7286 176.772 22.9266 170.997 21.5266C165.222 20.1275 152.736 16.9675 143.251 14.5044C123.438 9.35929 122.193 9.4703 118.918 16.6575C117.013 20.8385 116.964 23.8706 117.012 132.975C117.05 217.845 116.773 245.545 115.87 247.247C112.609 253.394 98.59 270.088 97.675 268.915C96.764 267.747 93.9949 261.037 93.9949 259.997C93.9949 259.34 93.3499 257.608 92.5609 256.148C90.7359 252.771 89.6208 248.146 89.9188 245.191C90.2378 242.04 88.2958 239.993 84.9887 239.993C82.2137 239.993 80.0756 238.032 72.3554 228.407C70.6284 226.254 66.6573 221.793 63.5293 218.493C57.5071 212.14 57.3801 211.659 59.4222 202.993C60.4892 198.465 57.8121 196.518 50.22 196.297C46.5409 196.19 43.3768 195.64 43.1878 195.074C42.9988 194.508 41.3138 192.346 39.4427 190.269C37.5707 188.192 36.0296 186.154 36.0166 185.742C35.9566 183.798 33.3136 185.307 32.3616 187.827C31.1495 191.038 25.4464 195.783 22.2033 196.278C18.7142 196.81 18.4812 197.844 21.1963 200.753C23.6544 203.387 23.7144 203.743 22.7533 209.993L21.7533 216.493L26.9534 226.493C31.8045 235.824 32.1085 236.827 31.4965 241.493C31.1355 244.243 30.6605 250.769 30.4405 255.994C30.2205 261.219 29.5945 268.869 29.0505 272.994C28.5065 277.119 27.8034 282.564 27.4884 285.094C27.0744 288.423 26.0974 290.479 23.9544 292.532C22.3263 294.093 20.9793 296.072 20.9613 296.932C20.9443 297.792 20.3163 299.303 19.5673 300.291C18.8183 301.279 17.4182 305.43 16.4562 309.516C14.5112 317.773 15.1782 319.995 19.6033 319.995C21.9053 319.995 24.1614 317.284 28.0825 309.804C28.8585 308.324 30.7965 304.983 32.3886 302.379C33.9806 299.775 35.6446 296.261 36.0866 294.57C37.5967 288.793 41.2458 278.496 42.1208 277.544C43.0838 276.496 43.1608 278.311 43.3598 306.495C43.4338 316.945 43.8578 326.058 44.3028 326.745C44.7478 327.432 46.8459 327.995 48.9649 327.995C52.69 327.995 52.841 327.86 53.504 323.937C54.283 319.327 53.91 319.353 66.9943 322.98C70.5694 323.971 76.4195 325.536 79.9946 326.457C83.5697 327.378 89.4198 329.007 92.9949 330.077C96.57 331.148 100.067 332.017 100.766 332.009C101.465 332.002 105.515 332.938 109.766 334.091C114.017 335.245 120.196 336.875 123.496 337.714C126.796 338.553 132.421 340.058 135.996 341.057C154.728 346.295 155.358 346.383 161.151 344.56C165.507 343.191 167.608 341.655 172.497 336.268C175.797 332.632 182.325 325.57 187.003 320.576C212.642 293.204 221.388 283.325 222.236 280.78C222.484 280.035 224.848 280.347 229.55 281.747C243.965 286.036 249.997 285.83 252.515 280.96C253.694 278.681 253.998 273.573 253.998 256.044C253.998 241.064 254.342 233.993 255.068 233.993C255.804 233.993 256.037 240.968 255.818 256.397C255.47 280.87 255.37 280.521 260.999 274.507C263.365 271.979 263.518 271.114 263.847 258.415C264.167 246.08 264.347 244.994 266.071 244.994C267.145 244.994 268.612 246.278 269.499 247.994C270.352 249.644 271.714 250.994 272.525 250.994C273.698 250.994 274.024 252.727 274.124 259.494C274.193 264.169 274.362 268.444 274.499 268.994C274.636 269.544 274.805 273.144 274.874 276.994C274.963 281.969 275.371 283.994 276.286 283.994C277.17 283.994 278.158 287.985 279.443 296.745C280.472 303.757 281.682 310.508 282.132 311.747C282.829 313.662 282.357 314.391 278.975 316.63C271.768 321.399 274.903 323.61 284.321 320.401L288.999 318.807L289.07 310.151C289.108 305.39 289.104 297.895 289.059 293.495C288.985 286.176 289.106 285.659 290.488 287.435C291.319 288.503 291.999 289.926 291.999 290.596C291.999 291.268 294.778 294.219 298.175 297.156C308.397 305.993 308 305.4 308 311.828C308 318.423 308.475 319.347 311.133 317.924C315.455 315.611 317.806 303.28 314.11 302.314C313.071 302.042 311.393 300.284 310.383 298.407C309.372 296.53 308.198 294.995 307.773 294.995C307.348 294.995 307 294.428 307 293.735C307 292.261 302.333 286.994 301.027 286.994C299.358 286.994 298.787 282.888 300.22 281.172C301.361 279.804 301.492 276.353 300.932 262.494C300.554 253.144 299.92 244.09 299.523 242.374C298.942 239.864 299.238 238.849 301.035 237.175C303.118 235.234 303.22 234.559 302.565 227.044C302.07 221.373 302.192 218.993 302.977 218.993C305.63 218.993 309 214.07 309 210.193C309 205.765 307.165 203.633 300.65 200.493C297.629 199.038 295.932 197.311 294.417 194.155C293.271 191.769 291.696 189.413 290.917 188.92C288.347 187.293 282.42 187.87 280.558 189.927C278.736 191.94 278.765 195.698 280.692 207.389C281.942 214.973 286.256 216.22 289.786 210.017C290.728 208.361 291.836 207.003 292.249 206.999C293.787 206.986 292.907 209.029 289.895 212.458C284.542 218.555 279.415 216.481 279.596 208.292C279.664 205.232 279.375 204.217 278.646 204.946C277.011 206.581 276.336 206.221 275.003 203.004C273.736 199.943 266.788 192.992 264.996 192.992C264.364 192.992 263.999 185.078 263.999 171.375V149.758L266.249 150.364C272.091 151.94 301.71 158.992 302.484 158.992C302.79 158.992 302.918 149.487 302.77 137.871L302.5 116.751L283.499 111.992L264.499 107.231L263.999 76.8598C263.564 50.4422 263.271 46.0731 261.75 43.291C257.997 36.4269 255.085 35.2299 221.703 26.8357C204.539 22.5196 189.667 18.5085 188.653 17.9215C187.64 17.3345 184.94 16.6325 182.653 16.3594C180.367 16.0874 178.346 15.4404 178.162 14.9204C177.977 14.4014 177.424 14.2244 176.932 14.5284C176.441 14.8324 175.161 14.6114 174.089 14.0374C173.017 13.4634 170.645 12.7904 168.818 12.5414C166.992 12.2924 163.053 11.3493 160.067 10.4463C154.157 8.65928 151.82 8.09127 147.996 7.51525C146.621 7.30825 144.223 6.65223 142.667 6.05822C138.683 4.53619 131.798 5.0442 129.922 6.99724ZM220.627 68.4826C218.32 66.9706 196.776 61.1934 168.667 54.5493C153.731 51.0192 151.469 51.2612 146.725 56.8994C143.323 60.9424 142.738 65.4075 143.154 84.146C143.529 101.057 144.271 103.53 149.841 106.41C151.395 107.214 166.277 111.306 182.911 115.502C211.794 122.789 213.342 123.073 217.326 121.811C220.719 120.738 221.918 119.658 223.748 116.029C225.823 111.914 225.998 110.22 225.998 94.2462C225.998 75.3548 225.188 71.4707 220.627 68.4826ZM215.998 142.612C206.922 140.195 185.772 134.566 168.997 130.103C152.221 125.64 137.345 121.989 135.937 121.99C134.53 121.99 132.576 122.578 131.594 123.295C129.931 124.512 129.8 127.735 129.653 171.046L129.496 217.493L126.716 226.493C125.187 231.443 122.558 238.334 120.873 241.805C117.417 248.924 108.176 261.55 102.16 267.369C99.7611 269.69 98.377 271.826 98.71 272.694C99.069 273.63 98.727 274.029 97.744 273.819C96.852 273.629 87.6828 281.864 75.6075 293.702C55.8261 313.093 52.496 317.344 56.2441 318.415C58.1191 318.951 83.6907 325.815 89.9948 327.474C102.286 330.71 111.578 333.239 112.995 333.735C113.82 334.023 115.395 334.388 116.495 334.546C119.429 334.967 145.464 341.843 148.516 343.003C152.424 344.489 158.759 344.202 162.634 342.363C165.598 340.957 185.391 320.519 212.273 291.11C230.771 270.87 240.739 239.095 235.131 218.243C234.261 215.008 234.275 212.978 235.192 209.743C235.948 207.073 236.519 195.581 236.728 178.834C237.143 145.53 238.976 148.733 215.998 142.612ZM254.999 191.992C255.635 191.992 255.999 183.992 255.999 169.992C255.999 155.992 255.635 147.991 254.999 147.991C254.363 147.991 253.998 155.992 253.998 169.992C253.998 183.992 254.363 191.992 254.999 191.992ZM45.2438 217.961C49.1979 217.932 49.3589 217.827 47.5529 216.461C44.9978 214.529 40.9937 214.548 40.9937 216.493C40.9937 217.596 42.1188 217.985 45.2438 217.961ZM263.071 240.516C269.724 242.627 281.119 233.592 279.573 227.431C278.732 224.08 277.25 224.346 277.751 227.758C278.56 233.27 270.669 239.688 264.344 238.662C260.69 238.069 259.737 239.458 263.071 240.516ZM84.7447 267.54C76.8545 263.763 74.6855 262.159 69.9944 256.63C61.7472 246.909 60.9942 246.956 60.9942 257.192C60.9942 262.372 60.6262 264.198 59.4942 264.632C58.3551 265.069 57.9931 266.927 57.9901 272.351C57.9881 276.28 57.0971 286.244 56.0101 294.495C54.9241 302.745 54.026 310.122 54.014 310.889C54.003 311.655 57.7071 308.628 62.2442 304.162C66.7813 299.696 75.7815 290.911 82.2447 284.638C88.7078 278.367 93.9949 272.951 93.9949 272.602C93.9949 272.253 89.8328 269.975 84.7447 267.54ZM82.7057 264.585C91.9279 269.104 94.4499 267.319 91.4239 258.417C89.4508 252.612 88.9358 252.156 86.9948 254.494C86.3098 255.319 85.1187 255.994 84.3477 255.994C83.5767 255.994 82.5127 257.131 81.9847 258.52C81.4566 259.909 80.3256 261.314 79.4706 261.642C78.3826 262.059 79.3526 262.942 82.7057 264.585Z" fill="#8659DA"/>
<path fill-rule="evenodd" clip-rule="evenodd" d="M70.2444 45.0291C68.0513 45.9021 67.9943 46.3021 68.0093 60.7074C68.0183 68.8376 68.3554 75.9898 68.7594 76.5998C70.0594 78.5638 75.4195 80.7969 81.5366 81.9229C84.8137 82.5259 89.2948 83.6679 91.4949 84.461C97.079 86.473 104.607 86.445 105.388 84.408C105.722 83.5379 105.995 76.8488 105.995 69.5426C105.995 69.2525 105.995 68.9673 105.995 68.6868C105.998 60.4567 105.999 56.3152 103.988 53.7527C101.951 51.1571 97.8493 50.1817 89.5932 48.2182C89.3148 48.152 89.0317 48.0847 88.7438 48.0162C81.4566 46.2811 74.8195 44.6981 73.9945 44.4981C73.1695 44.2981 71.4814 44.5371 70.2444 45.0291ZM154.295 58.9494C148.869 62.2575 147.996 65.2405 147.996 80.4719C147.996 89.8021 148.431 95.0952 149.385 97.3792C151.124 101.541 156.392 104.205 167.997 106.792C172.672 107.834 183.838 110.601 192.81 112.939C211.115 117.709 213.98 117.706 218.573 112.915C221.486 109.875 221.499 109.806 221.838 95.6092C222.21 79.9999 221.215 75.4418 216.832 72.6697C214.852 71.4177 161.05 56.9823 158.405 56.9933C157.905 56.9953 156.055 57.8754 154.295 58.9494ZM92.9949 61.9895C92.4059 63.0895 91.6999 63.9895 91.4249 63.9895C91.1499 63.9895 91.4059 63.0895 91.9949 61.9895C92.5839 60.8894 93.2899 59.9894 93.5649 59.9894C93.8399 59.9894 93.5839 60.8894 92.9949 61.9895ZM86.8318 70.7617C87.8708 69.7306 87.9868 69.8206 87.4468 71.2397C87.0808 72.2027 86.3868 72.9897 85.9047 72.9897C85.0207 72.9897 79.9546 63.7275 80.0416 62.2725C80.0676 61.8415 81.3176 63.8615 82.8197 66.7616C85.0347 71.0377 85.7927 71.7937 86.8318 70.7617ZM170.168 70.6446C172.398 72.6627 172.492 74.3347 170.467 76.0148C168.153 77.9348 163.996 75.7378 163.996 72.5947C163.996 68.9646 167.196 67.9546 170.168 70.6446ZM68.5884 95.3792C68.2764 96.5402 68.0153 103.641 68.0083 111.159L67.9943 124.828L71.3644 126.911C73.2185 128.056 77.1556 129.449 80.1146 130.005C83.0737 130.561 87.5198 131.654 89.9948 132.435C92.4699 133.215 96.346 134.138 98.609 134.487C105.395 135.532 105.995 134.231 105.995 118.475L105.995 118.134C105.996 109.666 105.996 105.427 103.94 102.794C101.88 100.155 97.7548 99.1285 89.4966 97.0728L89.1648 96.9902C72.7284 92.8981 69.3254 92.6311 68.5884 95.3792ZM135.996 128.869C135.996 131.647 138.43 133.377 139.881 131.63C141.427 129.767 140.235 126.991 137.889 126.991C136.704 126.991 135.996 127.693 135.996 128.869ZM145.376 130.443C144.672 132.277 145.696 133.991 147.496 133.991C149.554 133.991 150.334 132.103 148.96 130.447C147.421 128.594 146.086 128.592 145.376 130.443ZM132.233 133.561C132.547 133.875 143.534 137.062 156.65 140.644C184.197 148.166 187.992 149.226 197.497 152.06C201.347 153.208 205.847 154.387 207.497 154.678C209.147 154.97 215.77 156.734 222.213 158.6C233.414 161.843 236.928 162.589 235.829 161.489C235.293 160.954 222.978 157.448 200.997 151.573C193.572 149.589 184.572 147.138 180.997 146.127C177.422 145.116 169.322 142.846 162.996 141.083C156.671 139.321 147.628 136.779 142.9 135.435C134.426 133.025 131.116 132.444 132.233 133.561ZM69.1944 145.191C68.3694 146.016 67.9943 150.998 67.9943 161.124V175.856L71.1694 178.117C74.2795 180.331 84.1277 183.034 96.91 185.182C105.783 186.673 105.995 186.294 105.995 168.975C105.995 168.532 105.996 168.101 105.996 167.682C106.002 160.241 106.004 156.331 104.13 153.824C102.054 151.048 97.6754 149.994 88.4466 147.772C87.977 147.659 87.4948 147.543 86.9998 147.423C70.9784 143.557 70.8454 143.54 69.1944 145.191ZM83.9947 156.078C86.1578 156.845 86.0468 156.901 83.1717 156.489L79.8486 156.013L80.1716 164.41C80.3496 169.029 80.1566 172.598 79.7446 172.341C79.3326 172.084 78.9946 168.076 78.9946 163.433C78.9946 154.483 79.0926 154.339 83.9947 156.078ZM137.996 156.992C137.996 159.153 139.581 159.738 140.222 157.815C140.437 157.168 141.15 156.969 141.805 157.374C143.276 158.283 143.455 171.992 141.996 171.992C139.61 171.992 141.306 173.752 144.695 174.792C148.716 176.026 150.043 175.639 148.179 173.775C146.92 172.516 146.744 165.11 147.877 161.049L148.559 158.607L150.778 160.988L152.996 163.369V160.845C152.996 158.612 152.304 158.128 147.011 156.656C139.285 154.508 137.996 154.556 137.996 156.992ZM89.7238 157.596C89.3918 157.928 88.5288 157.964 87.8078 157.675C87.0098 157.356 87.2468 157.119 88.4118 157.071C89.4658 157.028 90.0558 157.264 89.7238 157.596ZM164.997 165.328C164.997 167.331 165.852 167.902 170.982 169.328C171.397 169.443 171.787 169.552 172.155 169.655C175.955 170.716 177.293 171.09 177.758 170.613C178.011 170.353 178.007 169.843 177.999 169.054C177.998 168.914 177.997 168.765 177.997 168.607C177.997 166.634 177.144 165.943 173.059 164.607C166.337 162.408 164.997 162.528 164.997 165.328ZM8.56802 165.145C3.0639 168.411 0.0348333 175.797 3.42191 177.692C4.78894 178.457 4.99294 178.873 4.99294 180.887C4.99294 181.379 6.97399 183.879 9.39404 186.442L13.7961 191.101L17.6442 189.542C21.9313 187.806 27.9935 181.594 27.9935 178.937C27.9935 177.461 19.7343 167.992 18.4462 167.992C18.1972 167.992 17.9932 168.64 17.9932 169.433C17.9932 170.226 17.6562 171.083 17.2432 171.339C16.8302 171.594 16.4932 170.158 16.4932 168.148C16.4932 164.807 16.2352 164.471 13.4931 164.247C11.8431 164.113 9.62705 164.516 8.56802 165.145ZM183.622 170.117C183.278 171.836 182.997 177.895 182.997 183.582C182.997 192.409 183.253 194.058 184.747 194.851C189.265 197.25 223.67 206.314 225.041 205.466C226.535 204.543 226.265 179.449 224.748 178.244C223.63 177.356 219.291 176.062 193.497 168.923C184.458 166.421 184.359 166.433 183.622 170.117ZM87.4288 169.886C87.7328 170.377 86.9028 170.715 85.5837 170.636C84.2657 170.557 83.3947 170.154 83.6497 169.742C84.2897 168.706 86.7578 168.8 87.4288 169.886ZM155.996 172.933C155.996 175.431 156.4 175.649 166.423 178.555C171.054 179.897 175.553 181.268 176.42 181.601C177.63 182.065 177.997 181.538 177.997 179.335C177.997 176.553 177.692 176.379 168.139 173.728C156.392 170.468 155.996 170.442 155.996 172.933ZM91.9949 174.159C91.9949 174.617 91.5719 174.992 91.0539 174.992C90.5358 174.992 89.8808 174.617 89.5978 174.159C89.3148 173.7 89.7378 173.325 90.5388 173.325C91.3399 173.325 91.9949 173.7 91.9949 174.159ZM191.817 175.82C191.992 177.015 191.71 177.992 191.189 177.992C189.655 177.992 187.767 175.174 188.503 173.983C189.534 172.314 191.457 173.38 191.817 175.82ZM137.999 178.837C138.003 181.437 138.405 181.602 157.278 186.742C167.88 189.629 176.878 191.992 177.275 191.992C177.672 191.992 177.996 190.98 177.995 189.742C177.994 187.371 177.626 187.241 146.246 178.483L137.996 176.181L137.999 178.837ZM137.996 191.347C137.996 193.272 138.733 194.077 141.246 194.895C146.692 196.669 176.319 204.993 177.185 204.993C177.632 204.993 177.997 203.94 177.997 202.654C177.997 200.479 176.717 199.948 159.746 195.071C149.709 192.187 140.709 189.609 139.746 189.342C138.418 188.974 137.996 189.458 137.996 191.347ZM137.996 204.426C137.996 205.838 138.232 206.993 138.519 206.993C138.807 206.993 147.572 209.468 157.996 212.493C168.421 215.518 177.186 217.993 177.474 217.993C177.761 217.993 177.997 216.881 177.997 215.522C177.997 213.315 177.22 212.824 170.747 210.934C166.759 209.769 160.796 207.998 157.496 206.998C154.196 205.998 149.246 204.668 146.496 204.041C143.746 203.415 140.709 202.668 139.746 202.38C138.398 201.978 137.996 202.448 137.996 204.426ZM184.181 204.731C184.481 207.329 185.165 207.664 197.497 211.262C220.446 217.956 223.826 218.832 224.417 218.24C225.019 217.639 225.246 212.993 224.674 212.993C224.496 212.993 220.559 211.849 215.924 210.451C207.355 207.865 185.497 201.993 184.443 201.993C184.124 201.993 184.007 203.225 184.181 204.731ZM137.166 217.484C137.486 220.166 138.053 220.41 155.996 225.589C166.172 228.525 175.06 230.942 175.747 230.96C176.435 230.978 176.997 229.868 176.997 228.493C176.997 227.118 176.835 225.993 176.636 225.993C175.859 225.993 140.386 216.148 138.666 215.455C137.12 214.832 136.888 215.146 137.166 217.484ZM183.997 217.338C183.997 219.528 184.636 220.084 188.247 221.036C190.585 221.653 199.452 224.143 207.953 226.569C218.478 229.574 223.735 230.656 224.431 229.96C226.57 227.821 223.255 225.495 214.892 223.268C210.275 222.038 202.222 219.833 196.997 218.368C191.772 216.903 186.71 215.492 185.747 215.232C184.411 214.871 183.997 215.369 183.997 217.338ZM135.556 230.611C135.194 232.051 135.114 233.444 135.376 233.707C135.639 233.969 139.121 235.042 143.115 236.091C150.557 238.045 152.388 237.632 151.745 234.146C151.569 233.193 139.254 228.281 136.354 228.006C136.277 227.999 135.917 229.171 135.556 230.611ZM183.997 230.383C183.997 232.534 184.824 232.993 192.247 234.958C196.784 236.159 205.184 238.477 210.913 240.109C219.157 242.458 221.499 242.807 222.148 241.785C223.641 239.432 223.031 238.038 220.248 237.44C218.736 237.114 210.375 234.856 201.668 232.421C192.961 229.985 185.424 227.993 184.918 227.993C184.411 227.993 183.997 229.069 183.997 230.383ZM127.337 240.548C125.961 244.132 126.496 244.354 154.996 252.061C164.656 254.672 165.597 254.767 166.751 253.25C167.44 252.344 167.665 251.282 167.251 250.892C166.836 250.501 159.296 248.128 150.496 245.617C141.696 243.105 133.01 240.612 131.194 240.076C128.584 239.307 127.775 239.406 127.337 240.548ZM182.997 243.254C182.997 245.228 184.049 245.821 191.247 247.903C216.966 255.342 220.517 255.894 219.822 252.347C219.584 251.132 214.988 249.407 202.497 245.845C193.147 243.178 184.935 240.995 184.247 240.994C183.56 240.994 182.997 242.011 182.997 243.254ZM109.495 265.045C104.174 271.122 100.033 276.652 100.295 277.332C100.556 278.013 110.491 280.997 122.375 283.964L143.98 289.358L146.604 286.926C152.133 281.802 164.164 266.874 163.712 265.698C163.452 265.019 159.247 263.462 154.368 262.236C149.488 261.01 140.321 258.658 133.996 257.008C127.671 255.358 121.748 254.005 120.834 254.001C119.92 253.997 114.817 258.967 109.495 265.045ZM178.571 255.661C178.219 256.578 178.284 257.634 178.714 258.007C179.145 258.38 187.092 260.825 196.375 263.441C213.462 268.255 214.926 268.333 214.983 264.433C214.996 263.492 183.24 253.893 180.354 253.965C179.725 253.981 178.923 254.744 178.571 255.661ZM135.029 269.547C136.236 271.501 136.999 273.325 136.723 273.6C136.448 273.875 133.609 273.964 130.414 273.797L124.604 273.494L127.904 269.744C129.718 267.682 131.57 265.994 132.018 265.994C132.466 265.994 133.821 267.593 135.029 269.547ZM170.453 268.042C169.581 269.006 169.241 270.027 169.698 270.309C170.155 270.592 178.372 272.869 187.958 275.369C200.801 278.719 205.73 279.63 206.692 278.832C210.357 275.791 207.368 274.549 182.269 268.68C172.539 266.405 171.963 266.374 170.453 268.042ZM160.586 278.895C159.64 279.94 159.233 280.996 159.681 281.242C160.129 281.487 164.772 282.726 169.997 283.995C175.222 285.263 183.322 287.337 187.997 288.604C196.393 290.879 196.521 290.884 198.441 288.978C199.511 287.917 200.186 286.884 199.941 286.682C199.383 286.22 164.379 276.994 163.185 276.994C162.701 276.994 161.532 277.849 160.586 278.895ZM92.7219 285.696C91.1189 287.299 92.2889 287.734 112.757 293.16C134.258 298.858 134.517 298.9 136.44 296.986C137.51 295.921 138.166 294.832 137.898 294.564C137.219 293.884 98.076 283.994 96.065 283.994C95.1619 283.994 93.6579 284.76 92.7219 285.696ZM151.201 289.709C150.832 290.213 150.552 290.595 150.585 290.949C150.687 292.05 153.827 292.869 166.761 296.243C167.781 296.509 168.862 296.79 170.007 297.09C186.101 301.295 188.681 301.443 189.755 298.221C190.155 297.02 187.554 296.18 166.24 290.629L152.982 287.176L151.486 289.312C151.388 289.453 151.292 289.585 151.201 289.709ZM84.2447 296.144C83.5577 296.832 82.9947 297.888 82.9947 298.491C82.9947 299.094 92.4859 301.989 104.085 304.923L125.177 310.259L127.204 308.232L129.23 306.205L123.863 304.737C120.911 303.93 111.97 301.638 103.995 299.644C96.02 297.649 88.5948 295.765 87.4948 295.456C86.3948 295.146 84.9327 295.456 84.2447 296.144ZM143.539 298.948C141.829 300.837 141.864 300.921 144.634 301.537C146.208 301.886 150.116 302.807 153.319 303.582C158.494 304.834 159.317 304.817 160.705 303.429C162.746 301.388 161.76 300.636 154.43 298.644C146.706 296.544 145.688 296.573 143.539 298.948ZM75.5205 307.966C74.5045 309.089 73.8585 310.163 74.0835 310.353C74.3095 310.543 78.0706 311.655 82.4407 312.824C89.8068 314.794 90.5188 314.83 92.1909 313.317C93.1829 312.42 93.9949 311.378 93.9949 311.004C93.9949 310.629 90.8629 309.566 87.0338 308.642C83.2057 307.718 79.4646 306.729 78.7206 306.443C77.9766 306.158 76.5365 306.843 75.5205 307.966ZM11.7431 321.075C9.91805 322.138 9.22604 327.995 10.9261 327.995C11.9051 327.995 13.5491 331.903 13.1661 333.319C13.0441 333.773 13.3741 333.878 13.8991 333.553C14.4252 333.228 15.1372 333.42 15.4832 333.979C15.8282 334.539 17.2092 334.996 18.5522 334.996C20.4733 334.996 20.9933 334.475 20.9933 332.554C20.9933 331.211 20.5433 329.835 19.9933 329.495C19.4433 329.155 18.9933 327.749 18.9933 326.37C18.9933 320.933 15.8842 318.663 11.7431 321.075ZM53.744 329.723C51.329 329.976 49.9939 330.628 49.9939 331.555C49.9939 332.347 49.3189 332.995 48.4939 332.995C47.6689 332.995 46.9939 332.545 46.9939 331.995C46.9939 330.439 44.9988 330.819 44.3548 332.497C43.3978 334.992 44.8828 338.996 46.7629 338.991C50.0779 338.983 60.4912 334.123 60.8422 332.421C61.1542 330.913 59.2842 328.784 57.9941 329.178C57.7191 329.262 55.8071 329.508 53.744 329.723Z" fill="#B19CD7"/>
<path fill-rule="evenodd" clip-rule="evenodd" d="M228.91 292.964C222.442 294.119 213.547 298.554 210.544 302.123C208.524 304.522 207.997 306.233 207.997 310.385C207.997 314.883 208.415 316.021 210.962 318.461C214.377 321.732 214.096 322.995 209.956 322.995C207.668 322.995 204.847 324.987 196.996 332.143C191.322 337.316 186.688 342.379 186.333 343.794C185.53 346.993 188.475 352.621 191.357 353.395C196.997 354.908 198.375 354.156 208.391 344.103C215.703 336.764 218.248 333.55 218.248 331.659C218.248 330.256 219.24 328.177 220.453 327.038C222.437 325.173 223.348 325.044 229.578 325.741C234.731 326.317 238.157 326.105 242.998 324.909C256.542 321.564 261.999 316.831 261.999 308.432C261.999 304.067 261.626 303.334 257.444 299.495C251.174 293.74 239.515 291.071 228.91 292.964ZM247.631 314.827C255.92 310.764 255.74 305.074 247.211 301.531C240.458 298.725 231.749 298.505 224.998 300.968C220.143 302.739 214.939 306.828 215.03 308.801C215.089 310.093 217.62 312.87 219.024 313.183C219.792 313.355 221.251 314.228 222.268 315.124C226.331 318.706 240.046 318.546 247.631 314.827Z" fill="#8859DE"/>
<path fill-rule="evenodd" clip-rule="evenodd" d="M119.22 15.5104C120.168 13.8724 121.744 12.2163 122.721 11.8303C122.919 11.752 123.095 11.675 123.261 11.6022C123.422 11.5316 123.575 11.465 123.729 11.4049C126.38 10.3751 129.772 11.251 191.238 27.1268C194.942 28.0837 198.858 29.095 202.997 30.1637C215.923 33.5008 230.718 37.2769 235.875 38.5549C246.215 41.118 249.16 43.102 252.108 49.4892C253.753 53.0533 253.956 56.3613 253.976 79.8469C253.997 104.545 253.888 106.161 252.248 105.527C251.286 105.155 249.26 104.6 247.748 104.295L244.998 103.74V79.5558C244.998 53.7153 244.812 52.6782 239.998 51.7272C238.623 51.4552 229.398 49.0992 219.498 46.4921C209.597 43.885 198.797 41.16 195.497 40.437C192.197 39.715 182.522 37.2859 173.997 35.0389C136.625 25.1926 129.003 23.4946 127.221 24.6186C125.608 25.6356 125.486 32.1898 125.348 125.6C125.224 209.578 125.411 224.856 126.521 221.493C127.248 219.293 127.877 218.118 127.919 218.882C128.082 221.825 121.874 239.894 119.495 243.398C118.12 245.425 116.995 247.458 116.995 247.916C116.995 248.374 116.332 249.299 115.522 249.972C114.247 251.03 114.251 250.788 115.555 248.174C116.867 245.544 117.09 230.49 117.278 131.821C117.48 26.5737 117.618 18.2765 119.22 15.5104ZM68.6583 75.8138C67.5453 71.5547 68.0843 46.5521 69.3074 45.7751C71.2444 44.5431 73.1674 44.8221 87.6658 48.4381L88.3028 48.597C97.5707 50.9074 102.053 52.0247 104.163 54.8891C106.139 57.5716 106.036 61.7862 105.835 69.9478L105.82 70.5516C105.641 77.8548 105.191 84.132 104.819 84.502C103.351 85.964 97.196 85.686 91.4948 83.8989C88.1948 82.8649 84.5697 82.0129 83.4387 82.0049C82.3076 81.9969 78.6416 81.0639 75.2905 79.9329C70.9804 78.4768 69.0393 77.2718 68.6583 75.8138ZM82.0486 68.0956C85.5867 75.1057 86.1027 75.0037 91.0008 66.3246C92.7089 63.2985 93.9269 60.2974 93.7079 59.6564C93.4899 59.0144 92.3549 60.2894 91.1868 62.4895C90.0188 64.6895 88.2378 67.5296 87.2287 68.8006L85.3937 71.1117L83.0237 66.0505C81.7196 63.2675 80.2796 60.9894 79.8236 60.9894C78.5696 60.9894 78.7456 61.5534 82.0486 68.0956ZM182.205 96.7642C184.065 94.4132 187.305 90.3281 189.404 87.685C194.749 80.9569 196.513 81.4549 201.122 90.9901C204.073 97.0972 208.735 107.569 211.696 114.741C212.626 116.994 207 116.127 187.917 111.076C177.704 108.371 166.558 105.611 163.147 104.94C159.737 104.269 156.715 103.344 156.431 102.885C156.147 102.426 158.224 99.1123 161.047 95.5202C165.23 90.1971 166.708 88.9901 169.041 88.9901C171.374 88.9901 172.224 89.6841 173.636 92.7401C174.589 94.8032 176.146 97.5132 177.096 98.7643L178.823 101.039L182.205 96.7642ZM68.0083 111.159C68.0153 103.641 68.2763 96.5402 68.5883 95.3792C69.3254 92.6311 72.7284 92.8981 89.1648 96.9902L89.4966 97.0728C97.7548 99.1285 101.88 100.155 103.94 102.794C105.996 105.427 105.996 109.666 105.995 118.134L105.995 118.475C105.995 134.231 105.395 135.532 98.609 134.487C96.3459 134.138 92.4699 133.215 89.9948 132.435C87.5198 131.654 83.0737 130.561 80.1146 130.005C77.1555 129.449 73.2184 128.056 71.3644 126.911L67.9943 124.828L68.0083 111.159ZM243.248 144.532C242.304 144.171 241.998 139.026 241.998 123.522C241.998 112.23 242.363 102.99 242.809 102.99C243.256 102.99 246.293 106.611 249.559 111.037C252.826 115.462 257.074 121.028 258.999 123.406C260.924 125.783 263.35 128.912 264.389 130.36C265.429 131.807 266.779 132.995 267.389 132.999C268.351 133.006 274.721 130.008 296.343 119.372C299.007 118.061 301.595 117.241 302.093 117.549C302.592 117.857 303 127.082 303 138.05C303 153.35 302.709 157.986 301.75 157.967C301.062 157.954 293.749 156.362 285.499 154.43C277.249 152.499 267.508 150.264 263.852 149.463C260.196 148.662 256.483 147.73 255.601 147.392C254.159 146.839 253.998 149.054 253.998 169.385V191.992H258.377C261.033 191.992 263.24 192.577 263.99 193.481C264.67 194.3 265.577 194.753 266.008 194.487C266.438 194.221 267.058 194.704 267.387 195.561C267.716 196.418 268.438 196.839 268.992 196.496C269.546 196.154 269.999 196.333 269.999 196.894C269.999 197.455 270.912 198.765 272.028 199.805C273.144 200.845 274.258 202.742 274.504 204.021C274.751 205.3 275.464 206.662 276.089 207.049C276.876 207.535 277.009 209.91 276.523 214.753C275.862 221.336 275.96 221.858 278.159 223.497C279.905 224.797 280.022 225.076 278.62 224.598C276.985 224.04 276.819 224.343 277.338 226.936C277.701 228.755 277.438 230.418 276.66 231.204C275.96 231.913 275.087 233.285 274.721 234.252C274.354 235.22 273.705 235.935 273.277 235.841C272.849 235.747 271.149 236.237 269.499 236.929C267.348 237.832 265.722 237.903 263.753 237.179C261.956 236.519 260.797 236.51 260.399 237.155C260.062 237.7 259.142 237.214 258.338 236.066C257.539 234.926 256.235 233.993 255.441 233.993C254.228 233.993 253.998 237.428 253.998 255.526C253.998 279.525 253.298 283.2 248.5 284.404C245.068 285.266 238.053 284.236 231.091 281.848C228.118 280.828 224.855 279.994 223.841 279.994C221.847 279.994 221.464 278.956 222.901 277.444C224.859 275.384 231.07 261.974 233.101 255.421C234.282 251.611 235.853 245.119 236.592 240.993L237.936 233.493L237.387 240.493C237.085 244.344 235.614 251.194 234.117 255.716L231.396 263.937L234.346 264.966C243.895 268.294 245.305 265.721 244.836 245.825C244.546 233.535 244.246 231.305 242.731 230.175C241.76 229.449 241.224 228.437 241.54 227.925C242.444 226.462 241.3 226.834 239.569 228.564C238.141 229.993 237.998 229.766 237.998 226.064C237.998 223.825 237.572 221.993 237.052 221.993C235.779 221.993 236.075 206.676 237.364 205.816C237.922 205.444 238.325 202.969 238.258 200.316C238.179 197.143 238.371 196.288 238.822 197.818L239.506 200.145L241.688 197.818C243.793 195.574 243.882 194.598 244.184 170.252C244.427 150.746 244.214 144.902 243.248 144.532ZM138.673 131.991C137.025 131.991 135.677 129.316 136.584 127.848C137.545 126.293 139.469 127.467 139.816 129.819C140.019 131.204 139.605 131.991 138.673 131.991ZM148.118 133.991C146.807 133.991 144.914 131.406 145.671 130.649C147.04 129.28 148.996 130.069 148.996 131.991C148.996 133.091 148.601 133.991 148.118 133.991ZM128.714 139.727C128.484 141.247 128.29 140.241 128.282 137.491C128.275 134.741 128.463 133.497 128.7 134.727C128.937 135.957 128.943 138.207 128.714 139.727ZM128.738 161.7C128.546 165.436 128.386 162.642 128.385 155.492C128.383 148.341 128.541 145.285 128.735 148.699C128.93 152.114 128.931 157.965 128.738 161.7ZM69.0273 176.054C67.6223 173.429 67.8693 146.691 69.3074 145.777C71.2474 144.543 73.4474 144.836 87.2938 148.172C98.028 150.758 101.023 151.88 103.322 154.173L106.15 156.993L105.822 170.412C105.642 177.793 105.121 184.204 104.664 184.659C103.4 185.919 95.5419 185.333 90.2308 183.583C87.6258 182.724 83.8967 181.822 81.9426 181.578C76.8745 180.945 70.0924 178.044 69.0273 176.054ZM92.4949 157.617L87.4948 156.324L87.2382 156.257C82.5932 155.055 80.2821 154.457 79.1324 155.352C77.994 156.238 77.9942 158.587 77.9945 163.262L77.9945 163.523C77.9945 172.967 79.0246 174.513 83.4057 171.642C85.7007 170.139 85.9057 170.208 88.3078 173.282C91.9869 177.992 93.1439 176.1 92.7879 165.962L92.4949 157.617ZM141.599 156.992C140.167 156.992 138.996 156.494 138.996 155.885C138.996 155.276 139.688 155.043 140.533 155.368C141.378 155.692 144.528 156.672 147.533 157.546C150.538 158.419 152.996 159.642 152.996 160.263C152.996 161.062 152.646 161.042 151.796 160.192C151.136 159.532 149.752 158.992 148.72 158.992C147.017 158.992 146.874 159.715 147.17 166.808C147.477 174.17 147.38 174.602 145.496 174.24C143.65 173.885 143.523 173.205 143.849 165.423L144.201 156.992H141.599ZM80.5296 170.992C80.2356 170.992 79.9946 167.842 79.9946 163.992L79.9945 163.635C79.9937 159.927 79.9933 158.134 80.8546 157.485C81.6604 156.878 83.2206 157.271 86.2407 158.032L86.5517 158.111L90.9948 159.229L90.9628 166.361L90.9318 173.492L88.4308 170.648C86.0417 167.932 85.8207 167.876 83.4977 169.398C82.1596 170.275 80.8246 170.992 80.5296 170.992ZM3.7429 177.912C0.0688164 175.772 2.78988 168.574 8.56801 165.145C9.62703 164.516 11.8431 164.113 13.4931 164.247C16.2352 164.471 16.4932 164.807 16.4932 168.148C16.4932 170.158 16.8302 171.594 17.2432 171.339C17.6562 171.083 17.9932 170.226 17.9932 169.433C17.9932 167.229 18.7522 167.645 22.8693 172.103C26.5444 176.083 26.6334 176.352 25.6724 180.551C25.1274 182.936 24.4134 184.799 24.0863 184.69C23.7603 184.581 22.4463 185.539 21.1663 186.819C19.8803 188.105 18.1782 188.893 17.3642 188.581C16.5352 188.263 16.1572 188.448 16.5002 189.003C17.9732 191.386 12.1051 189.747 9.76703 187.122C6.18695 183.104 3.6009 178.998 4.62792 178.962C5.10393 178.945 4.70492 178.473 3.7429 177.912ZM281.163 200.326C278.151 199.538 278.157 193.518 281.173 190.306C285.262 185.954 291.13 187.754 293.868 194.199C295.24 197.431 296.795 198.909 301.493 201.449C305.739 203.743 307.597 205.393 308.114 207.327C309.199 211.384 307.408 216.486 304.422 217.847C301.143 219.34 300.376 218.818 299.575 214.545C298.992 211.441 294.797 206.993 292.451 206.993C292.044 206.993 290.293 208.633 288.56 210.638C285.718 213.925 285.186 214.163 283.133 213.065C281.246 212.055 280.899 211.131 281.104 207.67C281.24 205.373 281.796 202.908 282.34 202.192C283.063 201.24 282.748 200.74 281.163 200.326ZM189.159 195.397C188.973 195.261 189.845 193.764 191.097 192.071C194.255 187.799 196.428 188.164 199.55 193.492C201 195.967 202.348 197.992 202.544 197.992C202.74 197.992 204.294 195.967 205.997 193.492C207.7 191.017 209.877 188.992 210.835 188.992C211.962 188.992 213.888 191.419 216.288 195.862C218.328 199.641 219.998 203.065 219.998 203.471C219.998 203.877 218.76 203.921 217.248 203.567C213.763 202.753 189.612 195.728 189.159 195.397ZM192.247 208.997C186.427 207.32 184.997 206.522 184.997 204.951C184.997 204.87 184.997 204.792 184.996 204.717C184.993 204.123 184.991 203.697 185.2 203.446C185.734 202.806 187.647 203.316 194.447 205.13L195.497 205.41C222.632 212.641 223.998 213.131 223.998 215.639C223.998 216.934 223.746 217.993 223.438 217.993C223.13 217.993 217.618 216.439 211.188 214.539C204.758 212.64 196.235 210.146 192.247 208.997ZM128.703 214.231C128.464 215.475 128.259 214.693 128.248 212.493C128.237 210.293 128.433 209.275 128.683 210.231C128.933 211.187 128.942 212.987 128.703 214.231ZM275.157 210.993C275.157 212.368 275.384 212.931 275.661 212.243C275.939 211.556 275.939 210.431 275.661 209.743C275.384 209.056 275.157 209.618 275.157 210.993ZM112.995 253.494C112.445 253.834 111.995 253.635 111.995 253.053C111.995 252.471 112.445 251.994 112.995 251.994C113.545 251.994 113.995 252.192 113.995 252.435C113.995 252.678 113.545 253.154 112.995 253.494ZM104.59 271.494C106.542 269.294 110.868 264.42 114.203 260.663C118.137 256.231 120.834 253.987 121.882 254.273C122.77 254.516 132.496 257.098 143.496 260.011C154.496 262.925 163.667 265.446 163.876 265.615C164.333 265.983 155.422 276.615 149.101 283.244C146.609 285.857 143.803 287.994 142.864 287.994C141.107 287.994 134.095 286.391 120.995 282.993C119.625 282.638 118.339 282.306 117.135 281.996L117.124 281.993C105.598 279.019 101.51 277.964 101.238 276.29C101.088 275.369 102.091 274.261 103.646 272.545C103.942 272.218 104.258 271.868 104.59 271.494ZM92.4559 259.129C91.6518 257.279 91.0108 255.479 91.0298 255.129C91.1028 253.828 93.9239 259.553 93.9199 260.994C93.9179 261.819 93.2589 260.98 92.4559 259.129ZM109.877 256.994C109.327 256.994 109.155 256.544 109.495 255.994C109.835 255.444 110.563 254.994 111.113 254.994C111.663 254.994 111.835 255.444 111.495 255.994C111.155 256.544 110.427 256.994 109.877 256.994ZM159.634 267.299C159.508 267.173 150.96 264.803 140.638 262.032C130.316 259.261 121.502 256.994 121.051 256.994C120.188 256.994 103.865 275.197 104.32 275.653C104.705 276.037 141.954 285.994 143.007 285.994C143.869 285.994 160.09 267.755 159.634 267.299ZM98.495 269.494L101.941 265.744C105.149 262.254 105.995 261.534 105.995 262.298C105.995 262.465 104.308 264.152 102.245 266.048L98.495 269.494ZM85.1527 266.392C88.3278 268.616 90.5988 268.395 92.6629 265.659L94.4239 263.324L96.2099 266.655C98.273 270.505 98.508 272.994 96.809 272.994C96.1569 272.994 94.4729 274.006 93.0669 275.244C90.5728 277.438 90.5548 277.44 92.3499 275.307C94.7069 272.506 94.2169 271.827 87.4518 268.517C84.3817 267.015 82.0936 265.562 82.3676 265.288C82.6416 265.014 83.8947 265.511 85.1527 266.392ZM81.4946 286.494L85.4477 282.244C89.1238 278.292 89.9948 277.534 89.9948 278.291C89.9948 278.454 88.0828 280.367 85.7447 282.541L81.4946 286.494ZM74.5575 292.94C74.0425 292.97 74.9135 291.645 76.4945 289.995C78.0755 288.344 79.5436 286.994 79.7576 286.994C80.5936 286.994 75.4385 292.888 74.5575 292.94ZM55.227 311.995C54.944 311.995 56.6871 309.791 59.1031 307.097C63.1692 302.561 64.9943 301.157 64.9943 302.563C64.9943 303.26 55.9481 311.995 55.227 311.995ZM11.4931 327.995C9.45502 326.304 9.59903 322.324 11.7431 321.075C15.9212 318.642 17.8062 319.886 19.0812 325.918C19.4972 327.885 20.1343 330.445 20.4963 331.607C20.9603 333.096 20.6463 333.915 19.4332 334.381C17.4142 335.155 12.9931 332.556 12.9931 330.594C12.9931 329.849 12.3181 328.68 11.4931 327.995ZM65.7233 321.599C65.3913 321.931 64.5283 321.967 63.8072 321.678C63.0092 321.359 63.2462 321.122 64.4112 321.074C65.4653 321.031 66.0553 321.267 65.7233 321.599ZM94.5539 330.995C94.3109 330.995 93.8349 330.545 93.4949 329.995C93.1549 329.445 93.3539 328.995 93.9359 328.995C94.5179 328.995 94.9949 329.445 94.9949 329.995C94.9949 330.545 94.7969 330.995 94.5539 330.995ZM47.4819 332.648C48.8109 334.466 50.9939 333.713 50.9939 331.436C50.9939 330.373 52.307 329.995 55.9941 329.995C61.0702 329.995 62.5752 331.498 59.7441 333.741C57.9231 335.183 46.6409 338.896 45.7518 338.346C44.8358 337.78 44.7268 330.995 45.6338 330.995C45.9858 330.995 46.8169 331.739 47.4819 332.648ZM108.495 333.965C107.945 333.965 106.82 333.529 105.995 332.995C105.17 332.462 104.945 332.026 105.495 332.026C106.045 332.026 107.17 332.462 107.995 332.995C108.82 333.529 109.045 333.965 108.495 333.965ZM125.996 338.423C124.621 338.055 122.821 337.337 121.996 336.827C120.953 336.183 121.258 336.104 122.996 336.569C124.371 336.937 126.171 337.655 126.996 338.165C128.038 338.809 127.733 338.888 125.996 338.423ZM166.497 341.284L168.921 338.64C171.543 335.781 171.997 335.521 171.997 336.881C171.997 337.368 170.759 338.558 169.247 339.525L166.497 341.284ZM139.757 341.568C139.57 341.756 137.409 341.284 134.956 340.519C132.503 339.755 131.216 339.1 132.097 339.063C133.938 338.986 140.269 341.057 139.757 341.568ZM158.996 344.91C158.007 344.874 158.177 344.563 159.496 343.996C162.245 342.815 163.824 342.815 161.996 343.996C161.171 344.529 159.821 344.941 158.996 344.91ZM152.725 344.6C152.393 344.932 151.53 344.968 150.809 344.679C150.011 344.36 150.248 344.123 151.413 344.075C152.467 344.032 153.057 344.268 152.725 344.6Z" fill="#E01A4F"/>
<path fill-rule="evenodd" clip-rule="evenodd" d="M123.486 12.0044C123.14 12.5634 122.453 12.7704 121.957 12.4644C121.462 12.1584 120.353 13.5894 119.494 15.6454C118.109 18.9605 117.936 32.0148 117.97 130.861C117.99 192.174 118.254 242.585 118.555 242.887C119.327 243.659 120.664 241.341 122.991 235.205C124.95 230.04 124.996 227.571 124.996 128.153C124.996 50.3362 125.278 26.1067 126.196 25.1886C128.046 23.3386 132.203 23.7336 144.336 26.9137C155.655 29.8798 174.74 34.7639 218.998 46.0221C232.473 49.4492 243.829 52.7573 244.233 53.3713C244.637 53.9863 244.974 65.3805 244.983 78.6928L244.998 102.896L248.748 103.937C250.811 104.51 252.856 104.981 253.295 104.984C253.733 104.987 253.958 93.1782 253.795 78.7398C253.396 43.4621 253.264 43.203 232.998 38.0529C226.673 36.4449 215.423 33.5118 207.997 31.5328C200.572 29.5547 190.447 26.9957 185.497 25.8457C180.547 24.6966 165.636 20.8826 152.364 17.3715C127.573 10.8143 124.567 10.2553 123.486 12.0044ZM68.5883 95.3792C68.2763 96.5402 68.0153 103.641 68.0083 111.159L67.9943 124.828L71.3644 126.911C73.2184 128.056 77.1555 129.449 80.1146 130.005C83.0737 130.561 87.5198 131.654 89.9948 132.435C92.4699 133.215 96.3459 134.138 98.609 134.487C105.395 135.532 105.995 134.231 105.995 118.475C105.995 101.065 106.107 101.208 89.1648 96.9902C72.7284 92.8981 69.3254 92.6311 68.5883 95.3792ZM136.469 128.035C135.532 129.551 138.072 132.315 139.286 131.101C140.408 129.979 139.535 126.991 138.086 126.991C137.552 126.991 136.824 127.461 136.469 128.035ZM244.998 170.185V195.6L241.513 198.978C239.596 200.836 238.208 202.536 238.428 202.756C238.648 202.976 238.169 204.732 237.365 206.657C235.847 210.291 235.712 220.698 237.171 221.6C237.626 221.881 237.998 222.954 237.998 223.985C237.998 225.015 238.856 226.131 239.906 226.464C240.955 226.797 242.077 227.756 242.399 228.594C242.72 229.433 243.398 229.864 243.905 229.55C244.451 229.213 244.876 235.894 244.95 245.95C245.065 261.78 244.937 263.055 243.036 264.956C240.628 267.364 240.756 267.354 234.954 265.593L230.41 264.214L226.583 271.649C224.478 275.739 222.922 279.195 223.127 279.331C223.331 279.466 226.648 280.536 230.498 281.707C244.995 286.118 250.001 285.625 252.546 279.532C253.667 276.851 253.998 271.013 253.998 253.958V231.857L256.749 233.75C263.985 238.733 268.595 238.817 273.917 234.066C276.94 231.367 278.105 226.794 276.087 225.547C275.585 225.237 275.26 221.048 275.365 216.238C275.486 210.691 275.047 206.213 274.165 203.993C271.72 197.833 263.412 191.992 257.098 191.992H253.998V169.551C253.998 157.208 253.657 146.898 253.24 146.641C252.824 146.383 250.799 145.857 248.74 145.47L244.998 144.768V170.185ZM8.56801 165.145C2.78988 168.574 0.0688164 175.772 3.7429 177.912C4.70492 178.473 5.10393 178.945 4.62792 178.962C3.6009 178.998 6.18695 183.104 9.76703 187.122C12.1051 189.747 17.9732 191.386 16.5002 189.003C16.1642 188.46 16.4802 188.242 17.2022 188.519C19.2072 189.288 24.7064 183.69 25.7864 179.78C26.6784 176.548 26.4744 176.007 22.9103 172.147C18.7532 167.645 17.9932 167.226 17.9932 169.433C17.9932 170.226 17.6562 171.083 17.2432 171.339C16.8302 171.594 16.4932 170.158 16.4932 168.148C16.4932 164.807 16.2352 164.471 13.4931 164.247C11.8431 164.113 9.62703 164.516 8.56801 165.145ZM32.4335 189.824C30.7045 192.75 28.8055 194.228 23.2623 196.96L20.0303 198.552L22.3513 201.056C24.0093 202.845 24.4524 204.12 23.9033 205.526C23.4803 206.608 23.1023 208.538 23.0633 209.816L22.9933 212.138L25.6394 210.057L28.2864 207.975L31.7175 211.984C35.1566 216.002 38.4907 217.096 40.6667 214.92C41.9357 213.651 49.9939 215.475 49.9939 217.032C49.9939 217.56 50.7939 217.993 51.771 217.993C55.05 217.993 58.0181 221.09 61.6502 228.302C63.6332 232.24 65.9813 236.57 66.8683 237.923C68.8393 240.931 68.4783 243.778 65.7543 246.719L63.6932 248.944L67.5933 253.278C69.7394 255.663 72.5144 258.836 73.7604 260.33C75.6605 262.608 76.3555 262.871 78.0585 261.96C79.1766 261.362 80.5106 259.767 81.0246 258.415C81.5386 257.064 83.0137 255.557 84.3017 255.067C87.6448 253.796 90.2198 249.641 88.6798 248.004C87.7648 247.031 87.7798 246.639 88.7448 246.286C90.6678 245.581 90.2258 242.187 88.0608 241.028C86.9967 240.459 85.0287 239.993 83.6877 239.993C81.2486 239.993 75.3095 234.456 71.4814 228.613C70.5054 227.123 66.6373 222.679 62.8852 218.737C59.1331 214.794 56.4011 211.326 56.8141 211.031C57.2271 210.735 58.0171 208.212 58.5691 205.424C59.5051 200.699 59.4161 200.235 57.2561 198.605C54.254 196.341 48.8179 195.481 46.2358 196.862C44.6658 197.703 43.9248 197.614 42.9768 196.471C42.3008 195.658 41.9958 194.992 42.2978 194.992C42.5998 194.992 41.2317 193.192 39.2567 190.992C37.2816 188.792 35.3146 186.992 34.8856 186.992C34.4576 186.992 33.3536 188.266 32.4335 189.824ZM283.234 189.038C278.968 190.734 277.389 199.339 281.163 200.326C282.748 200.74 283.063 201.24 282.34 202.192C281.796 202.908 281.24 205.373 281.104 207.67C280.9 211.121 281.248 212.056 283.113 213.054C285.111 214.123 285.678 213.916 288.06 211.251C289.539 209.595 290.948 207.646 291.19 206.921C292.06 204.31 298.837 209.719 300.138 214.063C302.164 220.823 308 218.044 308 210.319C308 205.828 306.515 204.024 300.917 201.714C297.311 200.226 292.999 195.759 292.999 193.512C292.999 190.372 286.904 187.579 283.234 189.038ZM191.097 192.071C189.845 193.764 188.973 195.261 189.159 195.397C189.612 195.728 213.763 202.753 217.248 203.567C218.76 203.921 219.998 203.877 219.998 203.471C219.998 203.065 218.328 199.641 216.288 195.862C213.888 191.419 211.962 188.992 210.835 188.992C209.877 188.992 207.7 191.017 205.997 193.492C204.294 195.967 202.74 197.992 202.544 197.992C202.348 197.992 201 195.967 199.55 193.492C196.428 188.164 194.255 187.799 191.097 192.071ZM287.012 237.761C281.221 240.649 277.393 243.176 277.188 244.247C276.641 247.096 279.718 247.408 282.799 244.816C284.516 243.37 288.245 241.914 292.279 241.112C297.294 240.115 299.081 239.311 299.546 237.843C300.118 236.044 298.578 232.97 297.127 233.011C296.781 233.021 292.23 235.158 287.012 237.761ZM278.156 239.635C276.317 241.482 275.11 242.993 275.473 242.993C276.611 242.993 282.999 237.8 282.999 236.874C282.999 235.367 281.625 236.15 278.156 239.635ZM297.687 242.689C296.554 244.522 287.757 247.152 286.607 246.002C285.936 245.331 284.758 245.784 283.051 247.372C281.648 248.677 279.149 250.182 277.499 250.717C274.982 251.533 274.538 252.157 274.741 254.592C274.875 256.188 275.112 263.052 275.268 269.844C275.493 279.645 275.874 282.431 277.113 283.344C277.972 283.977 278.485 285.056 278.254 285.743C278.022 286.43 278.336 289.339 278.951 292.206C279.566 295.073 280.299 299.461 280.58 301.957C281.334 308.65 281.48 309.285 282.831 311.742C283.969 313.812 283.708 314.241 279.519 317.194C273.537 321.411 275.573 322.855 283.319 319.891L288.816 317.787L288.605 301.391C288.445 289.013 288.693 284.994 289.617 284.994C290.289 284.994 291.151 286.408 291.53 288.136C292.242 291.379 293.984 293.363 302.743 300.903C308.171 305.577 309.412 308.195 309.063 314.245C308.672 321.025 312.578 317.76 315.082 309.213C316.375 304.796 315.588 302.559 312.7 302.45C312.04 302.425 311.598 301.905 311.718 301.295C311.838 300.686 311.275 299.639 310.468 298.968C309.661 298.298 309 297.13 309 296.373C309 295.615 308.55 294.995 308 294.995C307.45 294.995 306.985 294.433 306.967 293.745C306.922 292.068 303.906 288.549 301.33 287.171C299.127 285.992 297.466 280.942 299.397 281.293C300.177 281.435 300.387 276.403 300.116 264.069C299.735 246.758 299.026 240.522 297.687 242.689ZM30.0595 269.223C29.2995 273.772 28.4024 279.998 28.0664 283.059C27.6144 287.174 26.6484 289.649 24.3574 292.56C22.6543 294.724 20.9143 297.62 20.4923 298.995C20.0693 300.37 19.4152 301.72 19.0392 301.995C18.6622 302.27 17.5972 305.609 16.6712 309.414C15.0912 315.912 15.0922 316.447 16.6862 318.208C19.5522 321.375 21.9703 319.989 25.7844 312.995C27.7334 309.42 29.6445 306.27 30.0305 305.995C31.1995 305.161 35.9936 295.166 35.9936 293.562C35.9936 292.738 36.6256 290.585 37.3976 288.779C38.1697 286.972 39.3667 283.581 40.0577 281.244C41.8647 275.131 43.4278 275.948 43.8858 283.246C44.3238 290.209 44.3158 291.655 43.7688 304.495C43.3018 315.471 44.7628 326.969 46.7199 327.72C47.4909 328.016 49.1359 327.796 50.3759 327.231C52.307 326.351 52.655 325.365 52.803 320.349C52.898 317.129 53.865 307.63 54.951 299.239C56.0381 290.848 56.6691 283.31 56.3531 282.488C56.0381 281.666 56.1441 280.206 56.5891 279.244C57.0341 278.282 57.4191 274.701 57.4461 271.286L57.4941 265.079L51.994 265.621C46.9789 266.115 40.3067 264.705 32.9675 261.598C31.7255 261.072 31.1845 262.493 30.0595 269.223ZM91.9219 266.85L89.3498 269.506L93.2299 271.36C95.3629 272.379 97.393 272.93 97.739 272.583C98.086 272.237 97.498 270.207 96.4319 268.073L94.4949 264.193L91.9219 266.85ZM223.498 297.951C218.081 300.539 215.339 303.007 214.557 305.995C214.002 308.114 214.072 308.224 215.016 306.716C218.508 301.138 231.916 297.072 240.486 298.992C246.347 300.306 252.571 303.433 253.914 305.738C254.848 307.342 254.94 307.315 254.968 305.419C255.006 302.828 251.61 299.566 246.766 297.543C241.369 295.287 228.602 295.511 223.498 297.951ZM207.997 312.813C207.997 313.897 209.355 316.238 211.016 318.015C214.464 321.705 213.824 323.639 209.109 323.773C206.855 323.837 203.944 326.044 195.961 333.742C186.165 343.19 185.751 343.758 186.666 346.502C187.682 349.551 190.993 352.396 194.812 353.502C196.776 354.07 198.664 352.655 207.276 344.157C214.316 337.21 217.458 333.395 217.532 331.704C217.591 330.364 218.508 328.162 219.571 326.811C221.423 324.456 221.877 324.373 230.679 324.794C238.079 325.148 241.214 324.821 246.867 323.103C254.273 320.854 260.999 315.804 260.999 312.492C260.999 311.11 260.525 311.328 258.821 313.494C257.624 315.016 254.135 317.424 251.07 318.845C246.092 321.152 244.273 321.426 233.998 321.414C220.888 321.4 215.428 319.672 210.683 314.033C208.423 311.348 207.997 311.154 207.997 312.813ZM11.5641 321.566C9.76403 323.367 9.49003 326.566 11.0551 327.533C11.6391 327.894 12.5231 329.258 13.0191 330.564C13.9741 333.076 18.5122 334.877 20.0403 333.348C20.5743 332.814 20.3413 331.291 19.4672 329.607C18.6562 328.045 17.9932 325.783 17.9932 324.581C17.9932 320.388 14.4191 318.712 11.5641 321.566ZM50.6479 332.21C50.0739 334.404 46.9939 334.595 46.9939 332.436C46.9939 331.579 46.5438 331.155 45.9938 331.495C44.4148 332.471 44.8298 336.996 46.5588 337.659C48.8959 338.556 60.4192 333.741 60.8122 331.702C61.3092 329.123 51.325 329.621 50.6479 332.21Z" fill="#140079"/>
<path fill-rule="evenodd" clip-rule="evenodd" d="M121.779 13.7384C117.965 18.1105 117.995 17.1845 117.995 130.759C117.995 191.754 118.303 241.968 118.68 242.345C119.057 242.722 120.389 240.659 121.641 237.762L123.916 232.493L123.956 129.741C123.996 27.7077 124.01 26.9747 126.034 24.9507C128.788 22.1966 126.837 21.7936 186.497 37.4519C187.597 37.7409 194.122 39.322 200.997 40.966C218.99 45.2671 240.131 50.8412 242.748 51.9733C244.995 52.9453 244.998 52.9793 244.998 77.8468V102.747L248.998 103.762L252.998 104.777V78.8518C252.998 50.6382 252.69 48.7242 247.371 43.8641C245.356 42.022 241.513 40.486 234.498 38.718C211.621 32.9518 152.652 17.9075 141.758 15.0584C128.286 11.5354 123.951 11.2483 121.779 13.7384ZM68.5883 95.3792C68.2763 96.5402 68.0153 103.641 68.0083 111.159L67.9943 124.828L71.3644 126.911C73.2184 128.056 77.1555 129.449 80.1146 130.005C83.0737 130.561 87.5198 131.654 89.9948 132.435C92.4699 133.215 96.3459 134.138 98.609 134.487C105.395 135.532 105.995 134.231 105.995 118.475C105.995 101.065 106.107 101.208 89.1648 96.9902C72.7284 92.8982 69.3254 92.6311 68.5883 95.3792ZM136.996 129.491C136.996 130.316 137.657 130.991 138.465 130.991C139.359 130.991 139.708 130.405 139.358 129.491C139.041 128.666 138.38 127.991 137.889 127.991C137.398 127.991 136.996 128.666 136.996 129.491ZM244.998 170.301V195.397L242.146 198.444C236.509 204.469 234.282 216.394 237.594 222.824C238.977 225.509 243.133 229.599 244.145 229.271C244.522 229.149 244.884 236.863 244.951 246.414C245.102 268.233 244.739 268.788 232.498 265.45C230.844 264.998 229.866 266.103 226.84 271.845L223.183 278.786L229.659 280.974C233.222 282.177 237.743 283.361 239.706 283.605C241.669 283.848 243.555 284.22 243.897 284.431C245.391 285.355 251.095 281.868 252.006 279.474C252.551 278.038 252.998 267.192 252.998 255.37C252.998 238.503 252.729 234.011 251.748 234.508C251.061 234.856 251.35 234.448 252.392 233.602C254.107 232.207 254.532 232.231 256.893 233.853C263.985 238.727 268.632 238.785 273.917 234.066C276.94 231.367 278.105 226.794 276.087 225.547C275.585 225.237 275.26 221.048 275.365 216.238C275.583 206.204 274.254 201.818 269.775 197.803C264.2 192.806 256.018 190.37 253.448 192.944C252.848 193.545 252.603 185.304 252.783 170.574L253.067 147.252L249.033 146.228L244.998 145.204V170.301ZM8.56801 165.145C2.78988 168.574 0.0688164 175.772 3.7429 177.912C4.70492 178.473 5.10393 178.945 4.62792 178.962C3.6009 178.998 6.18695 183.104 9.76703 187.122C12.1051 189.747 17.9732 191.386 16.5002 189.003C16.1642 188.46 16.4802 188.242 17.2022 188.519C19.2072 189.288 24.7064 183.69 25.7864 179.78C26.6784 176.548 26.4744 176.007 22.9103 172.147C18.7532 167.645 17.9932 167.226 17.9932 169.433C17.9932 170.226 17.6562 171.083 17.2432 171.339C16.8302 171.594 16.4932 170.158 16.4932 168.148C16.4932 164.807 16.2352 164.471 13.4931 164.247C11.8431 164.113 9.62703 164.516 8.56801 165.145ZM191.097 192.071C189.845 193.764 188.973 195.261 189.159 195.397C189.612 195.728 213.763 202.753 217.248 203.567C218.76 203.921 219.998 203.877 219.998 203.471C219.998 203.065 218.328 199.641 216.288 195.862C213.888 191.419 211.962 188.992 210.835 188.992C209.877 188.992 207.7 191.017 205.997 193.492C204.294 195.967 202.74 197.992 202.544 197.992C202.348 197.992 201 195.967 199.55 193.492C196.428 188.164 194.255 187.799 191.097 192.071ZM250.998 193.433C250.998 193.676 250.548 194.152 249.998 194.492C249.448 194.832 248.998 194.633 248.998 194.051C248.998 193.469 249.448 192.992 249.998 192.992C250.548 192.992 250.998 193.19 250.998 193.433ZM279.68 193.645C279.305 194.019 278.999 195.548 278.999 197.042C278.999 198.988 279.614 199.921 281.163 200.326C282.748 200.74 283.063 201.24 282.34 202.192C281.796 202.908 281.24 205.373 281.104 207.67C280.903 211.068 281.258 212.061 283.011 212.999C284.771 213.941 285.533 213.819 287.175 212.334C290.586 209.247 291.25 207.19 289.598 204.83C288.646 203.472 288.326 201.61 288.712 199.68C289.237 197.052 289.077 196.748 287.495 197.355C286.249 197.833 284.834 197.25 283.017 195.509C281.556 194.109 280.054 193.27 279.68 193.645ZM24.8444 196.351C21.2073 198.515 21.2013 198.531 23.0483 200.813C24.4904 202.593 24.6904 203.66 23.9473 205.613C23.4233 206.993 22.9933 209.015 22.9933 210.105C22.9933 212.03 23.0633 212.036 25.4664 210.29C26.8834 209.26 27.7244 207.853 27.4344 206.993C27.1574 206.168 28.7795 207.63 31.0395 210.243C35.1356 214.978 37.8367 216.01 40.9597 214.035C41.8787 213.454 42.8798 213.484 43.6408 214.115C46.3008 216.323 53.276 214.95 56.4991 211.585C57.0741 210.984 58.0011 208.212 58.5591 205.424C59.4911 200.768 59.3971 200.221 57.4141 198.724C54.529 196.548 50.5629 195.632 47.4279 196.419C44.5958 197.13 41.9937 202.046 41.9937 206.683V209.438L40.2787 206.966C39.3357 205.606 37.7147 203.593 36.6766 202.493C35.6386 201.393 33.6576 199.029 32.2725 197.242C29.3645 193.486 29.6105 193.516 24.8444 196.351ZM287.012 237.761C281.221 240.649 277.393 243.176 277.188 244.246C276.641 247.096 279.718 247.408 282.799 244.816C284.516 243.37 288.245 241.914 292.279 241.112C297.294 240.115 299.081 239.311 299.546 237.843C300.118 236.044 298.578 232.97 297.127 233.011C296.781 233.021 292.23 235.158 287.012 237.761ZM68.6613 240.66C68.2943 241.026 67.9943 242.01 67.9943 242.845C67.9943 243.681 67.0403 245.38 65.8743 246.621L63.7552 248.877L68.7183 253.686C71.4474 256.33 74.1535 259.365 74.7305 260.429C75.7335 262.276 75.8995 262.286 78.3876 260.656C81.7876 258.428 81.6766 256.535 77.8915 252.224C75.0935 249.037 74.9575 248.594 76.5105 247.725C77.4575 247.195 80.0916 246.797 82.3636 246.841C84.6357 246.885 87.2817 246.682 88.2448 246.39C90.5878 245.679 90.4728 242.319 88.0608 241.028C85.9417 239.894 69.7344 239.586 68.6613 240.66ZM68.7233 249.598C68.3913 249.93 67.5283 249.966 66.8073 249.677C66.0093 249.358 66.2463 249.121 67.4113 249.073C68.4653 249.03 69.0553 249.266 68.7233 249.598ZM30.4115 268.244C29.9495 271.682 29.5055 275.394 29.4245 276.494C29.3435 277.594 29.1915 278.719 29.0875 278.994C28.9835 279.269 28.7035 281.703 28.4644 284.403C28.1784 287.63 27.3354 289.96 26.0014 291.202C23.8473 293.209 17.5242 304.995 18.6012 304.995C18.9512 304.995 18.6782 305.67 17.9932 306.495C17.3082 307.32 17.0082 307.995 17.3262 307.995C17.6442 307.995 17.2492 309.852 16.4492 312.121C14.6431 317.239 14.5621 316.666 17.3522 318.495C20.4083 320.497 22.4973 319.623 24.0983 315.673C24.8074 313.925 27.1094 309.656 29.2155 306.186C33.0885 299.803 34.0676 297.492 38.6057 284.013C39.9907 279.898 41.5697 276.256 42.1147 275.919C42.7008 275.557 42.8358 273.286 42.4468 270.349C41.8037 265.508 41.6757 265.351 37.0066 263.692C34.3766 262.758 32.0065 261.994 31.7385 261.994C31.4705 261.994 30.8735 264.807 30.4115 268.244ZM92.4859 267.004C90.7108 268.965 90.7138 269.068 92.5759 270.447C93.6309 271.228 95.2369 272.067 96.1439 272.311C97.654 272.716 97.666 272.448 96.2889 269.124C94.3749 264.504 94.6229 264.643 92.4859 267.004ZM295.249 282.967C292.912 284.028 290.999 285.339 290.999 285.88C290.999 288.18 293.285 292.641 295.415 294.495C296.679 295.595 299.996 298.479 302.787 300.903C305.579 303.327 308.127 306.365 308.45 307.653C308.774 308.941 309.379 309.995 309.795 309.995C310.212 309.995 310.385 311.908 310.179 314.245C309.849 317.995 309.978 318.319 311.275 316.995C312.083 316.17 313.474 313.287 314.365 310.589C315.633 306.748 315.726 305.369 314.79 304.242C313.766 303.008 313.49 303.066 312.867 304.648C312.22 306.293 312.119 306.249 311.945 304.245C311.609 300.376 311.531 300.126 310.25 298.845C309.563 298.158 309 297.01 309 296.295C309 295.58 308.55 294.995 308 294.995C307.45 294.995 306.985 294.433 306.967 293.745C306.921 292.012 303.876 288.534 301.108 287.052C299.408 286.143 298.921 285.181 299.261 283.405C299.514 282.079 299.672 281.004 299.61 281.016C299.549 281.028 297.586 281.906 295.249 282.967ZM278.023 286.63C278.036 287.655 278.474 290.295 278.996 292.495C279.519 294.695 280.202 298.745 280.516 301.495C281.333 308.662 281.466 309.26 282.776 311.64C283.73 313.374 283.664 314.028 282.431 315.052C281.201 316.072 281.157 316.5 282.202 317.251C283.153 317.935 283.046 318.039 281.798 317.639C280.862 317.34 279.062 317.958 277.798 319.012L275.499 320.928L277.666 320.962C278.858 320.98 281.817 320.144 284.243 319.105L288.652 317.215L288.576 302.188C288.533 293.923 288.274 286.94 287.999 286.671C287.724 286.401 285.362 285.863 282.749 285.474C278.524 284.845 278.002 284.973 278.023 286.63ZM227.5 297.131C224.081 297.931 215.998 302.506 215.998 303.641C215.998 303.846 218.135 302.916 220.748 301.574C229.652 296.998 242.303 297.263 250.998 302.207L254.498 304.197L252.057 301.578C247.661 296.863 236.943 294.922 227.5 297.131ZM209.821 315.603C210.423 316.763 212.098 318.486 213.542 319.432C216.038 321.067 216.077 321.219 214.332 322.541C213.323 323.306 211.2 323.946 209.612 323.963C207.97 323.981 205.78 324.965 204.53 326.245C203.322 327.483 199.671 331.001 196.415 334.064C188.986 341.054 187.259 344.081 188.787 347.435C189.402 348.785 191.07 350.653 192.492 351.585C196.078 353.934 198.122 352.81 208.454 342.806C215.397 336.084 216.998 333.979 216.998 331.569C216.998 329.743 217.991 327.568 219.585 325.904C221.941 323.445 222.498 323.295 225.835 324.221C230.396 325.486 241.976 324.574 248.152 322.463C250.712 321.588 254.537 319.304 256.653 317.387L260.499 313.901L256.191 316.881C251.635 320.032 240.93 322.995 234.1 322.995C225.406 322.995 215.97 319.971 211.112 315.628L208.726 313.495L209.821 315.603ZM12.8461 320.725C9.58103 321.472 9.89303 325.167 13.6021 329.693C16.9312 333.755 18.8472 334.808 20.2913 333.364C20.6383 333.016 20.2633 331.791 19.4582 330.641C18.6522 329.491 17.9932 327.37 17.9932 325.927C17.9932 322.922 15.2702 320.17 12.8461 320.725ZM54.494 330.722C53.394 330.995 52.134 331.843 51.694 332.606C51.254 333.37 49.5669 333.996 47.9439 333.996C44.7498 333.996 44.1768 335.073 46.3938 336.913C47.4809 337.815 49.1059 337.549 53.642 335.725C61.7212 332.476 62.3512 328.776 54.494 330.722Z" fill="#140079"/>
<path fill-rule="evenodd" clip-rule="evenodd" d="M68.5883 95.3792C68.2763 96.5402 68.0153 103.641 68.0083 111.159L67.9943 124.828L71.3644 126.911C73.2184 128.056 77.1555 129.449 80.1146 130.005C83.0737 130.561 87.5198 131.654 89.9948 132.435C92.4699 133.215 96.346 134.138 98.609 134.487C105.395 135.532 105.995 134.231 105.995 118.475C105.995 101.065 106.107 101.208 89.1648 96.9902C72.7284 92.8981 69.3254 92.6311 68.5883 95.3792ZM8.56801 165.145C2.78988 168.574 0.0688162 175.772 3.7429 177.912C4.70492 178.473 5.10393 178.945 4.62792 178.962C3.6009 178.998 6.18695 183.104 9.76703 187.122C12.1051 189.747 17.9732 191.386 16.5002 189.003C16.1642 188.46 16.4802 188.242 17.2022 188.519C19.2072 189.288 24.7064 183.69 25.7864 179.78C26.6784 176.548 26.4744 176.007 22.9103 172.147C18.7532 167.645 17.9932 167.226 17.9932 169.433C17.9932 170.226 17.6562 171.083 17.2432 171.339C16.8302 171.594 16.4932 170.158 16.4932 168.148C16.4932 164.807 16.2352 164.471 13.4931 164.247C11.8431 164.113 9.62703 164.516 8.56801 165.145ZM191.097 192.071C189.845 193.764 188.973 195.261 189.159 195.397C189.612 195.728 213.763 202.753 217.248 203.567C218.76 203.921 219.998 203.877 219.998 203.471C219.998 203.065 218.328 199.64 216.288 195.862C213.888 191.419 211.962 188.992 210.836 188.992C209.877 188.992 207.7 191.017 205.997 193.492C204.294 195.967 202.74 197.992 202.544 197.992C202.348 197.992 201 195.967 199.55 193.492C196.428 188.164 194.255 187.799 191.097 192.071ZM253.488 193.008C253.142 193.567 252.472 193.785 251.998 193.492C251.524 193.199 250.849 193.424 250.498 193.992C250.147 194.56 249.441 194.766 248.929 194.449C248.417 194.133 247.998 194.377 247.998 194.992C247.998 195.607 247.575 195.849 247.058 195.529C245.263 194.42 239.477 200.759 237.653 205.832C235.678 211.323 235.655 219.025 237.601 222.824C239.025 225.605 243.145 229.595 244.229 229.243C244.652 229.106 244.945 229.331 244.88 229.743C244.182 234.158 248.235 236.341 252.102 233.633C254.119 232.22 254.544 232.24 256.908 233.863C263.985 238.726 268.635 238.782 273.917 234.066C276.94 231.367 278.105 226.794 276.087 225.547C275.585 225.237 275.26 221.048 275.365 216.238C275.583 206.204 274.254 201.818 269.775 197.803C264.217 192.821 255.237 190.178 253.488 193.008ZM279.68 193.645C279.305 194.019 278.999 195.548 278.999 197.042C278.999 198.987 279.614 199.921 281.163 200.326C282.748 200.74 283.063 201.24 282.34 202.192C281.796 202.908 281.24 205.373 281.104 207.67C280.903 211.068 281.258 212.061 283.011 212.999C284.771 213.941 285.533 213.819 287.175 212.334C290.586 209.247 291.25 207.19 289.598 204.83C288.646 203.472 288.326 201.61 288.712 199.679C289.237 197.052 289.077 196.748 287.495 197.355C286.249 197.833 284.834 197.25 283.017 195.509C281.556 194.109 280.054 193.27 279.68 193.645ZM45.7888 197.166C42.7538 199.527 40.7087 208.375 42.7308 210.397C43.1368 210.802 43.4738 211.868 43.4808 212.766C43.5088 216.34 52.518 215.612 56.4091 211.721C57.1481 210.981 58.0621 208.136 58.4381 205.398C59.0201 201.171 58.8231 200.148 57.1361 198.621C54.536 196.267 48.0189 195.432 45.7888 197.166ZM23.4183 207.54C22.5883 211.964 22.9123 212.292 25.8014 209.95C27.7114 208.401 27.9214 207.726 27.0164 206.036C25.4044 203.023 24.1694 203.54 23.4183 207.54ZM287.012 237.761C281.221 240.649 277.393 243.176 277.188 244.246C276.641 247.096 279.718 247.408 282.799 244.815C284.516 243.37 288.245 241.914 292.279 241.112C297.294 240.115 299.081 239.311 299.546 237.843C300.118 236.044 298.578 232.97 297.127 233.011C296.781 233.021 292.23 235.158 287.012 237.761ZM68.6613 240.66C68.2943 241.026 67.9943 242.01 67.9943 242.845C67.9943 243.681 67.0173 245.405 65.8233 246.676C64.6303 247.946 63.8482 249.181 64.0862 249.419C64.3243 249.657 67.8883 249.175 72.0064 248.347C76.1255 247.519 81.0696 246.868 82.9947 246.901C84.9197 246.934 87.2818 246.713 88.2448 246.41C90.5868 245.673 90.4728 242.319 88.0608 241.028C85.9417 239.894 69.7344 239.586 68.6613 240.66ZM293.749 283.566C292.237 284.387 290.999 285.464 290.999 285.961C290.999 288.188 293.318 292.669 295.415 294.495C296.679 295.595 299.996 298.479 302.788 300.903C305.579 303.327 308.127 306.365 308.45 307.653C308.774 308.941 309.449 309.995 309.952 309.995C312.28 309.995 312.556 300.701 310.283 298.815C309.577 298.229 309 297.13 309 296.373C309 295.615 308.55 294.995 308 294.995C307.45 294.995 306.985 294.433 306.967 293.745C306.921 292.036 303.89 288.541 301.209 287.106C299.993 286.456 298.999 285.039 298.999 283.959C298.999 281.636 297.511 281.525 293.749 283.566ZM278.023 286.63C278.036 287.655 278.474 290.295 278.996 292.495C279.519 294.695 280.202 298.745 280.516 301.495C281.343 308.756 281.462 309.293 282.717 311.494C283.62 313.078 283.528 313.858 282.273 315.244C280.806 316.866 280.866 316.994 283.094 316.98C288.218 316.947 288.499 316.122 288.499 301.115C288.499 293.441 288.274 286.941 287.999 286.671C287.724 286.402 285.362 285.863 282.749 285.474C278.524 284.845 278.002 284.973 278.023 286.63Z" fill="#F2B622"/>
<path fill-rule="evenodd" clip-rule="evenodd" d="M83.7447 103.652C84.4327 103.93 85.5578 103.93 86.2448 103.652C86.9328 103.375 86.3698 103.148 84.9947 103.148C83.6197 103.148 83.0577 103.375 83.7447 103.652ZM76.9946 106.383C76.9946 107.699 76.3196 109.036 75.4945 109.353C74.6695 109.669 73.9945 110.562 73.9945 111.337C73.9945 112.112 74.6695 113.306 75.4945 113.991C76.3196 114.676 76.9946 116.251 76.9946 117.491C76.9946 120.016 79.3766 122.491 80.9007 121.549C81.4477 121.211 82.3827 121.848 82.9797 122.963C84.0747 125.01 87.4228 125.726 88.4118 124.125C88.7058 123.649 90.0829 123.476 91.4709 123.742C93.6269 124.154 93.9949 123.859 93.9949 121.715C93.9949 120.334 94.67 118.946 95.495 118.629C96.32 118.313 96.995 117.42 96.995 116.645C96.995 115.87 96.32 114.676 95.495 113.991C94.67 113.306 93.9949 111.731 93.9949 110.491C93.9949 107.948 92.6419 106.588 89.0028 105.468C86.7718 104.782 86.6538 104.874 87.8748 106.346C88.6258 107.25 90.1369 107.99 91.2339 107.99C92.8029 107.99 93.1039 108.464 92.6469 110.214C92.2619 111.686 92.7609 113.178 94.1239 114.629C96.179 116.816 96.179 116.822 94.1789 117.892C92.7849 118.638 92.3449 119.612 92.7319 121.092C93.2069 122.911 92.9699 123.118 91.0929 122.522C89.7939 122.11 88.2688 122.349 87.3528 123.109C86.0618 124.18 85.5328 124.044 84.1507 122.282C83.2397 121.121 81.5947 120.009 80.4946 119.812C79.2366 119.587 78.4946 118.668 78.4946 117.335C78.4946 116.17 77.6696 114.301 76.6616 113.183C74.8785 111.205 74.8865 111.119 76.9596 110.01C78.4446 109.215 78.9056 108.284 78.4796 106.941C77.9406 105.244 78.2616 105.075 81.1817 105.521C83.7787 105.919 84.0627 105.823 82.4947 105.079C78.8716 103.36 76.9946 103.805 76.9946 106.383ZM82.0057 110.478C79.1736 113.89 83.6737 119.863 88.0328 118.479C92.1029 117.187 89.3008 108.991 84.7887 108.991C83.9367 108.991 82.6847 109.66 82.0057 110.478ZM87.7948 112.191C89.9339 114.33 89.2328 116.991 86.5298 116.991C83.9827 116.991 81.3987 113.765 82.5077 111.97C83.3437 110.617 86.3458 110.742 87.7948 112.191ZM17.6823 188.106C16.6862 188.685 15.2382 188.916 14.4642 188.619C13.6902 188.322 12.7911 188.51 12.4661 189.036C11.5271 190.555 16.4102 190.144 18.5523 188.524C20.8083 186.818 20.3093 186.578 17.6823 188.106ZM191.097 192.071C189.845 193.764 188.973 195.261 189.159 195.397C189.612 195.728 213.763 202.753 217.248 203.567C218.76 203.921 219.998 203.877 219.998 203.471C219.998 203.065 218.328 199.641 216.288 195.862C213.888 191.419 211.962 188.992 210.836 188.992C209.878 188.992 207.7 191.017 205.997 193.492C204.294 195.967 202.74 197.992 202.544 197.992C202.348 197.992 201 195.967 199.55 193.492C196.428 188.164 194.255 187.799 191.097 192.071ZM255.761 192.699C257.005 192.938 258.805 192.929 259.761 192.679C260.717 192.429 259.699 192.233 257.499 192.244C255.299 192.255 254.516 192.46 255.761 192.699ZM279.68 193.645C279.305 194.019 278.999 195.548 278.999 197.042C278.999 198.988 279.614 199.921 281.163 200.326C282.748 200.74 283.063 201.24 282.34 202.192C281.796 202.908 281.24 205.373 281.104 207.67C280.903 211.068 281.258 212.061 283.011 212.999C284.771 213.941 285.533 213.819 287.175 212.334C290.586 209.247 291.25 207.19 289.598 204.83C288.646 203.472 288.326 201.61 288.712 199.68C289.237 197.052 289.077 196.748 287.495 197.355C286.249 197.833 284.834 197.25 283.017 195.509C281.556 194.109 280.054 193.27 279.68 193.645ZM45.7889 197.166C42.7538 199.528 40.7088 208.375 42.7308 210.397C43.1368 210.802 43.4738 211.868 43.4808 212.766C43.5108 216.587 53.498 215.416 56.5641 211.232C57.2651 210.276 58.1351 207.518 58.4982 205.103C59.0362 201.526 58.8002 200.355 57.2231 198.778C54.7611 196.315 48.0909 195.375 45.7889 197.166ZM241.435 199.243L238.498 202.493L241.748 199.556C244.777 196.817 245.458 195.992 244.685 195.992C244.513 195.992 243.05 197.455 241.435 199.243ZM23.4184 207.54C22.5884 211.964 22.9124 212.292 25.8014 209.95C27.7115 208.401 27.9215 207.726 27.0165 206.036C25.4044 203.023 24.1694 203.54 23.4184 207.54ZM237.998 224.371C237.998 224.578 238.785 225.366 239.748 226.121C241.334 227.364 241.369 227.329 240.126 225.743C238.819 224.077 237.998 223.548 237.998 224.371ZM268.999 226.713C266.46 227.702 262.877 232.119 263.207 233.851C263.746 236.685 267.943 236.42 271.147 233.351C275.497 229.183 274.06 224.74 268.999 226.713ZM243.248 229.589C244.21 230.723 244.998 232.169 244.998 232.803C244.998 234.679 249.682 235.328 251.919 233.761C253.885 232.384 253.839 232.287 250.404 230.65C248.455 229.72 246.422 229.231 245.886 229.563C245.349 229.894 244.143 229.572 243.204 228.846C241.669 227.66 241.673 227.734 243.248 229.589ZM287.012 237.761C281.221 240.649 277.393 243.176 277.188 244.247C276.641 247.096 279.718 247.408 282.799 244.816C284.516 243.37 288.245 241.914 292.279 241.112C297.294 240.115 299.081 239.311 299.547 237.843C300.119 236.044 298.578 232.97 297.127 233.011C296.781 233.021 292.23 235.158 287.012 237.761ZM68.6614 240.66C68.2944 241.026 67.9944 242.01 67.9944 242.845C67.9944 243.681 67.0173 245.405 65.8233 246.676C64.6303 247.946 63.8483 249.181 64.0863 249.419C64.3243 249.657 67.8884 249.175 72.0065 248.347C76.1255 247.519 81.0697 246.868 82.9947 246.901C84.9197 246.934 87.2818 246.713 88.2448 246.41C90.5869 245.673 90.4729 242.319 88.0608 241.028C85.9418 239.894 69.7344 239.586 68.6614 240.66ZM293.749 283.566C292.237 284.387 290.999 285.508 290.999 286.058C290.999 287.814 293.867 293.994 294.698 294.029C296.289 294.097 307.765 305.549 308.442 307.745C309.631 311.606 312 309.725 312 304.92C312 302.518 308.789 294.995 307.764 294.995C307.344 294.995 306.985 294.433 306.967 293.745C306.925 292.183 304.032 288.85 301.451 287.392C300.378 286.786 299.356 285.323 299.179 284.142C298.807 281.638 297.548 281.505 293.749 283.566ZM278.274 288.109C278.594 289.971 279.385 294.87 280.032 298.995C280.68 303.12 281.784 308.139 282.486 310.149C283.586 313.297 283.542 314.024 282.167 315.399C280.705 316.86 280.778 316.994 283.035 316.98C288.225 316.947 288.499 316.151 288.499 301.115C288.499 293.441 288.274 286.941 287.999 286.671C287.724 286.402 285.293 285.853 282.596 285.451L277.693 284.721L278.274 288.109Z" fill="#46349A"/>
<path fill-rule="evenodd" clip-rule="evenodd" d="M191.097 192.071C189.845 193.764 188.973 195.261 189.159 195.397C189.612 195.728 213.763 202.753 217.248 203.567C218.76 203.921 219.998 203.877 219.998 203.471C219.998 203.065 218.328 199.641 216.288 195.862C213.888 191.419 211.962 188.992 210.836 188.992C209.877 188.992 207.7 191.017 205.997 193.492C204.294 195.967 202.74 197.992 202.544 197.992C202.348 197.992 201 195.967 199.55 193.492C196.428 188.164 194.255 187.799 191.097 192.071ZM278.999 196.875C278.999 198.991 279.575 199.91 281.163 200.326C282.748 200.74 283.063 201.24 282.34 202.192C281.796 202.908 281.24 205.373 281.104 207.67C280.903 211.068 281.258 212.061 283.011 212.999C284.771 213.941 285.533 213.819 287.175 212.334C290.696 209.147 291.349 207.038 289.46 204.95C288.321 203.692 287.972 202.237 288.4 200.533C288.908 198.505 288.668 197.992 287.207 197.992C286.2 197.992 284.41 197.092 283.229 195.992C280.26 193.226 278.999 193.489 278.999 196.875ZM23.4464 207.391C22.5813 212.001 22.8903 212.31 25.9154 209.857L28.3385 207.893L26.2394 205.794L24.1404 203.695L23.4464 207.391ZM50.1099 208.121C49.9619 211.477 47.7199 213.358 44.9238 212.471C43.3798 211.981 42.8818 212.157 43.1908 213.084C43.6958 214.598 48.9939 216.262 48.9939 214.907C48.9939 214.404 50.0409 213.993 51.32 213.993C53.908 213.993 57.9941 210.212 57.9941 207.817C57.9941 206.706 57.2891 206.405 55.4941 206.748C54.119 207.011 52.994 207.624 52.994 208.11C52.994 209.717 51.149 209.026 50.683 207.243C50.388 206.115 50.1849 206.427 50.1099 208.121ZM268.999 226.713C266.46 227.702 262.877 232.119 263.207 233.851C263.746 236.685 267.943 236.42 271.147 233.351C275.497 229.183 274.06 224.74 268.999 226.713ZM245.304 230.638C244.918 231.645 245.392 232.808 246.527 233.638C248.904 235.376 250.455 235.353 251.946 233.555C252.919 232.384 252.58 231.828 250.118 230.555C246.354 228.609 246.081 228.613 245.304 230.638ZM287.012 237.761C281.221 240.649 277.393 243.176 277.188 244.246C276.641 247.096 279.718 247.408 282.799 244.816C284.516 243.37 288.245 241.914 292.279 241.112C297.294 240.115 299.081 239.311 299.546 237.843C300.118 236.044 298.578 232.97 297.127 233.011C296.781 233.021 292.23 235.158 287.012 237.761ZM68.6614 240.66C68.2944 241.026 67.9943 242.01 67.9943 242.845C67.9943 243.681 67.0173 245.405 65.8233 246.676C64.6303 247.946 63.8423 249.142 64.0733 249.333C64.3053 249.523 68.5444 248.86 73.4945 247.859C78.4446 246.858 83.2817 246.284 84.2447 246.584C88.9498 248.049 92.2369 243.263 88.0608 241.028C85.9417 239.894 69.7344 239.586 68.6614 240.66ZM293.749 283.655C292.237 284.451 290.999 285.543 290.999 286.081C290.999 287.819 293.872 293.994 294.698 294.029C296.289 294.097 307.765 305.549 308.442 307.745C309.44 310.987 310.812 310.513 311.531 306.679C312.148 303.39 309.442 294.995 307.764 294.995C307.344 294.995 306.985 294.433 306.967 293.745C306.925 292.183 304.032 288.85 301.451 287.392C300.377 286.786 299.355 285.323 299.179 284.142C298.816 281.696 297.663 281.593 293.749 283.655ZM278.314 288.354C278.612 290.082 279.385 294.87 280.032 298.995C280.68 303.12 281.785 308.144 282.49 310.159C283.399 312.76 283.46 314.134 282.702 314.892C281.024 316.57 282.74 317.434 285.37 316.236C286.952 315.515 287.933 314.037 288.298 311.823C288.914 308.087 288.615 287.249 287.936 286.648C287.696 286.434 285.311 286.025 282.636 285.737L277.773 285.214L278.314 288.354Z" fill="#D48418"/>
</svg>
