<svg width="363" height="346" viewBox="0 0 363 346" fill="none" xmlns="http://www.w3.org/2000/svg">
<path fill-rule="evenodd" clip-rule="evenodd" d="M47.4756 1.76162C46.4993 2.15667 45.6993 3.93014 45.6993 5.70218C45.6993 9.23915 51.2485 18.3097 53.515 18.4773C55.5883 18.6322 56.1184 5.23323 54.1346 2.84162C52.4208 0.778266 50.6317 0.48837 47.4756 1.76162ZM112.473 6.86032C108.9 12.7193 108.832 16.4524 112.296 16.4524C116.911 16.4524 122.436 10.9757 122.436 6.40132C122.436 2.90556 121.866 2.24194 118.862 2.24194C116.355 2.24194 114.448 3.62035 112.473 6.86032ZM68.6235 26.4352C54.3151 29.4194 39.0985 40.6442 32.8445 52.8324C29.7921 58.7809 29.3573 61.4951 29.3573 74.6312C29.3573 87.9848 29.7353 90.2613 32.792 95.3202C38.7518 105.181 45.7362 113.021 51.4872 116.303C57.7341 119.872 58.1092 121.24 54.6149 127.72C50.6402 135.087 51.3337 156.063 56.0899 172.335C60.4582 187.28 60.9059 192.662 57.7781 192.662C56.485 192.662 55.6466 193.982 55.6466 196.017C55.6466 198.83 55.0725 199.262 52.094 198.694C49.1922 198.138 48.5414 198.576 48.5414 201.081C48.5414 202.768 49.8729 205.56 51.5 207.287C53.9655 209.902 54.3136 211.546 53.5861 217.155C52.9523 222.037 53.3189 224.81 54.9261 227.262C56.1425 229.12 58.1021 235.364 59.2788 241.138C61.983 254.41 64.1885 260.042 70.6286 270.108C77.3459 280.61 84.1513 287.296 97.9894 296.993C104.202 301.346 110.054 305.835 110.995 306.969C111.937 308.103 116.163 309.748 120.388 310.625C124.614 311.503 128.439 312.816 128.89 313.545C129.34 314.274 130.693 314.871 131.897 314.871C133.1 314.871 136.1 315.762 138.563 316.851C150.198 321.993 164.119 324.033 187.093 323.963C205.686 323.906 211.654 323.36 219.842 320.975C231.969 317.439 242.234 312.286 248.908 306.382C263.266 293.683 272.705 289.831 299.355 285.79C339.517 279.7 356.888 260.845 351.205 229.506C348.141 212.607 339.498 199.663 322.802 186.966C304.157 172.785 294.213 157.117 290.793 136.53C286.739 112.121 273.12 98.7406 248.198 94.6779C240.115 93.3606 235.72 93.4671 224.751 95.2491C207.428 98.0614 195.807 98.1154 193.547 95.3927C190.65 91.9012 182.537 90.0225 174.895 91.0741C169.383 91.8315 166.705 93.1488 163.075 96.8862L158.382 101.718L144.695 95.3216C137.167 91.8031 129.974 88.9255 128.709 88.9255C126.719 88.9255 126.542 87.6124 127.395 79.1189C129.757 55.6035 119.514 37.1967 99.3862 28.7884C92.6619 25.979 76.6766 24.7569 68.6235 26.4352ZM48.7488 51.9784C48.179 56.0056 41.5783 66.402 39.0701 67.2233C35.5474 68.3772 35.7691 62.1531 39.5078 54.9484C42.4835 49.2131 43.9869 47.6741 46.2919 48.0023C48.557 48.3263 49.1339 49.26 48.7488 51.9784ZM131.672 49.6962C129.08 51.6189 129.028 52.0054 131.074 54.0858C132.34 55.3719 136.058 56.4931 139.6 56.6593C145.698 56.9435 145.883 56.827 145.883 52.6889C145.883 48.7327 145.473 48.396 140.199 48.008C136.797 47.7565 133.373 48.4357 131.672 49.6962ZM0.468944 52.8268C1.0402 57.8047 6.68884 60.3611 12.5435 58.2921C20.4957 55.4813 17.5413 50.438 7.36952 49.4617L0 48.7526L0.468944 52.8268ZM208.995 59.4843C202.798 64.242 201.89 71.8787 206.924 76.9106C211.609 81.5958 218.067 81.5275 222.852 76.7429C225.897 73.6976 226.369 72.2155 225.667 67.8955C224.303 59.49 215.062 54.8276 208.995 59.4843ZM38.5728 75.7809C38.5202 78.3075 36.0902 80.6749 35.1353 79.1303C34.601 78.2648 34.5583 76.9177 35.0415 76.1361C36.066 74.4792 38.604 74.2234 38.5728 75.7809ZM12.4057 92.7964C8.22925 93.8608 5.66143 97.0922 6.1659 100.646C6.8949 105.773 12.0817 105.451 18.1382 99.9002C25.3301 93.3094 22.7821 90.1504 12.4057 92.7964ZM339.014 125.162C336.858 128.453 336.858 128.976 339.014 132.267C344.341 140.397 355.521 134.027 351.482 125.162C350.28 122.522 348.768 121.609 345.602 121.609C342.626 121.609 340.639 122.679 339.014 125.162ZM340.222 155.3C338.471 155.635 335.113 157.833 332.761 160.184C329.184 163.762 328.487 165.584 328.487 171.354C328.487 177.23 329.193 178.998 333.273 183.324C337.527 187.834 338.852 188.398 345.201 188.398C351.091 188.398 353.103 187.689 356.676 184.351C370 171.906 358.601 151.781 340.222 155.3ZM35.8017 165.568C33.6361 169.615 33.9899 172.018 37.1787 174.904C39.532 177.033 40.6432 177.201 43.5734 175.865C47.4742 174.089 48.5215 167.631 45.4151 164.525C42.8046 161.914 37.4459 162.496 35.8017 165.568ZM300.712 305.57C294.923 311.358 296.937 319.359 304.67 321.3C309.948 322.624 313.993 320.96 316.291 316.52C317.938 313.334 317.962 311.942 316.433 308.306C313.432 301.168 306.347 299.935 300.712 305.57ZM126.399 322.492C120.062 327.307 120.004 338.331 126.289 343.275C133.959 349.309 144.489 344.633 146.106 334.476C146.829 329.928 146.355 328.625 142.614 324.884C137.884 320.153 130.845 319.116 126.399 322.492Z" fill="#E69CB0"/>
<path fill-rule="evenodd" clip-rule="evenodd" d="M45.6993 5.70218C45.6993 3.93014 46.4993 2.15667 47.4756 1.76162C50.6317 0.48837 52.4208 0.778266 54.1346 2.84162C56.1184 5.23323 55.5883 18.6322 53.515 18.4773C51.2485 18.3097 45.6993 9.23915 45.6993 5.70218ZM112.296 16.4524C108.832 16.4524 108.9 12.7193 112.473 6.86032C114.448 3.62035 116.355 2.24194 118.862 2.24194C121.866 2.24194 122.436 2.90556 122.436 6.40132C122.436 10.9757 116.911 16.4524 112.296 16.4524ZM33.106 52.1504C39.4666 40.36 54.686 29.3412 68.6235 26.4352C76.6766 24.7569 92.6619 25.979 99.3862 28.7884C119.514 37.1967 129.757 55.6035 127.395 79.1189C126.542 87.6124 126.719 88.9255 128.709 88.9255C129.974 88.9255 137.196 91.8173 144.759 95.3514L158.51 101.777L163.248 96.9004C166.9 93.1403 169.59 91.8031 175.003 91.0585C182.534 90.0225 190.668 91.9239 193.547 95.3927C195.793 98.0983 207.401 98.0642 224.417 95.3045C260.923 89.3845 285.497 104.646 290.793 136.53C294.213 157.117 304.157 172.785 322.802 186.966C332.755 194.535 341.049 203.467 344.257 210.074C345.87 213.393 347.735 217.152 348.403 218.428C350.815 223.036 352.829 238.737 351.917 245.817C350.284 258.49 343.963 268.086 332.782 274.875C323.061 280.775 315.23 283.256 296.513 286.361C287.134 287.917 276.903 289.925 273.777 290.824C267.652 292.586 256.904 299.311 248.908 306.382C242.234 312.286 231.969 317.439 219.842 320.975C211.654 323.36 205.686 323.906 187.093 323.963C164.119 324.033 150.198 321.993 138.563 316.851C136.1 315.762 133.1 314.871 131.897 314.871C130.693 314.871 129.34 314.274 128.89 313.545C128.439 312.816 124.614 311.503 120.388 310.625C116.163 309.748 111.937 308.103 110.995 306.969C110.054 305.835 104.202 301.346 97.9894 296.993C84.1243 287.277 77.3459 280.608 70.576 270.026C64.0563 259.834 63.0573 257.293 59.7591 242.52C58.2911 235.945 56.1042 229.062 54.9005 227.224C53.3203 224.811 52.9551 222.013 53.5861 217.155C54.3136 211.546 53.9655 209.902 51.5 207.287C49.8729 205.56 48.5414 202.768 48.5414 201.081C48.5414 198.576 49.1922 198.138 52.094 198.694C55.0725 199.262 55.6466 198.83 55.6466 196.017C55.6466 193.982 56.485 192.662 57.7781 192.662C60.8675 192.662 60.4696 187.394 56.2491 172.38C50.7497 152.823 50.2708 142.436 54.2895 129.937C56.7621 122.245 57.1515 119.506 55.8313 119.066C51.0609 117.476 41.6877 108.577 36.2778 100.501C31.7745 93.7798 29.9882 89.4925 29.2593 83.6605C27.7672 71.7153 29.2919 59.2186 33.106 52.1504ZM39.0701 67.2233C41.5783 66.402 48.179 56.0056 48.7488 51.9784C49.1339 49.26 48.557 48.3263 46.2919 48.0023C43.9869 47.6741 42.4835 49.2131 39.5078 54.9484C35.7691 62.1531 35.5474 68.3772 39.0701 67.2233ZM131.074 54.0858C129.028 52.0054 129.08 51.6189 131.672 49.6962C133.373 48.4357 136.797 47.7565 140.199 48.008C145.473 48.396 145.883 48.7327 145.883 52.6889C145.883 56.827 145.698 56.9435 139.6 56.6593C136.058 56.4931 132.34 55.3719 131.074 54.0858ZM12.5435 58.2921C6.68884 60.3611 1.0402 57.8047 0.468944 52.8268L0 48.7526L7.36952 49.4617C17.5413 50.438 20.4957 55.4813 12.5435 58.2921ZM35.1353 79.1303C36.0902 80.6749 38.5202 78.3075 38.5728 75.7809C38.604 74.2234 36.066 74.4792 35.0415 76.1361C34.5583 76.9177 34.601 78.2648 35.1353 79.1303ZM6.1659 100.646C5.66143 97.0922 8.22925 93.8608 12.4057 92.7964C22.7821 90.1504 25.3301 93.3094 18.1382 99.9002C12.0817 105.451 6.8949 105.773 6.1659 100.646ZM339.014 132.267C336.858 128.976 336.858 128.453 339.014 125.162C340.639 122.679 342.626 121.609 345.602 121.609C348.768 121.609 350.28 122.522 351.482 125.162C355.521 134.027 344.341 140.397 339.014 132.267ZM332.761 160.184C335.113 157.833 338.471 155.635 340.222 155.3C358.601 151.781 370 171.906 356.676 184.351C353.103 187.689 351.091 188.398 345.201 188.398C338.852 188.398 337.527 187.834 333.273 183.324C329.193 178.998 328.487 177.23 328.487 171.354C328.487 165.584 329.184 163.762 332.761 160.184ZM37.1787 174.904C33.9899 172.018 33.6361 169.615 35.8017 165.568C37.4459 162.496 42.8046 161.914 45.4151 164.525C48.5215 167.631 47.4742 174.089 43.5734 175.865C40.6432 177.201 39.532 177.033 37.1787 174.904ZM304.67 321.3C296.937 319.359 294.923 311.358 300.712 305.57C306.347 299.935 313.432 301.168 316.433 308.306C317.962 311.942 317.938 313.334 316.291 316.52C313.993 320.96 309.948 322.624 304.67 321.3ZM126.289 343.275C120.004 338.331 120.062 327.307 126.399 322.492C130.845 319.116 137.884 320.153 142.614 324.884C146.355 328.625 146.829 329.928 146.106 334.476C144.489 344.633 133.959 349.309 126.289 343.275Z" fill="#3D3853"/>
<path fill-rule="evenodd" clip-rule="evenodd" d="M45.6993 5.70218C45.6993 3.93014 46.4993 2.15667 47.4756 1.76162C50.6317 0.48837 52.4208 0.778266 54.1346 2.84162C56.1184 5.23323 55.5883 18.6322 53.515 18.4773C51.2485 18.3097 45.6993 9.23915 45.6993 5.70218ZM112.296 16.4524C108.832 16.4524 108.9 12.7193 112.473 6.86032C114.448 3.62035 116.355 2.24194 118.862 2.24194C121.866 2.24194 122.436 2.90556 122.436 6.40132C122.436 10.9757 116.911 16.4524 112.296 16.4524ZM33.106 52.1503C39.4666 40.36 54.686 29.3412 68.6235 26.4352C72.0369 25.7232 79.2998 25.4788 84.7637 25.8909C102.584 27.2338 116.493 36.5189 123.699 51.8832C126.99 58.8989 127.392 61.4425 127.257 74.3598C127.138 85.8361 127.52 88.9255 129.056 88.9255C130.13 88.9255 137.148 91.7946 144.652 95.3017C152.155 98.8074 158.766 101.385 159.341 101.03C159.917 100.675 160.321 102.761 160.24 105.668C160.095 110.886 160.011 110.962 153.363 111.725C143.807 112.823 138.887 116.879 138.347 124.103C137.993 128.845 138.685 130.74 142.255 134.807C144.641 137.524 146.593 140.242 146.593 140.847C146.593 142.733 153.765 151.451 155.317 151.451C156.256 151.451 156.431 149.327 155.8 145.591C154.692 139.029 156.083 137.299 162.496 137.262C166.383 137.241 169.152 135.05 166.438 134.146C165.489 133.829 165.75 132.046 167.157 129.223C169.355 124.818 169.394 124.805 174.91 126.707C179.576 128.314 181.657 128.305 188.027 126.653C195.973 124.592 197.683 125.249 197.729 130.382C197.741 131.69 199.349 134.66 201.303 136.982C203.257 139.304 204.856 142.833 204.856 144.822C204.856 149.443 207.094 150.837 209.942 147.99C213.107 144.825 215.861 145.227 219.747 149.422C222.585 152.484 223.611 152.821 226.074 151.504C233.283 147.646 234.658 140.101 229.271 133.971C227.671 132.151 227.001 128.388 226.952 120.942C226.891 111.803 226.43 109.984 223.33 106.622C221.376 104.503 217.63 101.856 215.005 100.739C212.38 99.6202 210.532 98.4081 210.897 98.0429C211.261 97.6777 217.225 96.4627 224.149 95.3415C250.804 91.0272 272.975 98.6227 283.485 115.669C286.907 121.22 288.577 126.305 292.148 142.058C296.27 160.243 305.515 173.792 322.802 186.982C339.115 199.427 348.253 213.231 351.299 230.026C354.827 249.485 348.212 265.507 332.782 274.874C323.061 280.775 315.23 283.256 296.513 286.361C277.038 289.591 269.718 291.481 264.229 294.695C262.103 295.94 259.968 296.564 259.485 296.081C259.002 295.596 257.706 288.596 256.605 280.523C253.331 256.513 247.25 233.234 241.068 221.035C236.976 212.96 227.323 203.952 217.418 198.968C213.244 196.868 208.231 193.268 206.277 190.969L202.724 186.787L202.621 194.429C202.541 200.342 201.198 204.789 196.695 214.064C190.96 225.874 173.002 252.345 170.725 252.345C168.912 252.345 165.067 233.512 165.067 224.635C165.067 211.918 168.955 197.452 173.879 191.843C178.911 186.112 177.845 185.734 170.04 190.483C166.914 192.386 160.519 195.96 155.83 198.425C142.089 205.651 140.18 208.178 133.851 227.505C130.739 237.008 125.836 250.413 122.956 257.293C118.164 268.738 117.553 269.573 115.765 267.113C106.118 253.84 94.4268 239.633 93.1223 239.599C92.2413 239.574 90.6852 240.562 89.6649 241.791C88.6446 243.02 85.3364 245.288 82.311 246.832C77.7282 249.171 76.9707 250.158 77.7623 252.767C79.4775 258.424 89.8525 277.566 97.5204 289.221C101.66 295.512 104.553 300.661 103.951 300.661C102.078 300.661 85.0238 287.681 80.0942 282.503C69.7135 271.599 62.82 257.835 59.2532 240.882C58.0084 234.969 56.0232 228.75 54.8437 227.065C53.2905 224.848 52.9395 222.124 53.5775 217.213C54.3136 211.54 53.9726 209.909 51.5 207.287C49.8729 205.56 48.5414 202.768 48.5414 201.081C48.5414 198.576 49.1922 198.138 52.094 198.694C55.0725 199.262 55.6466 198.83 55.6466 196.017C55.6466 193.982 56.485 192.662 57.7781 192.662C60.8988 192.662 60.4611 187.3 56.1155 172.335C51.2271 155.501 50.7852 138.652 54.9361 127.416C57.1643 121.382 57.3774 119.587 55.9223 119.1C51.058 117.469 41.7289 108.637 36.2778 100.501C31.7745 93.7798 29.9882 89.4925 29.2593 83.6605C27.7672 71.7152 29.2919 59.2186 33.106 52.1503ZM39.0701 67.2233C41.5783 66.402 48.179 56.0056 48.7488 51.9784C49.1339 49.2599 48.557 48.3263 46.2919 48.0023C43.9869 47.6741 42.4835 49.213 39.5078 54.9484C35.7691 62.153 35.5474 68.3772 39.0701 67.2233ZM131.074 54.0858C129.028 52.0054 129.08 51.6189 131.672 49.6962C133.373 48.4357 136.797 47.7565 140.199 48.008C145.473 48.396 145.883 48.7327 145.883 52.6889C145.883 56.827 145.698 56.9435 139.6 56.6593C136.058 56.493 132.34 55.3718 131.074 54.0858ZM12.5435 58.2921C6.68884 60.3611 1.0402 57.8047 0.468944 52.8268L0 48.7526L7.36952 49.4617C17.5413 50.438 20.4957 55.4813 12.5435 58.2921ZM35.1353 79.1302C36.0902 80.6749 38.5202 78.3074 38.5728 75.7808C38.604 74.2234 36.066 74.4792 35.0415 76.1361C34.5583 76.9177 34.601 78.2648 35.1353 79.1302ZM6.1659 100.646C5.66143 97.0922 8.22925 93.8607 12.4057 92.7964C22.7821 90.1504 25.3301 93.3094 18.1382 99.9002C12.0817 105.451 6.8949 105.773 6.1659 100.646ZM339.014 132.267C336.858 128.976 336.858 128.453 339.014 125.162C340.639 122.679 342.626 121.609 345.602 121.609C348.768 121.609 350.28 122.522 351.482 125.162C355.521 134.026 344.341 140.397 339.014 132.267ZM187.089 133.201C190.603 132.921 193.124 132.117 192.689 131.415C191.775 129.937 183.054 129.675 181.646 131.084C179.583 133.147 180.971 133.687 187.089 133.201ZM192.396 143.728C192.773 141.76 192.746 139.814 192.337 139.407C190.977 138.047 185.145 138.638 184.157 140.235C183.515 141.274 184.13 141.508 185.965 140.926C188.156 140.231 188.72 140.694 188.629 143.117C188.464 147.504 191.579 148.008 192.396 143.728ZM163.887 145.715C164.524 149.797 166.616 150.013 168.048 146.144C169.655 141.798 165.253 139.252 161.355 142.273C159.236 143.916 159.171 144.18 161.045 143.53C162.708 142.955 163.561 143.609 163.887 145.715ZM328.487 172.595C328.487 163.313 332.268 158.177 341.276 155.223C349.029 152.681 360.456 159.696 362.005 167.95C364.139 179.326 356.495 188.398 344.777 188.398C338.914 188.398 337.449 187.752 333.273 183.324C329.491 179.314 328.487 177.063 328.487 172.595ZM183.456 162.82C184.284 162.82 184.961 162.18 184.961 161.399C184.961 160.617 184.68 159.978 184.335 159.978C183.989 159.978 183.313 160.617 182.83 161.399C182.347 162.18 182.629 162.82 183.456 162.82ZM37.1787 174.904C33.9899 172.018 33.6361 169.615 35.8017 165.568C37.4459 162.496 42.8046 161.914 45.4151 164.525C48.5215 167.631 47.4742 174.088 43.5734 175.865C40.6432 177.201 39.532 177.033 37.1787 174.904ZM170.299 165.112C171.157 167.35 173.047 167.694 174.204 165.824C174.632 165.13 173.758 164.244 172.263 163.853C170.359 163.354 169.769 163.732 170.299 165.112ZM169.519 269.777C167.366 271.93 164.359 269.027 165.544 265.94C166.015 264.715 167.078 263.714 167.909 263.714C170.211 263.714 171.338 267.958 169.519 269.777ZM165.881 292.609C163.462 293.537 160.171 290.044 161.476 287.934C161.98 287.118 163.633 286.45 165.151 286.45C168.408 286.45 168.996 291.413 165.881 292.609ZM222.608 316.647C223.16 315.279 224.654 308.405 225.929 301.371C228.124 289.243 228.295 288.876 229.214 294.266C230.678 302.843 231.042 315.582 229.878 317.465C229.311 318.382 227.216 319.134 225.225 319.134C222.342 319.134 221.809 318.628 222.608 316.647ZM127.701 305.663C130.723 303.076 134.423 298.68 135.924 295.893C137.425 293.106 138.917 291.09 139.239 291.413C140.005 292.177 135.44 310.804 133.861 313.358C132.846 315 131.796 314.917 127.428 312.843L122.207 310.366L127.701 305.663ZM297.224 311.186C297.224 310.015 298.794 307.489 300.712 305.57C306.347 299.935 313.432 301.168 316.433 308.306C317.962 311.942 317.938 313.334 316.291 316.52C311.433 325.914 297.224 321.941 297.224 311.186ZM126.289 343.275C120.004 338.331 120.062 327.307 126.399 322.492C127.736 321.476 130.872 320.625 133.369 320.601C144.81 320.487 150.498 335.306 141.864 342.732C137.035 346.884 131.139 347.09 126.289 343.275Z" fill="#FF608A"/>
<path fill-rule="evenodd" clip-rule="evenodd" d="M45.6992 5.70242C45.6992 3.93038 46.4993 2.15692 47.4755 1.76187C50.6317 0.488614 52.4208 0.77851 54.1345 2.84186C56.1183 5.23348 55.5883 18.6325 53.515 18.4776C51.2484 18.3099 45.6992 9.23939 45.6992 5.70242ZM112.296 16.4526C108.832 16.4526 108.9 12.7195 112.473 6.86057C114.448 3.62059 116.355 2.24218 118.862 2.24218C121.866 2.24218 122.435 2.90581 122.435 6.40157C122.435 10.9759 116.91 16.4526 112.296 16.4526ZM137.216 56.8329C130.557 55.5824 128.063 52.3112 131.726 49.6297C133.355 48.4374 136.878 47.7638 140.199 48.0083C145.147 48.372 145.938 48.9092 146.315 52.152C146.835 56.6354 143.983 58.1019 137.216 56.8329ZM10.1234 58.1815C3.68613 58.9176 0.225891 56.9793 0.225891 52.6394C0.225891 49.6311 0.878149 49.1394 4.84428 49.1565C11.5402 49.1835 15.5405 50.5249 16.5167 53.0672C17.6862 56.1181 15.9355 57.5179 10.1234 58.1815ZM6.16585 100.646C5.66138 97.0925 8.2292 93.861 12.4056 92.7966C22.7821 90.1507 25.33 93.3097 18.1381 99.9004C12.0816 105.451 6.89484 105.774 6.16585 100.646ZM42.472 176.468C42.0003 176.939 40.7739 176.991 39.7493 176.58C38.6153 176.127 38.9521 175.79 40.6076 175.722C42.1054 175.66 42.9438 175.996 42.472 176.468ZM167.909 269.398C166.33 269.398 165.067 268.45 165.067 267.266C165.067 266.083 166.33 265.135 167.909 265.135C169.488 265.135 170.751 266.083 170.751 267.266C170.751 268.45 169.488 269.398 167.909 269.398ZM162.935 292.136C162.407 291.279 162.33 289.649 162.765 288.514C163.771 285.891 167.909 285.805 167.909 288.409C167.909 291.284 164.15 294.1 162.935 292.136Z" fill="#1B8AE6"/>
<path fill-rule="evenodd" clip-rule="evenodd" d="M47.4755 1.76187C46.4993 2.15692 45.6992 3.93038 45.6992 5.70242C45.6992 9.2394 51.2484 18.3099 53.515 18.4776C55.5883 18.6325 56.1183 5.23348 54.1345 2.84186C52.4208 0.77851 50.6317 0.488614 47.4755 1.76187ZM112.473 6.86057C108.9 12.7195 108.832 16.4526 112.296 16.4526C116.91 16.4526 122.435 10.9759 122.435 6.40157C122.435 2.90581 121.866 2.24218 118.862 2.24218C116.355 2.24218 114.448 3.62059 112.473 6.86057ZM68.6235 26.4354C54.6859 29.3415 39.4665 40.3602 33.106 52.1506C29.2919 59.2189 27.7671 71.7155 29.2592 83.6608C30.4713 93.358 39.3401 107.325 48.6266 114.161C52.0968 116.714 55.6678 119.396 56.5603 120.12C57.4541 120.845 58.5142 121.111 58.9163 120.709C60.4397 119.185 68.3435 124.619 74.1073 131.153C77.4055 134.892 81.9401 141.582 84.1853 146.02C88.9714 155.48 92.7712 158.558 99.6605 158.554C112.87 158.548 119.107 150.093 116.46 135.773C113.781 121.281 116.389 107.031 125.032 88.9257C126.683 85.4655 127.396 80.2773 127.376 71.8732C127.342 57.552 123.373 47.2608 114.6 38.7402C103.772 28.2231 84.6258 23.1002 68.6235 26.4354ZM48.7488 51.9786C48.1789 56.0059 41.5782 66.4022 39.0701 67.2236C35.5473 68.3775 35.769 62.1533 39.5078 54.9486C42.4834 49.2133 43.9869 47.6743 46.2918 48.0026C48.5569 48.3266 49.1339 49.2602 48.7488 51.9786ZM131.726 49.6297C128.063 52.3112 130.557 55.5824 137.216 56.8329C143.983 58.1019 146.835 56.6354 146.315 52.152C145.938 48.9092 145.147 48.372 140.199 48.0083C136.878 47.7638 133.355 48.4374 131.726 49.6297ZM0.225891 52.6394C0.225891 56.9793 3.68613 58.9176 10.1234 58.1815C15.9355 57.5179 17.6862 56.1181 16.5167 53.0672C15.5405 50.5249 11.5402 49.1835 4.84428 49.1565C0.878149 49.1394 0.225891 49.6311 0.225891 52.6394ZM38.5727 75.7811C38.5201 78.3077 36.0901 80.6752 35.1352 79.1305C34.6009 78.2651 34.5583 76.9179 35.0414 76.1364C36.066 74.4794 38.604 74.2236 38.5727 75.7811ZM12.4056 92.7967C8.2292 93.861 5.66138 97.0925 6.16585 100.646C6.89484 105.774 12.0816 105.451 18.1381 99.9004C25.33 93.3096 22.7821 90.1507 12.4056 92.7967ZM167.157 129.224C165.75 132.046 165.489 133.829 166.438 134.146C169.152 135.05 166.383 137.241 162.496 137.262C154.768 137.307 154.538 138.203 157.663 156.086C159.235 165.078 161.668 174.185 163.067 176.323C164.467 178.458 168.368 181.389 171.734 182.831C175.102 184.275 177.856 186.085 177.856 186.854C177.856 187.623 176.33 189.899 174.464 191.913C169.981 196.75 167.723 205.944 166.829 222.993C166.108 236.718 168.18 252.346 170.72 252.346C171.837 252.346 182.119 238.908 182.119 237.449C182.119 237.075 184.399 233.207 187.184 228.853C189.969 224.497 194.445 216.351 197.131 210.746C201.545 201.536 202.014 199.365 202.014 188.132C202.014 173.256 204.781 165.662 210.202 165.662C214.381 165.662 221.908 158.422 221.908 154.403C221.908 151.025 217.212 145.767 214.194 145.767C213.078 145.767 211.164 146.768 209.942 147.99C207.094 150.838 204.856 149.444 204.856 144.822C204.856 142.833 203.257 139.305 201.303 136.983C199.349 134.661 197.741 131.691 197.729 130.382C197.682 125.249 195.973 124.592 188.027 126.653C181.657 128.306 179.576 128.314 174.91 126.707C169.394 124.806 169.355 124.818 167.157 129.224ZM192.689 131.415C193.124 132.117 190.603 132.921 187.089 133.201C180.971 133.687 179.583 133.147 181.646 131.084C183.054 129.676 191.775 129.937 192.689 131.415ZM192.337 139.407C192.746 139.815 192.771 141.766 192.395 143.74C191.622 147.781 186.962 148.013 187.28 143.993C187.384 142.685 187.064 141.666 186.57 141.729C184.32 142.01 183.444 141.389 184.251 140.083C185.166 138.603 191.042 138.111 192.337 139.407ZM168.048 146.144C166.545 150.205 162.904 150.295 163.033 146.266C163.101 144.128 162.462 143.417 160.902 143.896C159.286 144.39 159.412 143.974 161.355 142.385C165.213 139.233 169.677 141.74 168.048 146.144ZM184.961 161.399C184.961 162.18 183.964 162.82 182.746 162.82C181.528 162.82 180.926 162.18 181.409 161.399C181.892 160.617 182.888 159.978 183.624 159.978C184.36 159.978 184.961 160.617 184.961 161.399ZM172.757 163.68C173.989 164.151 174.645 165.111 174.211 165.811C173.019 167.74 171.152 167.336 170.236 164.951C169.323 162.57 169.557 162.452 172.757 163.68ZM62.7517 186.894C62.7517 187.63 63.3912 188.626 64.1728 189.109C64.9543 189.592 65.5938 188.99 65.5938 187.772C65.5938 186.554 64.9543 185.557 64.1728 185.557C63.3912 185.557 62.7517 186.158 62.7517 186.894ZM69.8569 189.283C69.8569 192.434 70.1866 192.737 71.9885 191.241C73.1609 190.267 74.1201 188.591 74.1201 187.515C74.1201 186.438 73.1609 185.557 71.9885 185.557C70.6357 185.557 69.8569 186.918 69.8569 189.283ZM55.6465 196.017C55.6465 198.831 55.0724 199.263 52.0939 198.694C49.1922 198.138 48.5413 198.576 48.5413 201.081C48.5413 202.768 49.8728 205.561 51.4999 207.287C53.9626 209.899 54.3136 211.549 53.5889 217.126C52.7376 223.689 54.6475 229.609 57.6175 229.609C58.3252 229.609 62.3212 231.877 66.4976 234.649C74.221 239.775 77.7835 244.182 76.2332 246.691C75.0153 248.661 76.4236 248.425 81.6516 245.785C87.566 242.796 92.7116 238.054 91.741 236.484C91.3204 235.803 90.4507 235.572 89.8098 235.968C88.4669 236.798 84.0674 228.189 84.0674 224.733C84.0674 223.46 82.4687 218.62 80.5148 213.977C78.5608 209.335 76.9622 203.872 76.9622 201.837C76.9622 199.071 76.3341 198.264 74.4753 198.636C71.8151 199.169 71.349 203.193 73.1509 210.07C74.0959 213.68 73.8558 213.977 69.9806 213.977C65.0595 213.977 59.6183 207.583 60.7751 203.158C61.6462 199.827 59.1394 192.662 57.1031 192.662C56.3016 192.662 55.6465 194.172 55.6465 196.017ZM165.067 267.267C165.067 268.45 166.33 269.398 167.909 269.398C169.488 269.398 170.751 268.45 170.751 267.267C170.751 266.083 169.488 265.135 167.909 265.135C166.33 265.135 165.067 266.083 165.067 267.267ZM163.202 287.369C161.25 289.321 162.262 292.337 164.711 291.865C166.08 291.6 167.198 290.488 167.198 289.392C167.198 287.148 164.692 285.879 163.202 287.369Z" fill="#FF977D"/>
<path fill-rule="evenodd" clip-rule="evenodd" d="M47.4755 1.76172C46.4993 2.15677 45.6992 3.87623 45.6992 5.5829C45.6992 9.45524 52.479 19.664 54.3022 18.5371C56.2448 17.3363 55.9577 4.5427 53.9413 2.52624C52.165 0.74994 50.4782 0.549571 47.4755 1.76172ZM112.473 6.86042C108.9 12.7194 108.832 16.4525 112.296 16.4525C116.91 16.4525 122.435 10.9758 122.435 6.40142C122.435 2.90566 121.866 2.24203 118.862 2.24203C116.355 2.24203 114.448 3.62044 112.473 6.86042ZM68.6235 26.4353C54.6859 29.3413 39.4665 40.3601 33.106 52.1504C29.2919 59.2187 27.7671 71.7153 29.2592 83.6606C30.4713 93.3578 39.3401 107.325 48.6266 114.16C52.0968 116.714 55.6678 119.396 56.5603 120.12C57.4541 120.845 58.5142 121.111 58.9163 120.709C60.4397 119.185 68.3435 124.619 74.1073 131.153C77.4055 134.892 81.9401 141.582 84.1853 146.02C88.9714 155.48 92.7712 158.558 99.6605 158.554C112.87 158.548 119.107 150.093 116.46 135.773C113.781 121.281 116.389 107.031 125.032 88.9256C126.683 85.4653 127.396 80.2771 127.376 71.8731C127.342 57.5518 123.373 47.2606 114.6 38.7401C103.772 28.2229 84.6258 23.1001 68.6235 26.4353ZM48.7488 51.9785C48.1789 56.0057 41.5782 66.4021 39.0701 67.2234C35.5473 68.3773 35.769 62.1531 39.5078 54.9485C42.4834 49.2131 43.9869 47.6742 46.2918 48.0024C48.5569 48.3264 49.1339 49.26 48.7488 51.9785ZM131.726 49.6295C128.063 52.311 130.557 55.5823 137.216 56.8328C143.983 58.1018 146.835 56.6353 146.315 52.1519C145.938 48.909 145.147 48.3719 140.199 48.0081C136.878 47.7637 133.355 48.4373 131.726 49.6295ZM0.225891 52.6393C0.225891 56.9791 3.68613 58.9174 10.1234 58.1813C15.9355 57.5177 17.6862 56.118 16.5167 53.067C15.5405 50.5248 11.5402 49.1833 4.84428 49.1563C0.878149 49.1393 0.225891 49.6309 0.225891 52.6393ZM38.5727 75.7809C38.5201 78.3076 36.0901 80.675 35.1352 79.1303C34.6009 78.2649 34.5583 76.9178 35.0414 76.1362C36.066 74.4793 38.604 74.2235 38.5727 75.7809ZM12.4056 92.7965C8.2292 93.8609 5.66138 97.0923 6.16585 100.646C6.89484 105.773 12.0816 105.451 18.1381 99.9003C25.33 93.3095 22.7821 90.1505 12.4056 92.7965ZM62.7517 186.894C62.7517 187.63 63.3912 188.626 64.1728 189.109C64.9543 189.592 65.5938 188.99 65.5938 187.772C65.5938 186.554 64.9543 185.556 64.1728 185.556C63.3912 185.556 62.7517 186.158 62.7517 186.894ZM69.8569 189.282C69.8569 192.434 70.1866 192.737 71.9885 191.241C73.1609 190.267 74.1201 188.59 74.1201 187.515C74.1201 186.437 73.1609 185.556 71.9885 185.556C70.6357 185.556 69.8569 186.918 69.8569 189.282ZM165.067 267.266C165.067 268.45 166.33 269.398 167.909 269.398C169.488 269.398 170.751 268.45 170.751 267.266C170.751 266.083 169.488 265.135 167.909 265.135C166.33 265.135 165.067 266.083 165.067 267.266ZM163.202 287.368C161.25 289.321 162.262 292.336 164.711 291.865C166.08 291.6 167.198 290.488 167.198 289.392C167.198 287.148 164.692 285.879 163.202 287.368Z" fill="#FFBD16"/>
<path fill-rule="evenodd" clip-rule="evenodd" d="M47.4755 1.76172C46.4993 2.15677 45.6992 3.87623 45.6992 5.5829C45.6992 9.45524 52.479 19.664 54.3022 18.5371C56.2448 17.3363 55.9577 4.5427 53.9413 2.52624C52.165 0.74994 50.4782 0.549571 47.4755 1.76172ZM112.473 6.86042C108.9 12.7194 108.832 16.4525 112.296 16.4525C116.91 16.4525 122.435 10.9758 122.435 6.40142C122.435 2.90566 121.866 2.24203 118.862 2.24203C116.355 2.24203 114.448 3.62044 112.473 6.86042ZM131.726 49.6295C128.063 52.311 130.557 55.5823 137.216 56.8328C143.983 58.1018 146.835 56.6353 146.315 52.1519C145.938 48.909 145.147 48.3719 140.199 48.0081C136.878 47.7637 133.355 48.4373 131.726 49.6295ZM0.225891 52.6393C0.225891 56.9791 3.68613 58.9174 10.1234 58.1813C15.9355 57.5177 17.6862 56.118 16.5167 53.067C15.5405 50.5248 11.5402 49.1833 4.84428 49.1563C0.878149 49.1393 0.225891 49.6309 0.225891 52.6393ZM95.98 76.9007C94.6811 78.8831 93.4548 83.8397 93.2572 87.9138C92.9361 94.4833 92.3734 95.6812 88.2708 98.5176C82.0481 102.821 80.9382 102.56 77.9626 96.1033C73.8273 87.128 70.1056 83.2414 65.6421 83.2414C61.5822 83.2414 59.9096 85.3346 59.9096 90.4134C59.9096 94.6978 68.1446 102.948 73.9936 104.523C79.2117 105.928 79.3737 106.188 84.5221 121.416C90.7889 139.95 90.9182 141.504 86.1989 141.504C81.9202 141.504 81.9116 141.596 85.4699 148.572C90.4436 158.324 98.2465 160.982 108.867 156.546C114.972 153.995 117.261 149.698 117.067 141.153C116.866 132.387 115.927 130.977 112.079 133.673C110.394 134.854 108.542 135.82 107.966 135.82C106.658 135.82 101.633 119.806 98.9101 106.959L96.8596 97.2813L101.174 91.914C106.17 85.6955 108.317 76.5455 105.237 74.5944C101.728 72.3733 98.4043 73.2018 95.98 76.9007ZM103.622 79.0962C103.826 80.2032 102.551 83.348 100.789 86.0835L97.5872 91.0571L97.1367 86.5041C96.8894 84.0002 97.4081 80.604 98.2892 78.957C100.013 75.7369 103.018 75.815 103.622 79.0962ZM69.091 88.3628C71.7043 90.9761 77.4297 101.715 76.2104 101.715C73.3158 101.715 66.7079 96.7186 64.8492 93.1233C61.5836 86.8097 64.3902 83.662 69.091 88.3628ZM12.4056 92.7965C8.2292 93.8609 5.66138 97.0923 6.16585 100.646C6.89484 105.773 12.0816 105.451 18.1381 99.9003C25.33 93.3095 22.7821 90.1505 12.4056 92.7965ZM94.7252 104.202C95.1458 106.352 97.3086 114.713 99.5297 122.785L103.57 137.46L100.121 138.771C98.2238 139.493 96.1846 140.083 95.5892 140.083C94.9952 140.083 92.0963 132.89 89.1504 124.096C86.2032 115.304 83.5501 107.47 83.2531 106.689C82.7955 105.485 89.6407 101.094 92.9219 100.486C93.4931 100.381 94.3045 102.052 94.7252 104.202ZM167.139 129.262C165.74 132.064 165.487 133.829 166.438 134.146C168.997 134.999 166.484 137.241 162.968 137.241C158.605 137.241 155.119 138.614 155.119 140.33C155.119 141.082 156.478 141.264 158.139 140.737C160.171 140.092 160.842 140.293 160.187 141.352C158.34 144.341 160.77 142.908 165.752 138.069C168.501 135.399 170.751 132.243 170.751 131.055C170.751 129.685 172.355 128.732 175.136 128.449L179.522 128.004L174.424 126.44C169.52 124.935 169.243 125.041 167.139 129.262ZM188.072 126.47C182.278 128.028 179.294 130.495 179.343 133.688C179.354 134.47 180.015 133.991 180.812 132.623C181.663 131.162 183.955 130.136 186.37 130.136C188.629 130.136 190.873 129.496 191.356 128.715C192.874 126.259 196.33 127.17 196.33 130.026C196.33 131.53 197.928 134.66 199.882 136.982C206.366 144.689 204.116 163.844 195.743 172.217C190.337 177.623 180.984 180.493 172.541 179.335C165.188 178.328 164.572 180.441 171.55 182.743C176.516 184.383 180.174 189.727 178.726 193.231C178.371 194.091 178.029 193.675 177.968 192.306C177.808 188.752 175.723 189.235 172.949 193.47C169.401 198.884 166.445 215.174 166.59 228.512C166.722 240.568 168.796 252.345 170.786 252.345C171.856 252.345 182.119 238.857 182.119 237.449C182.119 237.075 184.399 233.207 187.184 228.853C196.112 214.895 202.014 201.117 202.014 194.23V187.903L198.106 191.343L194.198 194.783L198.106 190.448C200.868 187.382 202.014 184.586 202.014 180.908C202.014 173.146 206.033 165.662 210.202 165.662C214.381 165.662 221.908 158.422 221.908 154.403C221.908 151.025 217.212 145.767 214.194 145.767C213.078 145.767 211.164 146.768 209.942 147.99C207.024 150.907 204.856 149.412 204.856 144.483C204.856 142.306 203.574 139.364 202.008 137.946C200.441 136.529 198.498 132.913 197.69 129.91C196.881 126.909 195.766 124.535 195.208 124.638C194.653 124.739 191.441 125.564 188.072 126.47ZM184.606 133.981C186.365 134.319 189.242 134.319 191.001 133.981C192.76 133.642 191.32 133.364 187.803 133.364C184.286 133.364 182.847 133.642 184.606 133.981ZM187.538 138.212C188.562 138.622 189.789 138.571 190.26 138.099C190.732 137.628 189.894 137.292 188.396 137.353C186.74 137.421 186.404 137.758 187.538 138.212ZM165.067 140.642C165.067 140.949 166.059 141.581 167.272 142.047C168.537 142.532 169.107 142.293 168.609 141.488C167.775 140.137 165.067 139.491 165.067 140.642ZM185.088 144.584C185.855 146.016 186.642 147.188 186.839 147.188C187.035 147.188 187.194 146.016 187.194 144.584C187.194 143.15 186.407 141.977 185.444 141.977C184.187 141.977 184.087 142.712 185.088 144.584ZM192.179 143.754C192.247 145.409 192.584 145.746 193.037 144.613C193.448 143.587 193.397 142.361 192.925 141.889C192.453 141.417 192.118 142.256 192.179 143.754ZM161.456 144.441C160.94 145.274 160.824 146.262 161.196 146.634C161.568 147.006 162.252 146.324 162.715 145.118C163.676 142.614 162.857 142.173 161.456 144.441ZM167.527 147.075C166.908 149.438 167.093 149.993 168.148 148.939C168.975 148.112 169.37 146.599 169.029 145.573C168.673 144.508 168.03 145.153 167.527 147.075ZM173.059 149.375C171.687 152.948 172.091 153.87 173.766 150.99C174.596 149.563 174.976 148.096 174.609 147.731C174.244 147.365 173.545 148.105 173.059 149.375ZM156.653 150.859C156.721 152.514 157.058 152.851 157.511 151.719C157.922 150.693 157.871 149.466 157.399 148.994C156.927 148.523 156.592 149.361 156.653 150.859ZM171.116 155.715C171.436 156.887 172.922 157.995 174.421 158.176C176.336 158.409 176.512 158.24 175.014 157.607C173.842 157.114 172.354 156.006 171.709 155.146C170.954 154.141 170.742 154.343 171.116 155.715ZM184.418 160.614C184.976 162.064 184.454 162.82 182.898 162.82C181.596 162.82 180.835 162.328 181.206 161.728C181.576 161.127 179.253 160.886 176.043 161.193C170.897 161.683 170.501 161.964 172.695 163.569C174.466 164.863 174.703 165.686 173.519 166.418C172.604 166.983 171.297 166.566 170.615 165.488C169.931 164.411 169.374 164.17 169.374 164.951C169.374 170.164 179.401 172.528 184.292 168.47C186.661 166.505 187.101 160.59 184.977 159.277C184.173 158.78 183.934 159.35 184.418 160.614ZM62.7517 186.894C62.7517 187.63 63.3912 188.626 64.1728 189.109C64.9543 189.592 65.5938 188.99 65.5938 187.772C65.5938 186.554 64.9543 185.556 64.1728 185.556C63.3912 185.556 62.7517 186.158 62.7517 186.894ZM69.8569 189.282C69.8569 192.434 70.1866 192.737 71.9885 191.241C73.1609 190.267 74.1201 188.59 74.1201 187.515C74.1201 186.437 73.1609 185.556 71.9885 185.556C70.6357 185.556 69.8569 186.918 69.8569 189.282ZM190.26 196.362C189.789 196.834 188.562 196.885 187.538 196.474C186.404 196.021 186.74 195.684 188.396 195.616C189.894 195.555 190.732 195.89 190.26 196.362ZM61.3307 210.739C61.3307 212.431 59.9324 214.796 58.2229 215.992C55.3041 218.037 55.5499 218.118 62.2942 217.32C66.9381 216.77 69.8214 217.032 70.4595 218.066C71.0918 219.089 70.0133 219.731 67.454 219.855C64.1031 220.018 63.9753 220.147 66.6596 220.665C68.4501 221.009 69.8669 222.332 69.8783 223.669C69.8981 225.729 70.0886 225.765 71.278 223.925C72.0354 222.752 72.6649 220.034 72.6777 217.885C72.6948 214.682 72.0723 213.977 69.2274 213.977C67.2493 213.977 64.8023 212.617 63.5433 210.818L61.3307 207.661V210.739ZM183.098 217.885C182.742 219.254 182.449 218.134 182.449 215.398C182.449 212.663 182.742 211.543 183.098 212.911C183.456 214.28 183.456 216.517 183.098 217.885ZM59.2091 222.488C58.7117 223.292 59.2815 223.531 60.5463 223.046C63.0075 222.101 63.458 221.082 61.4145 221.082C60.6784 221.082 59.6865 221.715 59.2091 222.488ZM62.7517 226.767C60.1541 228.445 62.3979 228.445 66.3043 226.767C68.1787 225.961 68.4203 225.519 67.0149 225.468C65.8425 225.424 63.9241 226.009 62.7517 226.767ZM83.9366 234.74C82.8367 236.064 80.124 237.912 77.91 238.843C74.3062 240.357 74.1101 240.764 76.0413 242.695C77.6528 244.307 77.7906 245.264 76.587 246.468C72.358 250.697 84.3246 245.2 89.3522 240.605C93.82 236.522 91.6685 234.378 87.1254 238.384C83.3824 241.683 83.381 241.683 86.1051 238.456C87.9567 236.263 88.3674 234.761 87.3841 233.778C86.4007 232.795 85.2937 233.104 83.9366 234.74ZM165.067 267.266C165.067 268.45 166.33 269.398 167.909 269.398C169.488 269.398 170.751 268.45 170.751 267.266C170.751 266.083 169.488 265.135 167.909 265.135C166.33 265.135 165.067 266.083 165.067 267.266ZM163.202 287.368C161.25 289.321 162.262 292.336 164.711 291.865C166.08 291.6 167.198 290.488 167.198 289.392C167.198 287.148 164.692 285.879 163.202 287.368Z" fill="#ED4850"/>
<path fill-rule="evenodd" clip-rule="evenodd" d="M47.4755 1.76172C46.4993 2.15677 45.6992 3.87623 45.6992 5.5829C45.6992 9.45524 52.479 19.664 54.3022 18.5371C56.2448 17.3363 55.9577 4.5427 53.9413 2.52624C52.165 0.74994 50.4782 0.549571 47.4755 1.76172ZM112.473 6.86042C108.9 12.7194 108.832 16.4525 112.296 16.4525C116.91 16.4525 122.435 10.9758 122.435 6.40142C122.435 2.90566 121.866 2.24203 118.862 2.24203C116.355 2.24203 114.448 3.62044 112.473 6.86042ZM131.726 49.6295C128.063 52.311 130.557 55.5823 137.216 56.8328C143.983 58.1018 146.835 56.6353 146.315 52.1519C145.938 48.909 145.147 48.3719 140.199 48.0081C136.878 47.7637 133.355 48.4373 131.726 49.6295ZM0.225891 52.6393C0.225891 56.9791 3.68613 58.9174 10.1234 58.1813C15.9355 57.5177 17.6862 56.118 16.5167 53.067C15.5405 50.5248 11.5402 49.1833 4.84428 49.1563C0.878149 49.1393 0.225891 49.6309 0.225891 52.6393ZM95.98 76.9007C94.6811 78.8831 93.4548 83.8397 93.2572 87.9138C92.9361 94.4833 92.3734 95.6812 88.2708 98.5176C82.0481 102.821 80.9382 102.56 77.9626 96.1033C73.8273 87.128 70.1056 83.2414 65.6421 83.2414C61.5822 83.2414 59.9096 85.3346 59.9096 90.4134C59.9096 94.6978 68.1446 102.948 73.9936 104.523C79.2117 105.928 79.3737 106.188 84.5221 121.416C90.7889 139.95 90.9182 141.504 86.1989 141.504C81.9202 141.504 81.9116 141.596 85.4699 148.572C90.4436 158.324 98.2465 160.982 108.867 156.546C114.972 153.995 117.261 149.698 117.067 141.153C116.866 132.387 115.927 130.977 112.079 133.673C110.394 134.854 108.542 135.82 107.966 135.82C106.658 135.82 101.633 119.806 98.9101 106.959L96.8596 97.2813L101.174 91.914C106.17 85.6955 108.317 76.5455 105.237 74.5944C101.728 72.3733 98.4043 73.2018 95.98 76.9007ZM103.622 79.0962C103.826 80.2032 102.551 83.348 100.789 86.0835L97.5872 91.0571L97.1367 86.5041C96.8894 84.0002 97.4081 80.604 98.2892 78.957C100.013 75.7369 103.018 75.815 103.622 79.0962ZM69.091 88.3628C71.7043 90.9761 77.4297 101.715 76.2104 101.715C73.3158 101.715 66.7079 96.7186 64.8492 93.1233C61.5836 86.8097 64.3902 83.662 69.091 88.3628ZM12.4056 92.7965C8.2292 93.8609 5.66138 97.0923 6.16585 100.646C6.89484 105.773 12.0816 105.451 18.1381 99.9003C25.33 93.3095 22.7821 90.1505 12.4056 92.7965ZM94.7252 104.202C95.1458 106.352 97.3086 114.713 99.5297 122.785L103.57 137.46L100.121 138.771C98.2238 139.493 96.1846 140.083 95.5892 140.083C94.9952 140.083 92.0963 132.89 89.1504 124.096C86.2032 115.304 83.5501 107.47 83.2531 106.689C82.7955 105.485 89.6407 101.094 92.9219 100.486C93.4931 100.381 94.3045 102.052 94.7252 104.202ZM185.595 143.049C185.071 143.899 185.216 145.169 185.918 145.871C186.672 146.626 187.194 145.995 187.194 144.326C187.194 141.096 186.931 140.887 185.595 143.049ZM161.456 144.441C160.94 145.274 160.824 146.262 161.196 146.634C161.568 147.006 162.252 146.324 162.715 145.118C163.676 142.614 162.857 142.173 161.456 144.441ZM176.05 161.015C173.103 161.322 171.062 162.175 171.515 162.908C172.742 164.892 176.942 164.522 180.072 162.155C181.588 161.007 182.51 160.155 182.119 160.262C181.728 160.368 178.997 160.707 176.05 161.015ZM62.7517 186.894C62.7517 187.63 63.3912 188.626 64.1728 189.109C64.9543 189.592 65.5938 188.99 65.5938 187.772C65.5938 186.554 64.9543 185.556 64.1728 185.556C63.3912 185.556 62.7517 186.158 62.7517 186.894ZM69.8569 189.282C69.8569 192.434 70.1866 192.737 71.9885 191.241C73.1609 190.267 74.1201 188.59 74.1201 187.515C74.1201 186.437 73.1609 185.556 71.9885 185.556C70.6357 185.556 69.8569 186.918 69.8569 189.282ZM198.714 190.945C192.713 197.613 181.125 198.806 178.585 193.017C176.789 188.921 175.882 188.994 172.952 193.465C169.731 198.381 166.519 214.182 166.616 224.635L166.695 233.161L169.252 225.984C170.657 222.036 172.881 216.728 174.194 214.189C175.507 211.65 176.213 208.414 175.764 206.999C175.294 205.515 176.127 202.99 177.734 201.03C179.958 198.322 181.021 197.941 183.002 199.152C187.565 201.941 188.621 205.035 185.997 207.934C184.298 209.811 183.351 214.288 182.746 223.294L181.893 236.003L184.828 232.451C186.441 230.497 191.014 222.503 194.99 214.688C201.005 202.866 202.143 199.434 201.761 194.272C201.31 188.154 201.266 188.107 198.714 190.945ZM82.9803 241.415C78.8649 244.537 75.7656 247.36 76.0925 247.686C77.073 248.666 87.4267 242.914 90.1992 239.849C94.8545 234.702 90.6141 235.621 82.9803 241.415ZM165.067 267.266C165.067 268.45 166.33 269.398 167.909 269.398C169.488 269.398 170.751 268.45 170.751 267.266C170.751 266.083 169.488 265.135 167.909 265.135C166.33 265.135 165.067 266.083 165.067 267.266ZM163.202 287.368C161.25 289.321 162.262 292.336 164.711 291.865C166.08 291.6 167.198 290.488 167.198 289.392C167.198 287.148 164.692 285.879 163.202 287.368Z" fill="white"/>
</svg>
