<svg width="350" height="355" viewBox="0 0 350 355" fill="none" xmlns="http://www.w3.org/2000/svg">
<path fill-rule="evenodd" clip-rule="evenodd" d="M162.229 2.48833C158.902 3.29282 155.86 4.44885 155.469 5.05729C155.078 5.66572 153.567 6.53444 152.112 6.98964C148.182 8.21665 138.31 18.7449 134.657 25.6044C132.046 30.508 131.347 33.495 130.852 41.8565C130.253 51.979 131.962 65.0571 133.883 65.0571C134.398 65.0571 135.354 66.5917 136.009 68.4677C137.386 72.4203 147.092 83.0848 149.311 83.0848C150.138 83.0848 150.814 83.5107 150.814 84.0301C150.814 84.5507 152.118 85.5704 153.711 86.296L156.608 87.6166L156.225 111.547C155.858 134.578 155.737 135.666 153.046 140.468C149.52 146.763 146.862 149.416 140.594 152.896C135.75 155.587 134.728 155.688 105.745 156.35C89.3228 156.725 74.8725 157.435 73.6331 157.926C72.3936 158.417 69.2298 159.779 66.6034 160.951C63.9758 162.124 61.3145 163.083 60.688 163.083C60.0615 163.083 59.5432 163.464 59.5365 163.928C59.5286 164.392 57.5005 165.742 55.0295 166.926C52.5575 168.111 50.535 169.441 50.535 169.883C50.535 170.325 48.2184 172.905 45.3858 175.617C42.5543 178.329 39.4434 182.068 38.4733 183.928C37.5032 185.787 36.017 187.713 35.1719 188.209C34.3258 188.705 33.634 189.726 33.634 190.478C33.634 191.232 32.6751 193.637 31.5033 195.823C28.122 202.131 26.8735 214.102 26.8735 240.199C26.8735 258.869 26.5479 264.494 25.4651 264.509C22.5739 264.552 13.9071 271.503 10.3443 276.638C8.31509 279.561 6.225 282.468 5.69994 283.098C-0.126408 290.072 0.0673909 321.223 5.97374 327.129C6.93371 328.089 7.71905 329.369 7.71905 329.974C7.71905 331.885 18.2022 341.596 23.7638 344.837C27.3907 346.95 32.0892 348.372 38.4113 349.269C43.5301 349.996 47.9886 350.969 48.3187 351.434C48.6477 351.898 52.5778 352.845 57.0509 353.54C65.1735 354.8 80.6019 353.49 82.0464 351.417C82.3765 350.944 84.2886 349.892 86.2942 349.081C90.3189 347.454 102.365 336.596 102.365 334.595C102.365 333.901 103.06 332.927 103.91 332.431C106.563 330.884 109.125 319.369 109.125 308.995C109.125 299.438 106.873 288.456 104.2 284.984C99.4511 278.816 89.8671 270.219 86.3088 268.938C83.9844 268.101 82.0836 267.057 82.0836 266.618C82.0836 266.179 78.5005 265.215 74.1209 264.477L66.1594 263.134L66.5155 237.585C66.7656 219.688 67.2816 211.538 68.2405 210.375C73.8359 203.582 78.2572 199.139 79.4211 199.139C80.1771 199.139 81.6836 198.252 82.7675 197.167C84.5106 195.424 88.2784 195.114 115.242 194.492C145.77 193.788 149.181 193.425 153.913 190.374L156.448 188.739V226.079V263.419L153.631 264.489C152.082 265.078 150.814 266.08 150.814 266.714C150.814 267.35 150.176 267.869 149.395 267.869C146.586 267.869 137.699 277.638 135.954 282.644C135.33 284.434 134.405 285.897 133.896 285.897C132.415 285.897 130.533 296.612 130.533 305.052C130.533 313.071 132.392 324.206 133.732 324.206C134.149 324.206 135.171 325.745 136.003 327.627C138.026 332.194 148.413 342.807 151.941 343.91C153.49 344.395 155.073 345.282 155.459 345.88C156.326 347.23 168.145 350.079 172.974 350.103C174.936 350.113 176.71 350.606 176.917 351.199C177.688 353.411 193.191 354.869 201.799 353.54C206.291 352.844 210.137 351.792 210.343 351.199C210.551 350.606 211.463 350.121 212.371 350.121C216.7 350.121 230.798 339.109 230.808 335.72C230.81 334.926 231.569 333.986 232.493 333.631C233.416 333.276 234.785 330.884 235.536 328.315C236.286 325.745 237.432 323.281 238.081 322.838C239.665 321.761 239.665 296.229 238.081 295.152C237.432 294.709 236.286 292.245 235.536 289.675C234.785 287.106 233.416 284.714 232.493 284.359C231.569 284.004 230.814 283.065 230.814 282.27C230.816 280.062 218.757 269.325 215.3 268.458C213.619 268.036 211.938 267.194 211.562 266.587C211.187 265.98 207.253 264.944 202.819 264.286L194.757 263.09V226.607C194.757 195.594 195 190.125 196.381 190.125C197.274 190.125 198.28 190.571 198.617 191.117C199.883 193.163 206.264 193.734 235.963 194.455C262.895 195.108 266.697 195.426 268.438 197.167C269.522 198.252 271.028 199.139 271.784 199.139C272.948 199.139 277.369 203.582 282.965 210.375C283.926 211.543 284.438 219.833 284.689 238.262C284.988 260.232 284.788 264.489 283.459 264.489C281.195 264.489 273.692 270.857 268.354 277.309C264.328 282.177 260.452 291.663 259.69 298.519C258.803 306.478 260.676 320.428 262.934 322.685C263.857 323.61 264.615 324.893 264.615 325.538C264.615 327.927 271.679 337.507 274.541 338.999C276.17 339.849 278.37 341.304 279.429 342.234C283.375 345.697 284.46 346.369 288.294 347.714C298.599 351.331 322.638 349.721 327.254 345.106C328.214 344.146 329.437 343.361 329.971 343.361C331.81 343.361 341.866 332.648 344.86 327.5C350.261 318.214 351.679 299.208 347.802 288.085C346.493 284.332 345.82 283.245 342.359 279.303C341.43 278.244 339.927 275.956 339.019 274.217C338.112 272.48 335.956 270.327 334.23 269.434C332.504 268.542 331.092 267.358 331.092 266.803C331.092 266.249 329.571 265.46 327.712 265.053L324.332 264.31V240.109C324.332 226.799 323.777 212.336 323.1 207.971C321.927 200.41 317.756 190.148 314.554 186.946C313.735 186.127 313.064 184.95 313.064 184.33C313.064 182.4 298.24 167.791 294.862 166.391C293.099 165.661 291.656 164.618 291.656 164.073C291.656 163.528 291.144 163.083 290.517 163.083C289.891 163.083 287.229 162.124 284.602 160.951C281.975 159.779 278.811 158.417 277.572 157.926C276.333 157.435 261.882 156.725 245.46 156.35C216.491 155.688 215.452 155.586 210.576 152.896C204.133 149.344 201.605 146.828 198.181 140.556C195.525 135.694 195.39 134.458 195.003 111.537L194.597 87.5974L197.494 86.4954C199.087 85.8893 200.391 84.8741 200.391 84.2397C200.391 83.6042 201.067 83.0848 201.894 83.0848C204.113 83.0848 213.819 72.4203 215.196 68.4677C215.851 66.5917 216.807 65.0571 217.322 65.0571C219.189 65.0571 220.941 51.961 220.413 41.959C219.968 33.5614 219.314 30.7683 216.612 25.707C212.9 18.755 203.041 8.22228 199.093 6.98964C197.638 6.53444 196.132 5.67248 195.746 5.07419C194.611 3.30747 182.342 0.862452 175.039 0.946957C171.321 0.989773 165.557 1.68271 162.229 2.48833ZM179.602 22.1048C180.191 22.6501 182.582 23.7059 184.915 24.4518C190.179 26.134 196.656 32.7784 198.136 38.0154C199.703 43.5578 199.533 50.9695 197.74 55.2342C196.35 58.5411 192.124 63.4672 187.639 67.0086C184.431 69.5426 175.999 70.7888 170.464 69.5482C165.265 68.3832 164.519 67.9516 158.629 62.6965C146.751 52.0985 151.365 29.219 166.345 24.4337C168.648 23.698 171.015 22.6501 171.603 22.1048C172.191 21.5606 173.991 21.1144 175.603 21.1144C177.214 21.1144 179.014 21.5606 179.602 22.1048ZM51.451 281.44C56.8706 282.689 57.9962 283.427 64.1155 289.745C69.6545 295.463 71.3954 301.905 69.6602 310.26C68.9695 313.592 67.9554 316.319 67.409 316.319C66.8625 316.319 65.6299 317.974 64.6687 319.998C62.9888 323.538 56.3467 327.586 52.2172 327.586C51.2921 327.586 50.535 328.093 50.535 328.713C50.535 329.333 48.5069 329.84 46.028 329.84C43.5492 329.84 41.5211 329.457 41.5211 328.987C41.5211 328.518 39.4321 327.483 36.8801 326.686C30.9658 324.84 26.2392 320.114 24.3936 314.2C23.597 311.648 22.5615 309.559 22.0928 309.559C20.6675 309.559 21.1396 302.229 22.7891 298.746C23.6421 296.947 25.0336 293.825 25.8831 291.81C26.7958 289.641 28.9231 287.435 31.0932 286.405C33.11 285.448 34.7607 284.212 34.7607 283.657C34.7607 283.103 36.9161 282.167 39.5493 281.577C45.9176 280.151 45.8669 280.152 51.451 281.44ZM181.026 281.44C186.441 282.688 187.571 283.428 193.669 289.721C198.129 294.325 199.264 297.584 199.264 305.792C199.264 314.956 193.078 323.893 184.934 326.497C182.591 327.246 180.191 328.304 179.602 328.849C178.27 330.083 172.222 330.162 172.222 328.946C172.222 328.455 170.013 327.462 167.312 326.74C152.157 322.687 146.401 300.707 157.57 289.546C163.694 283.427 164.927 282.606 169.65 281.494C175.346 280.152 175.444 280.152 181.026 281.44ZM310.756 281.484C313.885 282.154 316.444 283.145 316.444 283.684C316.444 284.224 318.095 285.448 320.112 286.405C322.282 287.435 324.409 289.641 325.322 291.81C326.172 293.825 327.563 296.947 328.416 298.746C330.066 302.229 330.538 309.559 329.112 309.559C328.644 309.559 327.608 311.648 326.812 314.2C326.015 316.752 323.924 320.279 322.165 322.039C320.405 323.798 316.877 325.889 314.325 326.686C311.773 327.483 309.684 328.518 309.684 328.987C309.684 329.457 307.656 329.84 305.177 329.84C302.698 329.84 300.67 329.333 300.67 328.713C300.67 328.093 299.913 327.586 298.988 327.586C294.858 327.586 288.216 323.538 286.536 319.998C285.575 317.974 284.349 316.319 283.81 316.319C281.848 316.319 280.362 305.29 281.566 299.675C283.233 291.904 291.633 283.288 299.306 281.477C305.035 280.125 304.417 280.124 310.756 281.484Z" fill="#E01A4F"/>
<path fill-rule="evenodd" clip-rule="evenodd" d="M169.406 1.3245C168.786 1.57689 165.877 2.10646 162.94 2.50194C160.004 2.89743 156.962 3.82473 156.18 4.56161C155.398 5.29962 153.237 6.65283 151.378 7.56887C146.754 9.84825 137.568 19.7444 135.93 24.213C135.191 26.2276 134.219 27.8749 133.767 27.8749C132.089 27.8749 130.292 41.0408 130.773 49.8012C131.149 56.6292 132.034 60.4556 134.364 65.3388C136.065 68.9016 137.928 71.8176 138.503 71.8176C139.077 71.8176 139.547 72.5195 139.547 73.377C139.547 75.7814 152.237 86.4651 155.094 86.4651C156.4 86.4651 156.597 90.7692 156.273 112.127C155.898 136.912 155.798 137.879 153.35 140.507C151.955 142.003 150.814 143.615 150.814 144.09C150.814 145.213 145.338 150.689 144.215 150.689C143.741 150.689 142.127 151.829 140.631 153.224C137.991 155.685 136.995 155.781 106.899 156.498C76.5085 157.222 69.6895 157.834 69.6895 159.835C69.6895 160.381 68.7464 160.83 67.5937 160.83C66.44 160.83 63.6288 162.097 61.346 163.646C59.0632 165.196 56.7433 166.463 56.19 166.463C54.4763 166.463 41.4884 179.206 38.9634 183.364C37.6474 185.533 36.2604 187.561 35.8829 187.871C35.5054 188.181 34.4936 190.209 33.6339 192.378C32.7742 194.547 31.7467 196.575 31.3489 196.885C28.8566 198.825 27.6836 209.869 27.1879 236.039C26.7394 259.722 26.3778 264.489 25.0358 264.489C24.148 264.489 23.1305 265.25 22.7745 266.179C22.4173 267.109 21.4167 267.869 20.5503 267.869C18.4884 267.869 8.05818 278.546 7.06552 281.673C6.64187 283.009 5.6571 284.74 4.87628 285.521C3.30899 287.088 0.958618 298.995 0.958618 305.371C0.958618 312.208 3.34054 321.08 6.84581 327.295C14.0918 340.144 24.3767 347.091 39.2676 349.197C44.2252 349.898 48.2815 350.869 48.2815 351.355C48.2815 352.195 53.0127 353.079 61.9578 353.909C67.0078 354.378 80.0532 352.675 80.8993 351.437C81.2407 350.938 83.617 349.704 86.1792 348.696C91.4625 346.617 101.668 337.318 102.855 333.502C103.289 332.107 104.059 330.967 104.569 330.967C106.858 330.967 109.398 316.419 108.94 305.938C108.371 292.926 104.872 284.739 96.3469 276.472C90.5588 270.86 78.7247 264.502 74.0139 264.473C72.5649 264.466 70.2123 264.146 68.7869 263.764L66.1932 263.07L66.5335 237.501C66.8197 215.915 67.1521 211.651 68.6675 210.138C69.6557 209.151 71.1114 206.78 71.9035 204.868C72.6956 202.956 73.7987 201.392 74.3553 201.392C74.9119 201.392 77.5124 199.997 80.1343 198.294L84.9004 195.195L115.322 194.468C144.561 193.769 151.941 193.121 151.941 191.251C151.941 190.776 152.955 190.122 154.195 189.798C156.415 189.218 156.448 189.764 156.448 226.85C156.448 257.656 156.172 264.489 154.93 264.489C154.095 264.489 152.243 265.503 150.814 266.743C149.386 267.982 147.847 268.996 147.396 268.996C145.987 268.996 139.547 276.107 139.547 277.661C139.547 278.472 139.014 279.137 138.362 279.137C137.709 279.137 136.646 280.658 135.998 282.517C135.35 284.376 134.405 285.897 133.896 285.897C129.979 285.897 129.637 320.165 133.528 322.935C134.076 323.324 135.117 324.997 135.843 326.653C138.361 332.387 146.786 341.259 151.839 343.496C153.754 344.344 155.321 345.401 155.321 345.846C155.321 346.936 162.281 348.669 170.532 349.634C174.25 350.07 177.572 350.858 177.913 351.385C178.739 352.662 191.693 354.388 196.855 353.909C205.666 353.091 210.531 352.201 210.531 351.406C210.531 350.948 212.193 349.974 214.224 349.239C220.318 347.035 230.028 338.592 231.385 334.32C231.774 333.095 232.503 332.093 233.005 332.093C233.508 332.093 234.539 330.446 235.297 328.431C236.054 326.417 237.256 323.552 237.968 322.064C239.607 318.64 239.701 296.253 238.081 295.152C237.432 294.709 236.286 292.245 235.536 289.675C234.785 287.106 233.416 284.714 232.493 284.359C231.569 284.004 230.807 283.065 230.8 282.27C230.786 280.495 223.737 273.503 221.961 273.503C221.252 273.503 220.672 273.033 220.672 272.459C220.672 271.256 214.307 267.869 212.048 267.869C211.214 267.869 210.531 267.409 210.531 266.844C210.531 266.281 206.982 265.221 202.644 264.489L194.757 263.159V226.012C194.757 205.581 195.138 189.063 195.602 189.306C204.52 193.953 204.785 193.987 236.206 194.598C255.3 194.969 267.257 195.633 267.755 196.353C268.197 196.99 270.676 198.445 273.266 199.586C276.378 200.958 278.443 202.794 279.358 205.003C280.118 206.841 281.549 209.151 282.538 210.138C284.056 211.654 284.384 215.974 284.672 238.21C284.932 258.293 284.689 264.489 283.64 264.489C282.085 264.489 280.895 265.477 273.249 273.123C265.766 280.606 265.338 281.191 262.661 287.587C259.954 294.054 258.936 304.892 260.252 313.218C261.246 319.501 266.024 329.853 269.298 332.817C270.441 333.85 271.375 335.344 271.375 336.136C271.375 336.927 272.333 337.879 273.503 338.251C274.673 338.622 276.981 340.178 278.631 341.707C280.282 343.236 282.366 344.487 283.264 344.487C284.161 344.487 284.896 344.975 284.896 345.57C284.896 347.001 291.589 348.724 300.707 349.641C324.43 352.029 344.973 336.849 349.168 313.835C350.942 304.103 348.632 284.771 345.696 284.771C345.101 284.771 344.613 284.036 344.613 283.139C344.613 282.241 343.372 280.168 341.857 278.533C340.341 276.897 338.946 275.214 338.758 274.791C338.095 273.305 326.988 264.489 325.778 264.489C324.941 264.489 324.389 255.3 324.034 235.476C323.547 208.251 322.522 199.023 319.747 196.885C319.345 196.575 318.335 194.421 317.504 192.097C316.672 189.773 315.648 187.871 315.228 187.871C314.808 187.871 313.852 186.393 313.104 184.587C311.554 180.846 296.839 166.463 294.561 166.463C293.735 166.463 292.429 165.705 291.661 164.779C290.891 163.852 288.294 162.504 285.889 161.783C283.484 161.063 281.516 160.105 281.516 159.656C281.516 157.846 273.942 157.204 244.252 156.498C216.781 155.845 212.958 155.532 211.215 153.788C210.131 152.704 208.706 151.816 208.049 151.816C206.658 151.816 199.264 144.229 199.264 142.802C199.264 142.271 198.377 140.95 197.292 139.866C195.554 138.129 195.276 134.858 194.946 112.181C194.613 89.2594 194.767 86.4651 196.366 86.4651C197.352 86.4651 199.027 85.451 200.089 84.2116C201.15 82.9722 202.566 81.9582 203.237 81.9582C204.873 81.9582 211.658 74.8789 211.658 73.1719C211.658 72.4271 212.191 71.8176 212.843 71.8176C213.496 71.8176 214.559 70.2965 215.207 68.4374C215.855 66.5782 216.755 65.0572 217.208 65.0572C218.648 65.0572 220.673 53.8878 220.645 46.0987C220.617 38.5518 218.973 29.0073 217.51 27.9031C217.08 27.5774 215.799 25.4794 214.662 23.2406C211.79 17.5822 203.926 9.39305 199.546 7.50014C197.532 6.62917 195.884 5.55765 195.884 5.11822C195.884 3.15545 172.974 -0.126732 169.406 1.3245ZM181.236 22.2412C181.236 22.8609 182.174 23.3679 183.321 23.3679C186.906 23.3679 194.349 29.7013 196.861 34.8899C199.609 40.5664 200.093 50.7014 197.856 55.7086C196.6 58.5187 192.391 63.1609 187.665 66.9501C182.725 70.9117 170.242 71.3094 164.536 67.6858C160.26 64.9715 154.731 59.0832 153.289 55.7086C151.414 51.3234 151.605 40.9991 153.653 36.1012C155.902 30.7176 162.277 24.6243 166.555 23.7691C168.432 23.3939 169.969 22.6423 169.969 22.1004C169.969 21.5584 172.504 21.1145 175.603 21.1145C178.701 21.1145 181.236 21.6215 181.236 22.2412ZM52.7332 281.484C55.8622 282.154 58.4221 283.087 58.4221 283.556C58.4221 284.025 59.6998 284.991 61.2615 285.702C62.8231 286.414 64.5854 288.27 65.1769 289.827C65.7696 291.383 66.7307 292.658 67.3143 292.658C69.0258 292.658 70.9525 303.939 70.1525 309.274C69.7481 311.97 68.7171 314.877 67.863 315.731C67.009 316.586 66.3092 317.706 66.3092 318.222C66.3092 320.319 60.5066 325.211 56.501 326.491C54.1495 327.244 51.7428 328.304 51.1547 328.849C49.8477 330.058 41.5211 330.178 41.5211 328.987C41.5211 328.518 39.4321 327.483 36.8801 326.686C31.3895 324.972 26.8037 320.656 24.6708 315.192C23.8246 313.023 22.7069 310.767 22.1863 310.178C18.1402 305.602 27.1394 284.982 33.2587 284.808C33.981 284.787 34.755 284.223 34.9793 283.552C35.3646 282.394 41.0197 280.626 45.1278 280.378C46.1813 280.315 49.6043 280.812 52.7332 281.484ZM186.773 283.334C191.691 286.463 197.183 292.709 198.232 296.37C199.743 301.638 199.492 310.213 197.7 314.502C195.557 319.629 188.533 326.409 184.534 327.209C182.72 327.572 181.236 328.312 181.236 328.854C181.236 329.396 178.701 329.84 175.603 329.84C172.504 329.84 169.969 329.396 169.969 328.854C169.969 328.312 168.547 327.584 166.81 327.236C162.587 326.392 155.818 320.038 153.674 314.906C151.7 310.179 151.419 301.785 153.048 296.11C154.005 292.771 156.982 289.343 163.577 283.987C168.279 280.168 181.222 279.804 186.773 283.334ZM311.354 281.358C313.823 281.93 316.02 282.932 316.237 283.584C316.455 284.236 317.229 284.771 317.959 284.771C320.485 284.771 325.377 290.436 326.719 294.916C327.462 297.392 328.495 299.418 329.017 299.418C330.251 299.418 330.253 308.782 329.019 310.178C328.498 310.767 327.381 313.023 326.534 315.192C324.401 320.656 319.816 324.972 314.325 326.686C311.773 327.483 309.684 328.518 309.684 328.987C309.684 329.457 307.402 329.84 304.614 329.84C301.825 329.84 299.543 329.413 299.543 328.891C299.543 328.369 297.518 327.336 295.041 326.594C290.881 325.348 284.896 320.409 284.896 318.222C284.896 317.706 284.196 316.586 283.342 315.731C281.057 313.446 280.13 305.037 281.493 298.957C282.699 293.574 283.53 292.119 287.887 287.762C294.627 281.021 301.644 279.106 311.354 281.358Z" fill="#E01A4F"/>
<path fill-rule="evenodd" clip-rule="evenodd" d="M163.97 2.35989C159.74 3.14522 155.938 4.26407 155.52 4.84772C155.101 5.43024 153.237 6.65951 151.378 7.57892C145.995 10.2425 136.621 20.6885 135.44 25.3396C135.085 26.7345 134.39 27.8748 133.893 27.8748C132.267 27.8748 130.202 43.248 130.769 51.1385C131.37 59.5225 135.955 71.0626 139.175 72.2986C140.177 72.6828 140.675 73.3183 140.282 73.7115C138.985 75.0084 152.296 86.465 155.098 86.465C156.368 86.465 156.573 90.9799 156.262 112.098C155.913 135.822 155.717 137.923 153.631 140.303C152.392 141.718 151.37 143.239 151.361 143.683C151.338 144.736 144.862 151.213 143.808 151.235C143.365 151.244 141.843 152.266 140.428 153.506C138.036 155.601 136.007 155.781 111.379 156.063C86.2402 156.353 69.6896 157.767 69.6896 159.626C69.6896 160.092 67.6614 161.081 65.1826 161.823C62.7038 162.566 60.6757 163.61 60.6757 164.144C60.6757 164.678 59.1602 165.644 57.309 166.29C52.9711 167.802 40.9826 179.287 38.6829 184.132C37.7072 186.189 36.5275 187.871 36.061 187.871C35.5945 187.871 34.5332 189.773 33.7016 192.096C32.8701 194.421 31.776 196.592 31.2701 196.921C28.851 198.501 26.8736 218.309 26.8736 240.975C26.8736 261.34 26.6426 264.489 25.1486 264.489C24.1988 264.489 23.1306 265.25 22.7746 266.179C22.4174 267.109 21.5059 267.869 20.7476 267.869C18.6101 267.869 7.76983 279.105 7.0183 282.099C6.64985 283.568 5.91522 284.77 5.38678 284.77C3.51753 284.77 1.70574 294.477 1.70574 304.488C1.70574 314.499 3.51753 324.206 5.38678 324.206C5.91522 324.206 6.66901 325.486 7.06224 327.051C7.45547 328.616 8.68924 330.81 9.80584 331.927C10.9213 333.042 12.163 334.812 12.5652 335.858C12.9663 336.904 14.5753 338.247 16.1403 338.842C17.7054 339.437 18.9865 340.457 18.9865 341.107C18.9865 342.279 24.4038 345.019 26.0286 344.669C26.4939 344.57 26.8736 344.975 26.8736 345.57C26.8736 346.81 32.7417 348.455 40.9578 349.518C44.0563 349.919 48.3007 351.033 50.3897 351.991C55.0927 354.153 79.3783 353.801 80.7687 351.553C81.233 350.802 83.6791 349.459 86.2064 348.566C90.4496 347.069 101.802 337.44 101.802 335.337C101.802 334.832 102.701 333.37 103.799 332.088C110.653 324.082 110.769 296.411 103.991 286.269C102.819 284.515 101.847 282.778 101.831 282.409C101.815 282.039 99.432 279.433 96.5351 276.618C91.3837 271.611 85.4086 267.869 82.5681 267.869C81.7851 267.869 80.9749 267.36 80.7676 266.737C80.5592 266.114 77.348 265.224 73.6309 264.76L66.8727 263.913V237.681C66.8727 219.808 67.2682 211.192 68.1144 210.646C68.7972 210.204 70.2191 208.006 71.2726 205.761C72.5751 202.987 74.6145 201.037 77.6364 199.675C80.0826 198.572 82.0836 197.304 82.0836 196.858C82.0836 195.294 90.7437 194.703 115.34 194.588C140.261 194.47 149.924 193.429 152.803 190.551C153.657 189.697 154.827 188.998 155.401 188.998C156.025 188.998 156.448 204.266 156.448 226.744C156.448 257.604 156.172 264.489 154.934 264.489C154.1 264.489 151.946 265.76 150.145 267.313C148.344 268.865 146.033 270.406 145.007 270.735C143.983 271.064 142.311 273.088 141.294 275.235C140.275 277.381 138.932 279.137 138.309 279.137C137.686 279.137 136.646 280.658 135.998 282.517C135.35 284.376 134.277 285.897 133.616 285.897C132.953 285.897 132.745 286.231 133.153 286.639C133.561 287.046 133.295 288.101 132.564 288.983C131.734 289.982 131.207 295.119 131.165 302.608C131.094 315.001 131.915 321.794 133.624 322.969C134.164 323.34 135.271 325.29 136.086 327.305C136.9 329.319 137.927 330.967 138.366 330.967C138.807 330.967 139.861 332.266 140.712 333.854C141.562 335.443 143.648 337.565 145.348 338.569C147.048 339.573 148.249 340.7 148.018 341.075C147.786 341.45 149.208 342.466 151.177 343.334C153.147 344.202 155.373 345.522 156.125 346.268C156.876 347.014 161.947 348.251 167.392 349.018C172.838 349.784 177.654 350.981 178.096 351.675C178.618 352.495 183.749 352.938 192.744 352.938C205.692 352.938 207.043 352.725 213.63 349.641C217.504 347.828 220.672 345.916 220.672 345.392C220.672 344.868 221.94 343.862 223.489 343.156C225.038 342.45 226.306 341.193 226.306 340.362C226.306 339.533 227.032 338.854 227.92 338.854C228.808 338.854 229.855 337.843 230.247 336.607C230.639 335.371 231.561 333.703 232.295 332.901C234.638 330.34 236.446 326.56 236.446 324.222C236.446 322.974 236.913 321.953 237.483 321.953C238.054 321.953 238.873 318.659 239.304 314.635C240.154 306.698 239.092 294.536 237.627 295.441C237.129 295.749 236.335 294.361 235.863 292.358C235.391 290.353 234.886 288.334 234.739 287.869C234.594 287.404 234.411 286.486 234.334 285.831C234.256 285.175 233.722 284.928 233.147 285.284C232.573 285.639 231.76 284.782 231.345 283.379C230.928 281.975 228.736 279.171 226.475 277.146C224.212 275.122 221.602 272.78 220.672 271.943C219.743 271.105 217.081 269.744 214.757 268.918C212.433 268.092 210.531 267.042 210.531 266.585C210.531 266.129 208.124 265.441 205.179 265.06C202.235 264.678 198.687 264.131 197.292 263.842L194.757 263.32V226.159C194.757 205.72 194.995 188.998 195.286 188.998C195.576 188.998 197.982 190.128 200.631 191.508C205.16 193.869 207.328 194.063 237.003 194.745C254.358 195.145 268.715 195.537 268.906 195.615C269.098 195.694 269.012 196.149 268.717 196.628C268.422 197.106 270.378 198.406 273.064 199.517C276.281 200.848 278.585 202.763 279.814 205.127C280.841 207.101 282.401 209.983 283.282 211.533C284.562 213.782 284.829 219.464 284.609 239.701C284.431 256.077 283.924 265.053 283.178 265.053C281.465 265.053 272.253 273.379 266.35 280.263C264.781 282.092 262.903 287.064 263.265 288.432C263.388 288.898 263.022 289.277 262.45 289.277C260.973 289.277 260.078 294.245 259.913 303.362C259.752 312.244 260.96 320.826 262.37 320.826C262.886 320.826 263.65 322.381 264.068 324.283C264.485 326.184 265.538 328.011 266.405 328.344C267.273 328.677 267.744 329.335 267.452 329.807C267.16 330.279 267.924 331.573 269.149 332.68C270.373 333.789 271.375 335.408 271.375 336.278C271.375 337.148 271.783 337.609 272.28 337.301C272.778 336.992 275.088 338.484 277.413 340.614C279.739 342.744 282.373 344.487 283.269 344.487C284.164 344.487 284.896 344.975 284.896 345.57C284.896 347.197 292.894 349.03 302.213 349.539C310.538 349.994 322.869 347.941 324.194 345.88C324.58 345.282 326.163 344.398 327.712 343.919C330.599 343.026 332.469 341.444 340.794 332.856C342.103 331.507 343.564 329.159 344.042 327.639C344.519 326.118 345.548 324.237 346.329 323.456C348.535 321.25 350.489 307.543 349.673 299.996C348.716 291.148 347.051 284.77 345.696 284.77C345.101 284.77 344.613 284.085 344.613 283.248C344.613 281.222 332.387 267.869 330.533 267.869C329.733 267.869 328.788 267.109 328.431 266.179C328.075 265.25 327.057 264.489 326.172 264.489C324.832 264.489 324.47 259.786 324.026 236.602C323.448 206.328 323.294 205.031 319.203 196.088C317.686 192.771 316.445 189.566 316.445 188.964C316.445 188.364 315.944 187.871 315.332 187.871C314.722 187.871 313.513 186.223 312.646 184.209C310.662 179.599 298.368 167.849 293.896 166.29C292.045 165.644 290.53 164.739 290.53 164.28C290.53 163.82 288.502 162.774 286.023 161.956C283.544 161.138 281.516 160.089 281.516 159.624C281.516 157.765 264.944 156.353 239.744 156.063C216.202 155.794 212.96 155.535 211.214 153.787C210.13 152.704 208.748 151.816 208.142 151.816C206.625 151.816 199.264 144.548 199.264 143.05C199.264 142.383 198.377 140.949 197.292 139.867C195.553 138.128 195.279 134.873 194.962 112.181C194.661 90.5359 194.859 86.465 196.206 86.465C197.087 86.465 199.137 85.3236 200.76 83.9299C202.383 82.5361 205.246 80.215 207.122 78.7739C208.997 77.3328 210.531 75.4489 210.531 74.5881C210.531 73.7273 211.546 72.4811 212.785 71.8175C214.024 71.1538 215.038 69.9054 215.038 69.0412C215.038 68.1781 215.736 66.7742 216.588 65.9224C218.672 63.8379 220.672 54.05 220.672 45.933C220.672 38.5968 218.55 27.8748 217.098 27.8748C216.585 27.8748 216.165 27.2393 216.165 26.463C216.165 23.5898 204.301 8.91974 202.471 9.5293C202.065 9.66451 201.116 9.03016 200.36 8.12088C199.606 7.21161 198.289 6.46684 197.437 6.46684C196.582 6.46684 195.884 5.97896 195.884 5.38404C195.884 2.27538 175.052 0.301342 163.97 2.35989ZM185.908 24.1994C194.438 28.3401 198.442 34.4955 199.075 44.4434C199.354 48.831 198.95 52.9582 198.019 55.2094C196.383 59.1676 189.957 66.1838 187.967 66.1838C187.291 66.1838 187.028 66.6536 187.382 67.2272C187.736 67.8018 185.217 68.8542 181.783 69.5674C172.435 71.5076 165.69 69.7229 159.502 63.6689C152.991 57.3006 151.512 53.2973 152.187 43.8733C152.929 33.4961 156.716 27.4658 164.335 24.5273C166.504 23.6912 168.761 22.5814 169.349 22.0609C171.552 20.1127 179.644 21.1583 185.908 24.1994ZM53.4161 281.524C56.1699 282.217 58.4222 283.15 58.4222 283.596C58.4222 284.044 59.6999 284.991 61.2616 285.702C62.8232 286.414 64.5854 288.27 65.177 289.827C65.7696 291.383 66.7229 292.658 67.2964 292.658C67.8687 292.658 68.9504 295.211 69.6986 298.331C71.2422 304.763 70.3814 313.214 67.933 315.662C67.0395 316.554 66.3093 317.706 66.3093 318.222C66.3093 320.409 60.3241 325.348 56.1642 326.594C53.6877 327.336 51.6618 328.369 51.6618 328.891C51.6618 329.413 49.1266 329.84 46.0281 329.84C42.9296 329.84 40.3944 329.396 40.3944 328.854C40.3944 328.312 38.8891 327.567 37.0492 327.199C32.7349 326.336 24.7441 318.345 23.881 314.031C23.5126 312.191 22.7678 310.685 22.2258 310.685C20.5121 310.685 21.1599 300.588 23.0596 297.688C24.0602 296.161 24.5559 294.911 24.1604 294.911C23.0844 294.911 27.1057 288.997 29.6905 286.779C30.9299 285.716 32.5783 284.829 33.3523 284.808C34.1275 284.787 34.7608 284.278 34.7608 283.676C34.7608 282.392 40.7189 280.51 45.2473 280.365C46.987 280.31 50.6635 280.83 53.4161 281.524ZM183.623 281.39C184.762 281.39 188.46 284.155 191.839 287.534C198.64 294.336 200.155 299.054 198.91 309.56C197.891 318.172 189.519 327.586 182.88 327.586C181.977 327.586 181.236 328.093 181.236 328.713C181.236 329.333 178.701 329.84 175.603 329.84C172.504 329.84 169.969 329.333 169.969 328.713C169.969 328.093 169.16 327.586 168.171 327.586C164.251 327.586 157.284 322.465 154.329 317.412C150.75 311.29 151.9 292.341 155.943 290.789C156.841 290.445 157.575 289.518 157.575 288.73C157.575 287.942 159.089 286.67 160.94 285.903C162.792 285.137 164.03 284.061 163.691 283.513C163.353 282.965 163.486 282.48 163.987 282.434C166.734 282.181 170.477 281.256 171.027 280.694C171.375 280.339 173.884 280.35 176.605 280.72C179.325 281.088 182.484 281.39 183.623 281.39ZM312.219 281.45C314.544 282.094 316.445 283.106 316.445 283.697C316.445 284.287 317.079 284.787 317.853 284.808C322.577 284.934 329.965 297.753 329.965 305.826C329.965 308.498 329.521 310.685 328.979 310.685C328.438 310.685 327.702 312.143 327.346 313.926C326.204 319.632 317.237 327.586 311.945 327.586C310.628 327.586 309.864 328.093 310.248 328.713C310.671 329.398 309.015 329.84 306.018 329.84C298.358 329.84 285.109 322.532 284.933 318.211C284.913 317.701 284.166 316.554 283.272 315.662C279.6 311.99 280.121 296.848 284.089 291.898C288.769 286.062 292.899 282.866 297.458 281.554C302.578 280.08 307.172 280.047 312.219 281.45Z" fill="#E01A4F"/>
<path fill-rule="evenodd" clip-rule="evenodd" d="M171.659 1.58925C165.346 2.26303 156.448 4.37116 156.448 5.1948C156.448 5.64549 154.8 6.61787 152.786 7.35475C149.453 8.57613 144.49 12.7901 139.237 18.8598C135.813 22.8169 131.742 32.9778 130.978 39.4735C130.072 47.1837 131.367 60.095 133.235 61.9687C134.001 62.7383 135.173 64.9332 135.839 66.8464C137.172 70.6795 148.28 83.0849 150.379 83.0849C151.106 83.0849 151.992 83.8454 152.349 84.775C152.705 85.7045 153.808 86.4651 154.798 86.4651C156.407 86.4651 156.562 89.2098 156.243 112.098C155.911 135.837 155.718 137.922 153.631 140.303C152.392 141.718 151.37 143.239 151.361 143.683C151.338 144.736 144.862 151.213 143.808 151.235C143.364 151.244 141.843 152.266 140.428 153.506C138.044 155.595 135.643 155.814 107.435 156.519C78.0768 157.252 70.8161 157.881 70.8161 159.688C70.8161 160.155 68.5345 161.175 65.7458 161.956C62.9571 162.737 60.6755 163.783 60.6755 164.281C60.6755 164.778 59.6445 165.511 58.386 165.911C57.1263 166.311 54.839 167.74 53.3033 169.086C51.7664 170.432 48.7411 173.014 46.5789 174.822C44.4167 176.632 42.6477 178.732 42.6477 179.491C42.6477 180.249 41.8793 181.165 40.9407 181.524C40.0022 181.885 38.747 183.46 38.1521 185.025C37.5571 186.59 36.6062 187.871 36.0394 187.871C35.4727 187.871 34.3358 190.153 33.5122 192.942C32.6885 195.73 31.6598 198.012 31.226 198.012C29.1438 198.012 27.7726 211.183 27.2137 236.57C26.6425 262.541 26.4577 264.469 24.4836 265.095C23.3197 265.465 22.3665 266.24 22.3665 266.818C22.3665 267.396 21.7299 267.869 20.9525 267.869C18.8939 267.869 10.6158 275.974 8.14711 280.405C6.98206 282.497 5.63674 284.498 5.15788 284.853C2.91004 286.519 0.978816 304.005 2.14837 312.091C2.70835 315.966 3.17708 319.733 3.18947 320.464C3.20186 321.194 3.84636 322.462 4.62042 323.281C5.39562 324.099 6.78939 326.291 7.71895 328.15C9.81129 332.334 18.6257 341.091 23.0302 343.361C24.8341 344.29 26.9805 345.685 27.7985 346.459C28.6176 347.234 29.8852 347.883 30.6153 347.903C36.4552 348.056 48.8639 350.368 49.5174 351.424C49.9749 352.165 54.2554 352.963 59.3628 353.258C69.1609 353.826 81.3094 352.729 80.4598 351.355C80.1691 350.885 82.7088 349.625 86.1037 348.555C89.4985 347.484 91.9784 346.128 91.6156 345.541C91.2517 344.953 91.8737 344.125 92.9981 343.7C95.0522 342.925 102.937 335.399 102.797 334.347C102.578 332.681 103.873 329.943 104.654 330.426C106.025 331.273 109.127 316.194 109.107 308.773C109.085 300.248 106.73 290.445 103.674 286.153C102.334 284.272 101.238 282.364 101.238 281.913C101.238 280.713 93.3846 273.503 92.0776 273.503C91.4647 273.503 91.2517 273.038 91.6032 272.47C91.9537 271.902 89.7351 270.604 86.6704 269.587C83.6068 268.568 80.9353 267.242 80.7336 266.637C80.5319 266.033 77.0774 265.175 73.0572 264.733L65.7458 263.926V240.828C65.7458 219.452 66.6494 208.118 68.2291 209.696C68.5852 210.052 69.8516 208.372 71.0437 205.963C72.4589 203.102 74.6526 200.904 77.3658 199.63C79.6508 198.557 81.8818 197.119 82.3235 196.437C82.8575 195.61 93.4049 194.972 113.872 194.526C142.066 193.913 148.094 193.357 149.688 191.226C149.997 190.811 151.646 190.13 153.349 189.713L156.448 188.955V226.722C156.448 259.885 156.237 264.489 154.723 264.489C153.773 264.489 152.705 265.25 152.349 266.179C151.992 267.109 151.093 267.869 150.35 267.869C149.081 267.869 143.469 272.962 139.421 277.788C138.421 278.979 136.163 282.938 134.402 286.587C131.592 292.409 131.193 294.532 131.148 303.925C131.093 315.278 131.972 321.863 133.69 322.969C134.266 323.34 135.074 324.727 135.487 326.053C136.153 328.188 138.24 331.017 143.265 336.6C146.081 339.728 151.359 343.44 153.913 344.087C155.308 344.442 156.448 345.133 156.448 345.624C156.448 346.634 164.404 348.523 172.725 349.491C175.79 349.847 178.686 350.768 179.162 351.538C180.394 353.533 208.458 353.524 209.123 351.529C209.381 350.755 210.336 350.121 211.244 350.121C212.153 350.121 214.358 349.366 216.142 348.442C220.123 346.385 230.812 336.277 230.812 334.571C230.812 333.889 231.457 332.927 232.245 332.431C234.023 331.312 236.446 325.941 236.446 323.12C236.446 321.962 237.016 320.824 237.714 320.592C238.478 320.337 239.094 316.604 239.266 311.201C239.584 301.181 238.887 294.662 237.584 295.468C237.109 295.761 236.335 294.361 235.863 292.358C235.39 290.353 234.886 288.334 234.739 287.869C234.594 287.404 234.411 286.486 234.334 285.831C234.256 285.175 233.686 284.951 233.066 285.334C232.446 285.717 231.939 285.471 231.939 284.787C231.939 282.989 220.264 271.679 216.281 269.619C214.42 268.657 212.081 267.869 211.084 267.869C210.087 267.869 209.545 267.427 209.879 266.887C210.538 265.82 204.296 264.522 198.419 264.502L194.757 264.489V226.722V188.955L197.855 189.713C199.559 190.13 201.208 190.819 201.517 191.242C202.96 193.214 209.845 193.828 237.896 194.486C257.912 194.956 268.35 195.613 268.881 196.437C269.323 197.119 271.52 198.541 273.765 199.595C276.105 200.695 278.736 203.167 279.936 205.395C281.086 207.532 282.349 209.279 282.743 209.279C284.599 209.279 286.023 224.015 286.023 243.248V264.446L283.206 265.153C281.656 265.542 280.389 266.328 280.389 266.9C280.389 267.472 279.501 268.263 278.417 268.656C275.712 269.637 269.149 276.012 269.134 277.672C269.127 278.416 268.477 279.43 267.689 279.925C266.536 280.652 263.776 285.398 262.908 288.151C262.81 288.46 262.266 289.728 261.701 290.967C260.202 294.247 260.385 318.47 261.916 319.458C262.601 319.901 263.781 322.165 264.539 324.488C265.296 326.812 266.325 328.713 266.824 328.713C267.323 328.713 268.052 329.601 268.444 330.685C269.574 333.81 272.094 337.76 272.621 337.232C272.886 336.968 275.117 338.492 277.579 340.619C280.04 342.747 282.694 344.487 283.475 344.487C284.257 344.487 284.896 344.913 284.896 345.435C284.896 347.088 297.032 349.173 306.054 349.071C315.02 348.97 323.02 347.606 324.214 345.976C324.588 345.465 326.384 344.288 328.204 343.358C332.749 341.04 341.778 331.854 343.635 327.66C344.475 325.76 345.486 324.206 345.88 324.206C348.271 324.206 350.516 300.153 348.689 294.107C348.355 293 347.819 290.576 347.498 288.722C347.178 286.867 346.398 285.177 345.764 284.966C345.131 284.756 344.613 283.89 344.613 283.044C344.613 280.54 327.964 264.489 325.366 264.489C324.948 264.489 324.333 251.94 323.998 236.602C323.664 221.264 323.188 207.955 322.94 207.026C322.691 206.096 322.102 203.687 321.63 201.674C321.159 199.66 320.416 198.012 319.981 198.012C319.546 198.012 318.516 195.73 317.693 192.942C316.869 190.153 315.768 187.871 315.247 187.871C314.724 187.871 313.475 186.142 312.473 184.027C310.921 180.758 307.267 176.986 298.417 169.516C297.487 168.731 295.332 167.384 293.628 166.523C291.924 165.661 290.529 164.601 290.529 164.166C290.529 163.731 288.248 162.737 285.459 161.956C282.67 161.175 280.389 160.155 280.389 159.688C280.389 157.88 273.121 157.252 243.688 156.519C216.77 155.848 212.953 155.527 211.214 153.787C210.13 152.704 208.748 151.816 208.141 151.816C206.625 151.816 199.264 144.548 199.264 143.05C199.264 142.383 198.377 140.949 197.292 139.867C195.552 138.128 195.279 134.873 194.962 112.181C194.651 89.7811 194.826 86.4651 196.315 86.4651C197.256 86.4651 198.43 85.8262 198.926 85.0465C199.422 84.2657 201.681 82.3874 203.945 80.872C206.21 79.3576 208.901 76.6997 209.925 74.9679C210.948 73.2349 212.225 71.8175 212.761 71.8175C213.297 71.8175 214.357 69.9167 215.114 67.5923C215.872 65.2689 216.957 63.0639 217.527 62.6932C218.096 62.3214 219.14 58.6449 219.846 54.5221C221.231 46.4389 219.529 28.8089 217.293 28.063C216.673 27.8568 216.165 27.2101 216.165 26.6276C216.165 22.4755 200.733 6.46688 196.732 6.46688C196.177 6.46688 194.999 5.74239 194.114 4.85791C193.229 3.97342 189.589 2.93232 186.026 2.54472C182.462 2.15825 178.532 1.70417 177.293 1.53516C176.053 1.36728 173.518 1.39094 171.659 1.58925ZM182.363 22.0609C182.363 22.5814 184.355 23.6642 186.789 24.4676C192.108 26.2231 197.951 33.6832 198.946 39.9884C199.312 42.3117 200.168 44.5922 200.847 45.0576C201.738 45.6682 201.734 46.137 200.828 46.7477C200.139 47.213 199.273 49.2434 198.903 51.2614C197.716 57.7378 197.444 58.4589 195.805 59.4719C194.918 60.0195 194.194 61.1056 194.194 61.8842C194.194 62.6628 193.14 63.8256 191.852 64.4678C190.564 65.1101 188.658 66.4892 187.613 67.5325C183.957 71.1888 167.616 71.5313 164.067 68.0249C163.285 67.2531 161.034 65.6734 159.063 64.5163C157.094 63.3591 155.14 61.3603 154.722 60.0724C153.069 54.9807 152.868 54.2359 152.26 50.9729C151.913 49.1138 151.066 47.2198 150.377 46.7646C149.499 46.1854 149.547 45.9319 150.533 45.9195C151.395 45.9094 151.941 44.3319 151.941 41.8509C151.941 34.8031 157.677 26.9205 164.617 24.4304C166.941 23.5978 168.842 22.5105 168.842 22.0147C168.842 21.5201 171.884 21.1144 175.602 21.1144C179.321 21.1144 182.363 21.5403 182.363 22.0609ZM54.0109 281.593C58.6969 283.226 62.7859 286.427 66.9514 291.722C70.5299 296.271 71.7434 305.629 69.7029 312.939C68.3057 317.944 60.4637 326.08 56.1145 327.035C54.2847 327.436 52.7883 328.232 52.7883 328.802C52.7883 329.373 49.9997 329.84 46.5913 329.84C43.1829 329.84 40.3943 329.333 40.3943 328.713C40.3943 328.093 39.6506 327.586 38.7425 327.586C35.8513 327.586 29.1269 323.848 29.1269 322.241C29.1269 321.389 28.6999 320.957 28.1782 321.279C26.4171 322.367 21.2398 309.168 21.2398 303.591C21.2398 300.677 21.6837 298.291 22.2257 298.291C22.7676 298.291 23.4932 296.896 23.838 295.193C24.478 292.031 26.3258 289.694 32.008 284.864C37.1335 280.506 46.7795 279.071 54.0109 281.593ZM186.025 281.99C187.11 282.412 187.997 283.223 187.997 283.792C187.997 284.361 189.278 285.314 190.843 285.908C192.408 286.503 194.017 287.885 194.419 288.979C194.821 290.073 195.807 291.364 196.61 291.85C197.413 292.334 198.403 295.25 198.812 298.328C199.22 301.407 200.098 303.925 200.761 303.925C201.539 303.925 201.487 304.406 200.616 305.277C199.872 306.021 199.264 308.139 199.264 309.983C199.264 315.299 192.143 324.72 186.789 326.487C184.354 327.29 182.363 328.373 182.363 328.893C182.363 329.414 179.321 329.84 175.602 329.84C171.884 329.84 168.842 329.434 168.842 328.94C168.842 328.444 166.941 327.357 164.617 326.524C157.961 324.136 151.941 316.175 151.941 309.76C151.941 307.893 151.308 306.109 150.533 305.794C149.534 305.39 149.484 304.952 150.358 304.292C151.037 303.781 151.898 301.422 152.273 299.052C153.422 291.775 155.589 288.205 160.057 286.228C162.352 285.214 163.981 283.983 163.678 283.493C162.083 280.911 180.142 279.696 186.025 281.99ZM313.064 281.377C318.04 282.765 326.516 290.908 327.357 295.106C327.707 296.858 328.437 298.291 328.979 298.291C329.521 298.291 329.965 301.08 329.965 304.488C329.965 307.897 329.458 310.685 328.838 310.685C328.219 310.685 327.712 311.429 327.712 312.337C327.712 314.957 324.058 321.917 323.019 321.274C322.502 320.954 322.078 321.389 322.078 322.241C322.078 323.848 315.354 327.586 312.463 327.586C311.554 327.586 310.811 328.093 310.811 328.713C310.811 329.333 308.022 329.84 304.614 329.84C301.205 329.84 298.417 329.396 298.417 328.854C298.417 328.312 297.022 327.586 295.318 327.242C290.544 326.275 283.075 318.376 281.395 312.516C278.724 303.205 280.957 294.692 287.887 287.762C294.909 280.739 303.224 278.631 313.064 281.377Z" fill="#E01A4F"/>
<path fill-rule="evenodd" clip-rule="evenodd" d="M161.566 3.23085C159.113 3.80549 156.831 4.64152 156.495 5.08996C156.16 5.53728 153.984 6.78232 151.659 7.85723C149.336 8.931 147.434 10.2448 147.434 10.7743C147.434 11.305 146.167 12.3168 144.617 13.0222C143.068 13.7286 141.799 14.95 141.799 15.7387C141.798 16.5263 140.531 18.6435 138.982 20.4451C137.433 22.2456 136.167 24.3639 136.167 25.1526C136.167 25.9413 135.405 27.3486 134.473 28.2804C131.521 31.2325 129.938 45.72 131.57 54.8522C132.352 59.2251 133.35 62.8036 133.789 62.8036C134.228 62.8036 135.261 64.665 136.083 66.9398C137.901 71.9673 149.516 83.7473 154.552 85.6707C156.463 86.4008 156.574 88.1934 156.242 112.844C155.907 137.548 155.74 139.367 153.631 141.301C152.392 142.436 151.251 143.998 151.096 144.774C150.732 146.593 146.719 150.607 144.899 150.971C144.124 151.126 142.561 152.266 141.425 153.506C139.494 155.613 137.371 155.81 108.75 156.546C78.8047 157.315 70.335 158.014 71.3344 159.631C71.6071 160.071 69.3198 161.076 66.2506 161.863C63.1825 162.649 60.8896 163.644 61.1555 164.076C61.4214 164.506 60.0288 165.563 58.0592 166.423C54.3939 168.025 39.2675 182.304 39.2675 184.162C39.2675 184.729 38.3616 186.175 37.2541 187.377C36.1465 188.579 34.5274 191.336 33.6564 193.505C32.7843 195.674 31.7274 197.702 31.306 198.012C29.1224 199.619 28.0002 212.846 28.0002 236.964V263.411L25.1833 264.694C23.6341 265.4 22.3665 266.369 22.3665 266.847C22.3665 267.326 21.4572 268.006 20.3451 268.359C17.0168 269.415 10.5842 276.133 8.34992 280.884C7.20065 283.332 5.73589 285.674 5.09703 286.089C3.51059 287.119 3.12187 289.318 2.43005 301.173C1.86668 310.85 3.51284 324.206 5.27055 324.206C5.69533 324.206 6.76573 325.855 7.65134 327.868C9.51045 332.101 18.2404 340.893 23.0301 343.358C24.8341 344.288 26.5636 345.346 26.8734 345.711C27.8751 346.892 37.8828 348.994 42.5024 348.994C45.2775 348.994 47.7473 349.748 48.9653 350.966C50.6228 352.625 53.0813 352.938 64.4433 352.938C74.247 352.938 78.079 352.551 78.4204 351.529C78.6796 350.755 79.7365 350.118 80.7686 350.114C81.8018 350.11 84.0992 349.349 85.8738 348.424C87.6495 347.498 89.8038 346.741 90.6624 346.741C91.521 346.741 92.0979 346.126 91.9424 345.374C91.788 344.621 92.8066 343.486 94.206 342.849C95.6065 342.211 97.0341 340.798 97.3811 339.709C97.7271 338.619 98.491 337.727 99.0791 337.727C99.6662 337.727 101.027 335.826 102.101 333.502C103.176 331.178 104.626 328.669 105.325 327.927C110.138 322.808 109.565 291.72 104.591 288.151C104.16 287.841 102.975 285.967 101.961 283.986C99.7236 279.62 95.744 275.284 93.0691 274.3C91.9841 273.901 91.0973 273.093 91.0973 272.505C91.0973 271.917 88.6884 270.533 85.7453 269.429C82.8023 268.325 80.0846 266.974 79.706 266.426C79.3286 265.878 75.9056 265.148 72.1006 264.804L65.1824 264.176L65.2095 241.516C65.2354 219.235 66.1582 210.268 68.5029 209.486C69.1553 209.269 69.6894 208.469 69.6894 207.71C69.6894 205.462 75.8278 199.848 81.2418 197.145C85.9741 194.781 87.7081 194.632 110.376 194.623C133.125 194.615 148.339 193.35 149.662 191.36C149.986 190.871 151.646 190.13 153.349 189.713L156.448 188.955V226.757C156.448 261.722 156.3 264.616 154.476 265.313C149.738 267.122 138.184 278.707 136.194 283.644C135.319 285.813 134.196 287.87 133.697 288.216C133.198 288.562 132.229 291.858 131.544 295.54C130.451 301.407 130.535 304.667 132.139 318.716C132.254 319.724 133.166 321.366 134.166 322.366C135.165 323.366 136.319 325.714 136.73 327.584C137.14 329.456 137.887 330.732 138.389 330.423C138.889 330.114 140.097 331.54 141.071 333.593C142.046 335.647 144.129 337.913 145.702 338.629C147.274 339.346 148.561 340.388 148.561 340.946C148.561 341.504 150.209 342.627 152.223 343.442C154.236 344.256 156.166 345.329 156.511 345.826C157.148 346.744 165.073 348.379 174.779 349.594C177.734 349.963 179.9 350.675 179.59 351.177C179.28 351.677 180.918 352.399 183.23 352.781C191.788 354.196 210.03 353.172 208.899 351.34C208.644 350.93 210.938 349.705 213.995 348.619C219.395 346.701 230.812 337.018 230.812 334.356C230.812 333.692 231.531 332.873 232.41 332.536C233.29 332.199 234.631 329.299 235.392 326.092C236.151 322.886 237.262 319.945 237.86 319.556C239.269 318.641 239.218 298.188 237.805 297.287C236.749 296.615 234.694 289.498 235.094 287.903C235.206 287.457 234.288 286.551 233.055 285.892C231.822 285.231 230.812 284.116 230.812 283.412C230.812 281.112 218.334 270.269 214.1 268.889C211.827 268.149 209.659 267.067 209.281 266.487C208.903 265.907 205.48 265.148 201.675 264.804L194.757 264.176V226.566V188.955L197.855 189.713C199.559 190.13 201.208 190.819 201.517 191.242C202.949 193.2 209.809 193.81 237.897 194.477C258.135 194.958 268.344 195.608 268.883 196.451C269.324 197.143 270.787 198.051 272.133 198.472C275.051 199.382 281.516 205.747 281.516 207.71C281.516 208.469 282.05 209.269 282.702 209.486C285.049 210.27 285.97 219.241 285.995 241.597C286.023 264.202 286.008 264.342 283.487 265.138C282.092 265.579 280.29 266.88 279.48 268.031C278.671 269.182 277.474 270.123 276.822 270.123C275.174 270.123 270.291 274.901 270.267 276.537C270.257 277.278 269.354 278.545 268.26 279.354C266.113 280.943 262.932 286.94 263.35 288.61C263.491 289.174 262.946 290.042 262.139 290.543C260.233 291.722 260.029 318.241 261.916 319.459C262.601 319.901 263.781 322.164 264.539 324.488C265.296 326.811 266.302 328.713 266.774 328.713C267.247 328.713 268.596 330.696 269.775 333.119C270.954 335.542 272.246 337.322 272.646 337.075C273.046 336.828 273.999 337.38 274.765 338.303C275.531 339.225 276.857 339.98 277.709 339.98C278.564 339.98 279.262 340.513 279.262 341.166C279.262 341.818 280.783 342.882 282.642 343.53C284.501 344.177 286.023 345.105 286.023 345.59C286.023 347.179 295.858 348.994 304.464 348.994C312.968 348.994 324.332 347.028 324.332 345.558C324.332 345.119 325.917 344.104 327.854 343.302C332.392 341.422 341.547 332.267 343.427 327.728C344.23 325.791 345.263 324.206 345.723 324.206C347.584 324.206 349.382 310.508 348.784 300.888C348.028 288.732 347.831 287.828 345.415 285.412C344.354 284.351 343.486 282.742 343.486 281.838C343.486 280.933 342.725 279.901 341.796 279.545C340.866 279.187 340.106 278.249 340.106 277.457C340.106 276.02 333.758 269.937 328.925 266.743C327.519 265.813 325.671 264.546 324.821 263.926C323.586 263.027 323.243 257.048 323.129 234.319C322.997 208.227 322.258 200.255 319.76 198.012C319.416 197.702 318.421 195.674 317.549 193.505C316.678 191.336 315.058 188.579 313.951 187.377C312.843 186.175 311.937 184.708 311.937 184.116C311.937 182.505 297.196 168.349 293.628 166.533C291.924 165.665 290.529 164.582 290.529 164.123C290.529 163.666 287.994 162.641 284.896 161.847C281.797 161.054 279.262 160.051 279.262 159.622C279.262 157.882 271.674 157.244 242.32 156.519C223.953 156.065 211.25 155.304 210.771 154.629C210.33 154.008 207.828 152.049 205.214 150.275C202.6 148.502 200.159 146.097 199.789 144.932C199.418 143.769 198.262 141.962 197.218 140.919C195.569 139.272 195.273 135.574 194.963 112.738C194.631 88.1889 194.742 86.3997 196.653 85.6707C201.689 83.7473 213.304 71.9673 215.122 66.9398C215.944 64.665 216.977 62.8036 217.417 62.8036C217.855 62.8036 218.836 59.127 219.597 54.6348C221.182 45.2693 219.652 31.2009 216.732 28.2804C215.8 27.3486 215.038 25.9413 215.038 25.1526C215.038 24.3639 213.772 22.2456 212.222 20.4451C210.674 18.6435 209.407 16.5545 209.406 15.8018C209.406 15.0492 208.296 13.8402 206.94 13.1146C205.585 12.389 203.441 10.8307 202.174 9.65099C200.908 8.4713 198.721 7.21724 197.315 6.86457C195.907 6.5119 194.757 5.8122 194.757 5.3108C194.757 2.49059 171.064 1.00555 161.566 3.23085ZM182.363 22.1003C182.363 22.6422 183.847 23.3825 185.661 23.7453C191.407 24.8946 199.264 34.4685 199.264 40.3218C199.264 41.532 199.771 42.5224 200.391 42.5224C201.01 42.5224 201.517 44.0434 201.517 45.9026C201.517 47.7617 201.077 49.2828 200.538 49.2828C200 49.2828 199.253 51.1723 198.877 53.481C198.492 55.8561 197.083 58.5896 195.631 59.7761C194.221 60.9287 193.827 61.4932 194.757 61.0301C195.687 60.5659 195.218 61.536 193.716 63.1855C192.213 64.834 190.529 66.1838 189.973 66.1838C189.417 66.1838 188.232 66.9139 187.34 67.8074C185.194 69.9516 176.853 71.1347 170.546 70.1882C167.765 69.7713 164.759 68.6998 163.865 67.8074C162.973 66.9139 161.826 66.1669 161.317 66.1466C158.91 66.0486 154.16 60.3135 153.728 56.9817C153.675 56.5694 153.25 55.8505 152.786 55.3863C152.322 54.9209 151.941 53.3582 151.941 51.9114C151.941 50.4658 151.434 49.2828 150.814 49.2828C150.195 49.2828 149.688 47.7617 149.688 45.9026C149.688 44.0434 150.195 42.5224 150.814 42.5224C151.434 42.5224 151.941 41.532 151.941 40.3218C151.941 34.3535 159.718 24.9115 165.602 23.7341C167.384 23.378 168.842 22.6422 168.842 22.1003C168.842 21.5583 171.884 21.1144 175.602 21.1144C179.321 21.1144 182.363 21.5583 182.363 22.1003ZM55.088 281.575C60.0062 283.29 68.4815 291.826 69.7874 296.38C71.1226 301.036 71.0877 307.979 69.7029 312.939C68.4162 317.549 60.4468 326.191 56.5877 327.159C55.1184 327.529 53.9151 328.283 53.9151 328.835C53.9151 329.388 50.6194 329.84 46.5913 329.84C42.5632 329.84 39.2675 329.373 39.2675 328.802C39.2675 328.232 37.6732 327.415 35.7239 326.987C31.1719 325.987 25.0921 319.908 24.0927 315.356C23.6645 313.406 22.8476 311.812 22.2775 311.812C21.7062 311.812 21.2398 308.486 21.2398 304.422C21.2398 300.358 21.6848 297.306 22.229 297.643C22.7733 297.979 23.5135 296.78 23.8741 294.977C24.6774 290.961 32.9353 282.802 37.5605 281.456C42.5182 280.012 50.7681 280.069 55.088 281.575ZM184.448 281.501C186.4 282.181 187.997 283.195 187.997 283.754C187.997 284.313 188.693 284.77 189.544 284.77C192.185 284.77 198.136 292.814 198.864 297.368C199.243 299.736 199.994 301.671 200.535 301.671C201.076 301.671 201.517 303.193 201.517 305.052C201.517 306.911 201.01 308.432 200.391 308.432C199.771 308.432 199.264 309.422 199.264 310.632C199.264 316.486 191.407 326.06 185.661 327.209C183.847 327.572 182.363 328.312 182.363 328.854C182.363 329.396 179.321 329.84 175.602 329.84C171.884 329.84 168.842 329.396 168.842 328.854C168.842 328.312 167.384 327.576 165.602 327.22C159.718 326.043 151.941 316.601 151.941 310.632C151.941 309.422 151.434 308.432 150.814 308.432C150.195 308.432 149.688 306.911 149.688 305.052C149.688 303.193 150.195 301.671 150.814 301.671C151.434 301.671 151.941 300.642 151.941 299.382C151.941 293.721 157.9 284.911 161.8 284.808C162.575 284.787 163.208 284.305 163.208 283.737C163.208 280.755 177.878 279.21 184.448 281.501ZM313.064 281.377C317.675 282.663 326.317 290.633 327.285 294.492C327.654 295.961 328.408 297.164 328.96 297.164C329.513 297.164 329.965 300.46 329.965 304.488C329.965 308.516 329.499 311.812 328.927 311.812C328.357 311.812 327.54 313.406 327.112 315.356C326.684 317.304 324.69 320.543 322.679 322.553C320.669 324.564 317.429 326.559 315.481 326.987C313.532 327.415 311.937 328.232 311.937 328.802C311.937 329.373 308.642 329.84 304.614 329.84C300.586 329.84 297.29 329.388 297.29 328.835C297.29 328.283 296.087 327.529 294.617 327.159C290.758 326.191 282.789 317.549 281.502 312.939C280.117 307.979 280.082 301.036 281.418 296.38C282.658 292.052 291.797 282.626 295.974 281.365C300.233 280.079 308.433 280.084 313.064 281.377Z" fill="#E01A4F"/>
<path fill-rule="evenodd" clip-rule="evenodd" d="M162.47 3.19244C151.763 6.29322 137.296 19.0422 135.571 26.8967C135.181 28.6736 134.34 30.1282 133.704 30.1282C133.066 30.1282 132.825 30.856 133.166 31.745C133.508 32.6352 133.233 33.5478 132.555 33.7732C130.869 34.3354 130.764 57.4346 132.444 57.9946C133.12 58.2199 133.415 59.394 133.099 60.6041C132.782 61.8142 133.035 62.8035 133.66 62.8035C134.284 62.8035 135.083 63.9449 135.434 65.3386C136.472 69.4546 147.053 81.958 149.499 81.958C150.161 81.958 151.107 82.6295 151.603 83.4509C152.099 84.2723 153.418 85.2807 154.534 85.692C156.424 86.3872 156.54 88.2711 156.224 113.119C155.968 133.215 155.538 139.915 154.476 140.268C153.702 140.526 153.068 141.454 153.068 142.332C153.068 143.211 151.04 145.957 148.561 148.435C146.082 150.914 143.336 152.942 142.457 152.942C141.58 152.942 140.651 153.576 140.393 154.351C140.041 155.411 132.422 155.908 109.596 156.361C92.9149 156.691 78.5062 157.439 77.5766 158.023C76.647 158.606 74.9434 158.928 73.7919 158.738C72.6392 158.548 71.9801 158.852 72.3272 159.412C72.6731 159.973 70.4477 161.075 67.3796 161.862C64.3127 162.648 61.8023 163.69 61.8023 164.177C61.8023 164.665 60.1798 165.735 58.1979 166.556C53.5456 168.483 40.1679 181.719 38.0778 186.463C37.1899 188.477 36.1206 190.125 35.6992 190.125C35.279 190.125 34.3235 192.026 33.5742 194.35C32.8261 196.674 31.7106 199.209 31.0954 199.983C30.4813 200.759 30.3551 201.392 30.8171 201.392C31.2791 201.392 30.9602 202.229 30.1095 203.253C28.9073 204.7 28.4825 211.707 28.1997 234.752C27.8481 263.362 27.7558 264.415 25.553 265.114C24.2978 265.512 22.3429 266.676 21.2094 267.699C17.4754 271.069 15.6062 272.473 15.6062 271.909C15.6062 271.602 14.3285 272.63 12.7679 274.19C11.2063 275.752 10.2226 277.503 10.5809 278.083C10.9392 278.662 10.6688 279.137 9.98038 279.137C9.29195 279.137 8.19789 280.658 7.55002 282.517C6.90214 284.376 6.00188 285.897 5.54894 285.897C4.14615 285.897 2.08535 296.975 2.08535 304.519C2.08535 312.174 3.99291 323.079 5.3326 323.079C5.77654 323.079 6.74328 324.728 7.48016 326.741C9.6311 332.614 20.1199 342.73 25.4651 344.087C26.8589 344.442 28.0003 345.238 28.0003 345.856C28.0003 346.476 28.7281 346.702 29.6171 346.361C30.5072 346.02 31.394 346.192 31.5889 346.744C31.7838 347.295 35.9449 348.24 40.836 348.844C45.9525 349.476 50.1214 350.578 50.6544 351.44C51.8465 353.37 77.2307 353.6 78.4622 351.693C78.905 351.008 81.1686 349.828 83.492 349.07C85.8153 348.312 87.7172 347.195 87.7172 346.586C87.7172 345.979 88.1995 345.78 88.7899 346.144C90.2073 347.02 102.208 334.499 103.067 331.248C103.434 329.853 104.108 328.713 104.562 328.713C105.72 328.713 107.7 321.443 108.6 313.879C109.445 306.79 107.436 292.275 105.31 290.096C104.568 289.336 103.285 287.067 102.462 285.052C101.638 283.037 100.508 281.39 99.9502 281.39C99.3925 281.39 98.3592 280.123 97.6528 278.573C96.9474 277.024 95.7193 275.756 94.9238 275.756C94.1295 275.756 92.8157 274.846 92.0067 273.733C90.347 271.453 83.2768 267.869 80.4385 267.869C79.4109 267.869 78.8442 267.426 79.1777 266.887C79.8087 265.866 73.6736 264.523 68.281 264.501L65.1825 264.489L65.1893 241.109C65.1949 218.616 66.2281 209.279 68.7092 209.279C69.3514 209.279 69.6782 208.681 69.4337 207.948C68.9312 206.441 77.4256 198.012 79.4481 198.012C80.1749 198.012 80.9793 197.377 81.2374 196.603C81.59 195.543 89.2406 195.046 112.19 194.593C133.549 194.171 143.165 193.584 144.313 192.63C145.215 191.882 146.313 191.632 146.754 192.074C147.195 192.515 147.91 192.321 148.34 191.642C148.772 190.963 150.773 190.05 152.786 189.613L156.448 188.819V226.689C156.448 261.73 156.3 264.614 154.476 265.285C153.391 265.683 152.099 266.682 151.603 267.503C151.107 268.324 150.161 268.996 149.499 268.996C148.838 268.996 146.455 270.988 144.204 273.422C138.308 279.796 137.441 280.947 135.903 284.446C135.144 286.174 134.16 287.853 133.716 288.179C130.958 290.203 130.13 317.446 132.827 317.446C133.308 317.446 133.416 318.539 133.067 319.875C132.656 321.447 132.86 322.04 133.644 321.556C134.362 321.112 135.153 322.153 135.581 324.103C136.249 327.147 137.273 328.676 142.813 334.91C149.985 342.98 159.234 347.658 170.527 348.924C175.71 349.506 179.662 350.524 180.217 351.421C181.412 353.356 205.668 353.612 206.91 351.703C207.353 351.023 209.236 350.104 211.095 349.66C217.507 348.127 227.372 340.237 230.721 333.961C231.6 332.314 232.694 330.966 233.153 330.966C233.61 330.966 234.634 328.431 235.429 325.333C236.222 322.234 237.157 319.699 237.504 319.699C237.852 319.699 238.136 314.882 238.136 308.995C238.136 303.108 237.756 298.291 237.291 298.291C236.827 298.291 236.446 297.348 236.446 296.197C236.446 292.599 230.071 281.953 224.7 276.582C221.804 273.687 217.219 270.563 214.2 269.431C211.252 268.326 208.54 266.987 208.172 266.455C207.805 265.925 204.635 265.193 201.13 264.832L194.757 264.174V226.464V188.753L197.844 189.529C199.542 189.954 201.266 190.843 201.674 191.505C202.083 192.166 203.167 192.419 204.083 192.067C205 191.715 206.325 192.003 207.029 192.707C207.89 193.568 218.326 194.184 238.905 194.591C261.941 195.046 269.615 195.543 269.968 196.603C270.226 197.377 271.07 198.012 271.845 198.012C273.727 198.012 281.516 205.876 281.516 207.777C281.516 208.603 281.999 209.279 282.589 209.279C284.976 209.279 286.01 218.891 286.016 241.109C286.019 253.968 285.594 264.489 285.072 264.489C284.548 264.489 282.647 265.756 280.846 267.305C279.045 268.853 277.269 270.12 276.899 270.122C275.566 270.124 271.734 274.141 269.643 277.728C268.469 279.742 267.132 281.39 266.671 281.39C266.209 281.39 265.224 283.418 264.482 285.897C263.739 288.376 262.65 290.404 262.06 290.404C261.472 290.404 261.301 291.64 261.679 293.152C262.059 294.663 261.861 296.215 261.239 296.599C259.797 297.49 259.748 312.584 261.185 313.472C261.777 313.838 261.958 314.933 261.585 315.905C261.211 316.878 261.363 318.002 261.922 318.404C262.479 318.807 263.619 321.088 264.453 323.475C265.287 325.862 266.806 328.741 267.827 329.874C271.442 333.878 272.582 335.473 271.831 335.473C271.413 335.473 272.36 336.487 273.936 337.727C275.511 338.966 277.355 339.98 278.032 339.98C278.708 339.98 279.262 340.513 279.262 341.166C279.262 341.818 280.783 342.882 282.642 343.53C284.501 344.177 286.023 345.22 286.023 345.845C286.023 346.47 286.721 346.714 287.575 346.386C288.429 346.058 289.723 346.385 290.451 347.11C292.305 348.964 318.904 348.941 319.523 347.086C319.768 346.346 320.698 346.02 321.588 346.361C322.477 346.702 323.205 346.476 323.205 345.856C323.205 345.238 324.345 344.442 325.74 344.087C331.508 342.622 342.748 331.382 344.213 325.614C344.568 324.22 345.363 323.079 345.982 323.079C346.601 323.079 346.828 322.351 346.487 321.462C346.145 320.572 346.472 319.643 347.211 319.397C349.067 318.779 349.089 292.18 347.236 290.325C346.51 289.597 346.183 288.304 346.511 287.45C346.839 286.596 346.58 285.897 345.936 285.897C345.292 285.897 344.412 284.757 343.983 283.362C343.553 281.967 342.55 280.066 341.755 279.137C337.048 273.633 332.086 269.105 330.051 268.46C328.764 268.052 327.712 267.279 327.712 266.743C327.712 266.206 326.735 265.458 325.541 265.078C323.482 264.425 323.351 262.853 323.005 234.635C322.751 213.829 322.245 204.485 321.321 203.563C320.595 202.838 320.269 201.545 320.596 200.691C320.924 199.837 320.711 199.138 320.123 199.138C319.535 199.138 318.447 197.11 317.704 194.632C316.962 192.153 315.992 190.125 315.548 190.125C315.104 190.125 314.017 188.477 313.132 186.463C311.107 181.854 297.433 168.389 292.847 166.49C290.953 165.705 289.403 164.683 289.403 164.22C289.403 163.756 287.121 162.737 284.332 161.956C281.544 161.175 279.262 160.041 279.262 159.436C279.262 158.831 278.437 158.651 277.429 159.038C276.422 159.426 274.843 159.117 273.923 158.353C272.73 157.362 263.524 156.79 241.911 156.361C223.481 155.996 211.258 155.313 210.77 154.621C210.33 153.996 208.142 152.527 205.909 151.357C203.655 150.175 200.905 147.425 199.723 145.17C198.553 142.938 197.084 140.751 196.458 140.309C195.764 139.82 195.187 129.151 194.981 112.973C194.665 88.2655 194.781 86.3872 196.671 85.692C197.787 85.2807 199.106 84.2723 199.602 83.4509C200.098 82.6295 201.024 81.958 201.662 81.958C204.044 81.958 214.764 69.3284 215.771 65.3386C216.122 63.9449 216.915 62.8035 217.534 62.8035C218.154 62.8035 218.391 62.1049 218.064 61.2509C217.736 60.3968 218.035 59.1303 218.728 58.4374C220.413 56.7529 220.343 34.3377 218.651 33.7732C217.972 33.5478 217.697 32.6352 218.039 31.745C218.38 30.856 218.139 30.1282 217.501 30.1282C216.865 30.1282 216.02 28.6488 215.622 26.8404C214.956 23.8072 213.931 22.2771 208.392 16.044C205.523 12.8159 201.004 9.1247 197.951 7.51573C196.505 6.75293 195.067 5.78055 194.757 5.35352C192.639 2.43753 170.251 0.938973 162.47 3.19244ZM183.49 22.3345C183.49 23.0061 184.113 23.3475 184.873 23.094C186.423 22.5779 187.402 23.2607 193.648 29.22C196.433 31.8769 198.284 34.8323 198.764 37.3889C199.176 39.5927 199.966 41.3955 200.516 41.3955C201.067 41.3955 201.517 43.4236 201.517 45.9025C201.517 48.3813 201.115 50.4094 200.624 50.4094C200.133 50.4094 199.15 52.584 198.439 55.2408C197.192 59.9055 191.103 67.787 189.773 66.4586C189.416 66.1003 189.123 66.3764 189.123 67.0693C189.123 70.1307 174.323 71.7306 166.389 69.5278C160.712 67.9504 154.403 61.3613 152.787 55.3197C152.065 52.6189 151.072 50.4094 150.581 50.4094C150.09 50.4094 149.688 48.3813 149.688 45.9025C149.688 43.4236 150.138 41.3955 150.689 41.3955C151.239 41.3955 152.02 39.6412 152.422 37.4959C153.197 33.3619 160.296 24.4945 162.83 24.4945C163.658 24.4945 164.335 24.0032 164.335 23.4027C164.335 22.8033 165.096 22.6038 166.025 22.9599C166.955 23.3171 167.715 23.0478 167.715 22.3616C167.715 21.5684 170.587 21.1143 175.603 21.1143C180.514 21.1143 183.49 21.5751 183.49 22.3345ZM55.0881 281.384C59.9736 282.742 68.3002 291.195 69.7582 296.278C71.7739 303.305 70.0816 318.572 67.2861 318.572C66.7814 318.572 65.6287 320.001 64.7262 321.746C63.6524 323.823 61.4981 325.444 58.4999 326.434C55.9782 327.266 53.9152 328.373 53.9152 328.893C53.9152 329.414 50.3659 329.84 46.028 329.84C41.6901 329.84 38.1409 329.388 38.1409 328.835C38.1409 328.283 36.9127 327.522 35.4108 327.146C31.2588 326.103 26.0172 321.169 24.4465 316.827C23.6736 314.688 22.6359 312.939 22.1401 312.939C21.6455 312.939 21.2398 309.389 21.2398 305.052C21.2398 300.036 21.6939 297.164 22.4871 297.164C23.1733 297.164 23.4426 296.404 23.0854 295.474C22.7294 294.545 22.8669 293.784 23.3919 293.784C23.917 293.784 24.9772 292.263 25.7468 290.404C26.5163 288.545 27.5924 287.024 28.1366 287.024C28.6819 287.024 30.078 286.073 31.2396 284.911C35.5415 280.609 46.4776 278.992 55.0881 281.384ZM184.741 281.406C188.089 282.337 197.338 289.277 195.229 289.277C194.881 289.277 195.417 290.099 196.422 291.104C197.426 292.108 198.539 294.389 198.897 296.174C199.254 297.958 199.99 299.418 200.532 299.418C201.074 299.418 201.517 301.699 201.517 304.488C201.517 307.277 201.067 309.558 200.516 309.558C199.966 309.558 199.176 311.361 198.764 313.565C197.895 318.19 190.718 326.017 186.335 327.116C184.77 327.51 183.49 328.283 183.49 328.835C183.49 329.388 179.94 329.84 175.603 329.84C171.265 329.84 167.715 329.388 167.715 328.835C167.715 328.283 166.435 327.51 164.87 327.116C160.487 326.017 153.31 318.19 152.441 313.565C152.029 311.361 151.239 309.558 150.689 309.558C150.138 309.558 149.688 307.246 149.688 304.422C149.688 301.284 150.126 299.555 150.814 299.981C151.434 300.364 151.941 299.608 151.941 298.301C151.941 292.6 158.866 284.134 165.461 281.774C170.273 280.052 179.25 279.88 184.741 281.406ZM314.192 281.559C316.237 282.272 318.848 283.793 319.994 284.939C321.141 286.086 322.534 287.024 323.093 287.024C323.651 287.024 325.046 289.303 326.192 292.09C327.338 294.876 328.655 297.158 329.12 297.16C329.586 297.162 329.965 300.714 329.965 305.052C329.965 309.389 329.513 312.939 328.96 312.939C328.408 312.939 327.63 314.241 327.23 315.834C326.293 319.566 319.692 326.168 315.96 327.104C314.367 327.504 313.064 328.283 313.064 328.835C313.064 329.388 309.515 329.84 305.177 329.84C300.839 329.84 297.29 329.414 297.29 328.893C297.29 328.373 295.227 327.266 292.705 326.434C289.707 325.444 287.553 323.823 286.479 321.746C285.576 320.001 284.424 318.572 283.919 318.572C281.077 318.572 279.454 303.392 281.506 296.006C282.818 291.282 291.05 282.828 295.69 281.441C300.489 280.006 309.909 280.066 314.192 281.559Z" fill="#E01A4F"/>
<path fill-rule="evenodd" clip-rule="evenodd" d="M164.902 2.72389C163.045 3.03487 161.27 3.6388 160.958 4.0647C160.646 4.49061 158.279 5.77058 155.697 6.90858C147.902 10.3451 135.135 24.0079 135.054 29.0016C135.039 29.9312 134.268 32.1441 133.343 33.9187C131.284 37.869 130.93 57.17 132.918 57.17C133.622 57.17 133.917 58.1638 133.587 59.4235C133.263 60.6629 133.356 61.6769 133.793 61.6769C134.23 61.6769 135.185 63.3242 135.917 65.3388C137.653 70.1252 146.697 80.3976 151.21 82.7086C153.161 83.708 155.131 85.0893 155.586 85.7778C156.837 87.6673 156.613 136.589 155.338 139.941C153.531 144.693 147.959 150.761 141.8 154.683C140.472 155.529 108.84 157.051 82.3652 157.542C80.3518 157.579 78.7033 158.14 78.7033 158.788C78.7033 159.437 77.438 159.724 75.8865 159.427C74.3372 159.131 73.0697 159.325 73.0697 159.859C73.0697 160.392 72.3902 160.83 71.5598 160.83C70.7294 160.83 66.8963 162.405 63.0417 164.332C55.1647 168.267 44.6827 177.439 39.7453 184.715C37.9369 187.381 35.9482 189.934 35.3274 190.39C34.7055 190.845 34.6063 191.224 35.1066 191.235C35.6057 191.244 35.226 192.378 34.2615 193.756C33.297 195.133 32.5072 196.875 32.5072 197.625C32.5072 198.377 31.9078 200.42 31.1754 202.164C28.9523 207.46 28.8363 208.896 28.3541 237.187L27.8876 264.532L23.1553 267.464C17.4901 270.974 9.42716 279.377 7.45988 283.822C6.68018 285.583 5.62893 287.024 5.12415 287.024C4.61938 287.024 4.55403 287.587 4.97993 288.277C5.40584 288.965 5.05542 289.961 4.20136 290.489C3.03744 291.208 2.64872 294.492 2.64872 303.602C2.64872 313.873 3.04195 316.583 5.18387 321.095C6.57764 324.033 7.71903 326.694 7.71903 327.011C7.71903 327.795 10.5392 331.083 15.2682 335.812C21.3266 341.87 22.9209 343.011 27.6048 344.649C29.9912 345.483 32.1996 346.504 32.5128 346.918C32.8261 347.332 37.1358 348.234 42.0901 348.921C47.0443 349.608 51.2673 350.666 51.4735 351.272C51.6797 351.875 53.0183 352.077 54.4492 351.718C55.8791 351.359 57.3878 351.613 57.8024 352.283C58.7883 353.878 70.4579 353.865 71.4449 352.269C71.864 351.59 73.4156 351.267 74.8916 351.549C76.3687 351.831 77.5766 351.749 77.5766 351.366C77.5766 350.983 79.6408 350.025 82.1635 349.238C87.342 347.622 87.9009 347.225 96.01 339.41C99.2291 336.308 102.581 331.999 103.459 329.833C104.335 327.668 105.45 325.621 105.933 325.284C107.871 323.937 109.151 308.327 107.944 300.769C107.286 296.649 106.366 293.011 105.9 292.686C105.435 292.36 104.334 290.32 103.455 288.151C101.95 284.435 93.5436 275.263 87.7555 271.022C86.3156 269.966 83.6903 268.785 81.9202 268.397C80.1512 268.008 78.7033 267.214 78.7033 266.631C78.7033 266.05 77.4358 265.891 75.8865 266.28C74.1513 266.716 73.0697 266.507 73.0697 265.738C73.0697 265.047 71.1846 264.488 68.8444 264.487L64.6191 264.486L64.742 240.412C64.8096 227.172 65.1194 215.891 65.4315 215.344C65.7425 214.797 66.3622 212.833 66.8061 210.978C67.5937 207.697 68.3148 206.637 72.9367 201.955C75.4268 199.433 77.3321 197.862 79.8301 196.271C80.7596 195.68 93.6889 194.813 108.562 194.345C123.435 193.879 137.125 193.436 138.984 193.362C140.843 193.287 142.617 192.901 142.927 192.502C143.237 192.103 146.013 191.123 149.097 190.324C152.181 189.524 155.088 188.266 155.559 187.525C156.029 186.786 156.413 203.674 156.413 225.054C156.413 246.433 156.041 264.489 155.586 265.177C155.131 265.865 153.211 267.22 151.319 268.189C144.19 271.84 134.015 285.668 133.938 291.813C133.925 292.896 133.406 293.784 132.787 293.784C132.111 293.784 131.66 298.291 131.66 305.052C131.66 311.249 132.104 316.319 132.646 316.319C133.188 316.319 133.958 317.954 134.358 319.953C135.979 328.053 147.495 340.826 156.448 344.452C158.617 345.33 160.656 346.429 160.98 346.891C161.303 347.354 165.866 348.272 171.12 348.93C176.374 349.589 180.817 350.559 180.994 351.088C181.171 351.615 182.505 351.819 183.961 351.541C185.415 351.264 186.949 351.59 187.368 352.269C188.359 353.874 200.028 353.874 201.019 352.269C201.439 351.59 202.99 351.267 204.466 351.549C205.943 351.831 207.151 351.681 207.151 351.214C207.151 350.748 208.546 350.019 210.25 349.594C214.787 348.465 224.392 341.789 227.65 337.503C231.558 332.359 236.446 322.94 236.446 320.553C236.446 319.464 236.827 318.573 237.291 318.573C237.756 318.573 238.136 314.263 238.136 308.995C238.136 303.728 237.821 299.418 237.436 299.418C237.05 299.418 236.41 297.39 236.014 294.911C235.617 292.432 234.889 290.404 234.397 290.404C233.903 290.404 232.628 288.428 231.562 286.012C229.811 282.044 224.31 276.274 217.229 270.978C215.786 269.9 212.929 268.702 210.878 268.318C208.829 267.934 207.151 267.216 207.151 266.722C207.151 266.23 206.195 266.077 205.025 266.383C203.855 266.689 202.557 266.388 202.142 265.714C201.725 265.04 199.767 264.489 197.789 264.489L194.194 264.49L194.505 226.241L194.815 187.992L199.434 189.621C201.975 190.518 205.005 191.251 206.166 191.251C207.328 191.251 208.278 191.738 208.278 192.333C208.278 192.928 209.673 193.433 211.376 193.455C213.08 193.477 227.044 193.878 242.404 194.345C265.353 195.044 270.524 195.496 271.401 196.885C271.987 197.815 272.491 198.068 272.519 197.449C272.547 196.829 273.087 197.209 273.719 198.294C274.351 199.379 275.585 200.265 276.462 200.265C277.339 200.265 278.655 201.406 279.387 202.8C280.119 204.194 281.365 205.719 282.156 206.187C282.947 206.656 283.946 208.684 284.376 210.694C284.808 212.704 285.429 214.8 285.756 215.351C286.514 216.63 286.07 263.056 285.279 265.116C284.953 265.963 283.593 266.983 282.257 267.382C279.323 268.257 267.995 279.065 267.995 280.989C267.995 281.741 267.327 283.026 266.511 283.845C264.63 285.732 262.361 292.182 262.361 295.642C262.361 297.099 261.854 298.291 261.234 298.291C260.608 298.291 260.108 301.296 260.108 305.052C260.108 309.267 260.58 311.812 261.362 311.812C262.116 311.812 262.419 313.163 262.121 315.192C261.848 317.051 261.989 318.573 262.434 318.573C262.879 318.573 263.593 319.962 264.019 321.66C264.444 323.358 265.139 325.005 265.56 325.322C265.981 325.637 267.707 328.029 269.398 330.636C272.674 335.692 282.494 343.678 287.149 345.073C288.699 345.538 290.328 346.483 290.771 347.175C291.824 348.822 317.333 348.897 318.457 347.257C318.9 346.611 321.442 345.381 324.105 344.523C326.769 343.666 329.304 342.407 329.739 341.727C330.174 341.046 331.911 339.611 333.601 338.536C337.102 336.31 345.74 323.615 345.74 320.695C345.74 319.632 346.374 318.549 347.148 318.291C349.005 317.671 349.157 291.836 347.311 290.644C346.626 290.202 345.448 287.943 344.692 285.623C343.067 280.641 334.006 270.723 328.006 267.36L323.768 264.984L323.044 237.977C322.273 209.281 322.092 207.129 320.021 202.164C319.293 200.42 318.698 198.377 318.698 197.625C318.698 196.875 317.908 195.133 316.944 193.756C315.979 192.378 315.508 191.251 315.898 191.251C316.287 191.251 315.935 190.553 315.116 189.7C314.298 188.846 312.867 186.944 311.938 185.475C309.858 182.185 297.556 169.794 294.473 167.884C289.282 164.666 281.282 160.83 279.766 160.83C278.869 160.83 278.135 160.392 278.135 159.859C278.135 159.325 276.868 159.131 275.319 159.427C273.767 159.724 272.502 159.437 272.502 158.788C272.502 158.14 270.853 157.579 268.84 157.542C242.365 157.051 210.733 155.529 209.405 154.683C203.246 150.761 197.674 144.693 195.867 139.941C194.593 136.589 194.368 87.6673 195.619 85.7778C196.074 85.0893 198.037 83.7113 199.979 82.7164C206.67 79.29 217.292 64.7799 217.292 59.0674C217.292 58.024 217.741 57.17 218.29 57.17C219.917 57.17 219.407 36.8775 217.696 33.5998C216.861 31.9998 216.166 29.9312 216.152 29.0016C216.065 23.671 202.786 9.72429 194.757 6.53113C192.588 5.66805 190.178 4.47709 189.401 3.8833C187.824 2.67882 170.156 1.84278 164.902 2.72389ZM184.881 22.6795C185.336 23.3679 185.716 23.5167 185.726 23.0096C185.748 21.8536 192.383 26.4879 195.078 29.5402C197.56 32.3525 199.702 36.9778 199.396 38.8605C199.268 39.6357 199.694 40.269 200.341 40.269C201.016 40.269 201.517 42.9123 201.517 46.466C201.517 49.8744 201.026 52.663 200.426 52.663C199.826 52.663 199.627 53.4236 199.983 54.3531C200.34 55.2827 200.071 56.0432 199.385 56.0432C198.698 56.0432 198.137 56.8027 198.137 57.73C198.137 59.5395 190.599 68.4373 189.066 68.4373C188.559 68.4373 186.716 69.0086 184.971 69.7072C183.227 70.4057 179.011 70.977 175.603 70.977C172.194 70.977 167.978 70.4057 166.234 69.7072C164.49 69.0086 162.646 68.4373 162.139 68.4373C160.606 68.4373 153.068 59.5395 153.068 57.73C153.068 56.8027 152.507 56.0432 151.821 56.0432C151.134 56.0432 150.865 55.2827 151.222 54.3531C151.578 53.4236 151.379 52.663 150.779 52.663C150.179 52.663 149.688 49.8744 149.688 46.466C149.688 42.9123 150.189 40.269 150.864 40.269C151.511 40.269 151.937 39.6357 151.809 38.8605C151.484 36.8662 153.587 32.2252 156.047 29.512C159.136 26.1025 165.046 22.2006 165.871 23.0254C166.265 23.4209 166.589 23.1843 166.589 22.5003C166.589 19.9066 183.155 20.0688 184.881 22.6795ZM53.9152 280.401C53.9152 280.811 55.3089 281.488 57.0137 281.907C61.1725 282.929 68.2934 289.995 69.1655 293.965C69.552 295.725 70.2089 297.165 70.6235 297.165C71.0393 297.165 71.3796 300.714 71.3796 305.052C71.3796 309.39 71.1012 312.939 70.761 312.939C70.4207 312.939 69.5092 314.689 68.7362 316.827C67.9633 318.965 65.7064 322.015 63.7211 323.605C61.7358 325.193 59.488 327.004 58.7241 327.629C55.1647 330.54 37.0141 331.323 37.0141 328.564C37.0141 328.027 36.6344 327.702 36.1691 327.844C35.7037 327.986 33.6486 327.101 31.6002 325.875C26.8555 323.037 21.7176 314.88 20.8027 308.736C20.0658 303.783 21.5824 294.633 23.526 292.307C24.1412 291.57 25.7175 289.538 27.0301 287.789C30.6886 282.916 38.5352 279.704 46.8449 279.679C50.7333 279.666 53.9152 279.992 53.9152 280.401ZM183.49 280.434C183.49 280.862 184.934 281.529 186.7 281.916C191.5 282.97 201.439 294.557 199.808 297.196C199.435 297.799 199.668 298.291 200.324 298.291C201.019 298.291 201.517 300.878 201.517 304.488C201.517 308.042 201.016 310.685 200.341 310.685C199.694 310.685 199.268 311.32 199.396 312.094C199.702 313.977 197.56 318.602 195.078 321.414C192.383 324.466 185.748 329.101 185.726 327.945C185.716 327.438 185.26 327.732 184.712 328.597C184.009 329.707 181.322 330.171 175.603 330.171C169.883 330.171 167.196 329.707 166.493 328.597C165.945 327.732 165.489 327.438 165.479 327.945C165.429 330.617 153.072 319.321 153.069 316.601C153.069 315.827 152.527 315.192 151.866 315.192C151.175 315.192 150.968 314.231 151.378 312.939C151.788 311.646 151.581 310.685 150.89 310.685C150.183 310.685 149.688 308.129 149.688 304.488C149.688 300.878 150.186 298.291 150.881 298.291C151.537 298.291 151.77 297.799 151.397 297.196C149.769 294.561 159.703 282.971 164.493 281.919C166.251 281.533 167.901 280.875 168.16 280.458C168.782 279.456 183.49 279.432 183.49 280.434ZM316.167 281.942C318.803 283.015 322.234 285.484 323.79 287.43C325.346 289.375 327.129 291.592 327.755 292.356C329.543 294.543 331.054 304.385 330.334 309.159C329.367 315.575 324.488 322.7 318.345 326.665C313.619 329.716 311.891 330.176 304.903 330.24C299.552 330.288 296.732 329.857 296.428 328.943C296.177 328.189 295.513 327.855 294.954 328.201C294.395 328.546 293.298 328.303 292.516 327.661C291.733 327.019 289.469 325.193 287.484 323.605C285.499 322.015 283.242 318.965 282.469 316.827C281.696 314.689 280.784 312.939 280.444 312.939C280.104 312.939 279.826 309.39 279.826 305.052C279.826 300.714 280.151 297.165 280.549 297.165C280.946 297.165 281.614 295.77 282.033 294.066C283.055 289.907 290.121 282.786 294.09 281.914C295.85 281.528 297.29 280.854 297.29 280.418C297.29 278.878 311.438 280.02 316.167 281.942Z" fill="#E01A4F"/>
<path fill-rule="evenodd" clip-rule="evenodd" d="M168.253 3.12942C168.014 3.51589 165.007 4.46122 161.57 5.22966C158.134 5.99922 155.321 7.03807 155.321 7.53721C155.321 8.03748 153.872 9.04704 152.101 9.78054C147.537 11.6712 141.474 18.302 137.101 26.1847C133.461 32.7457 133.35 33.3259 133.35 45.9025C133.35 57.9518 133.575 59.2938 136.565 65.057C140.465 72.5769 144.955 77.4466 152.786 82.6533L158.702 86.5856V108.993C158.702 123.3 158.278 131.663 157.529 132.126C156.884 132.525 156.633 133.723 156.971 134.787C159.019 141.241 142.07 158.543 134.871 157.347C134.034 157.208 132.59 157.408 131.66 157.792C130.73 158.175 117.801 158.639 102.928 158.823C78.2528 159.128 75.4427 159.364 70.8163 161.518C68.0276 162.816 64.8435 164.196 63.7404 164.585C59.7033 166.008 47.5932 175.944 43.0648 181.548C37.1833 188.827 31.8989 199.339 30.8251 205.899C30.3676 208.688 29.7299 211.412 29.4077 211.954C29.0854 212.495 28.922 224.542 29.0449 238.725L29.268 264.513L25.6872 266.473C16.4919 271.506 4.33894 287.401 4.33894 294.396C4.33894 295.845 3.9367 297.279 3.44544 297.584C2.47758 298.182 2.50574 310.184 3.48262 312.939C3.81163 313.868 4.68598 316.847 5.42511 319.558C6.16313 322.27 7.25381 325.059 7.8476 325.755C8.44251 326.453 10.4594 329.157 12.3297 331.764C16.3297 337.338 27.9914 345.312 33.625 346.324C35.7985 346.715 38.1906 347.521 38.9398 348.114C39.6891 348.708 41.7961 348.866 43.6214 348.465C45.4997 348.052 47.2518 348.239 47.6574 348.895C48.0518 349.534 50.9001 350.39 53.9874 350.8C57.0735 351.209 59.8712 351.985 60.2036 352.523C60.9878 353.791 68.2462 353.798 69.0293 352.532C69.3583 351.998 71.8732 351.255 74.6168 350.878C79.6905 350.183 89.51 345.116 94.3087 340.717C98.3605 337.002 104.52 327.23 105.316 323.255C105.707 321.299 106.399 319.699 106.854 319.699C107.309 319.699 107.635 314.882 107.576 308.995C107.519 303.108 107.083 298.291 106.608 298.291C106.134 298.291 105.745 297.411 105.745 296.335C105.745 290.081 90.8756 271.25 85.936 271.25C85.0571 271.25 84.3371 270.743 84.3371 270.123C84.3371 269.503 83.9563 269.078 83.4921 269.177C83.0279 269.278 81.2195 268.771 79.4753 268.051C77.7311 267.332 75.0686 266.743 73.5599 266.743C72.0512 266.743 70.8163 266.248 70.8163 265.644C70.8163 265.024 69.3425 264.841 67.4361 265.222L64.0559 265.898V240.107C64.0559 216.082 64.2181 214.008 66.422 209.826C69.658 203.686 75.0427 198.259 79.4978 196.648C81.5395 195.909 83.2104 194.864 83.2104 194.325C83.2104 193.785 84.3518 193.455 85.7456 193.592C87.1393 193.728 89.0413 193.531 89.9708 193.152C90.9004 192.775 103.83 192.295 118.703 192.087C141.102 191.774 146.324 191.393 149.124 189.867C150.984 188.854 153.9 187.681 155.603 187.262L158.702 186.5V225.396V264.291L151.793 269.007C143.519 274.655 140.764 277.706 136.543 285.897C133.581 291.646 133.35 293.032 133.35 305.052C133.35 316.646 133.646 318.592 136.167 323.544C139.776 330.634 147.532 339.281 151.912 341.095C153.787 341.872 155.321 342.902 155.321 343.385C155.321 343.868 157.984 344.886 161.237 345.649C164.49 346.412 167.765 347.522 168.514 348.114C169.264 348.708 171.371 348.866 173.196 348.465C175.074 348.052 176.826 348.239 177.232 348.895C177.626 349.534 180.475 350.39 183.562 350.8C186.648 351.209 189.446 351.985 189.778 352.523C190.562 353.791 197.821 353.798 198.604 352.532C198.933 351.998 201.439 351.256 204.172 350.882C212.422 349.75 223.178 342.384 229.677 333.41C231.542 330.838 233.066 328.508 233.066 328.233C233.066 327.958 233.645 326.305 234.352 324.561C236.846 318.411 238.382 304.016 236.891 300.769C236.407 299.717 235.935 298.348 235.841 297.728C235.748 297.108 235.085 295.174 234.369 293.429C233.652 291.685 233.066 289.829 233.066 289.308C233.066 288.785 230.769 285.538 227.962 282.091C222.213 275.034 211.178 267.91 204.616 267.019C202.293 266.704 200.391 266.058 200.391 265.583C200.391 265.109 198.742 264.794 196.729 264.887L193.067 265.053L192.77 226.816C192.607 205.784 192.905 188.146 193.432 187.619C193.959 187.091 195.867 187.271 197.672 188.017C199.477 188.762 201.208 189.423 201.518 189.485C201.827 189.546 202.841 190.095 203.771 190.705C204.724 191.331 217.252 191.957 232.503 192.14C247.376 192.318 260.305 192.775 261.235 193.152C262.164 193.531 264.065 193.728 265.46 193.592C266.855 193.455 267.995 193.887 267.995 194.55C267.995 195.215 268.938 195.758 270.09 195.758C272.96 195.758 282.493 204.345 283.331 207.688C283.706 209.182 284.52 210.406 285.138 210.406C285.758 210.406 285.972 211.166 285.615 212.096C285.259 213.026 285.458 213.786 286.058 213.786C286.73 213.786 287.149 223.717 287.149 239.648V265.51L283.282 267.345C278.381 269.671 268.255 280.309 266.703 284.761C266.052 286.626 265.081 288.151 264.544 288.151C264.005 288.151 263.229 290.686 262.819 293.784C262.407 296.883 261.756 299.418 261.371 299.418C260.987 299.418 260.671 301.7 260.671 304.488C260.671 307.277 260.982 309.559 261.363 309.559C261.744 309.559 262.353 311.732 262.717 314.39C263.554 320.496 268.28 329.008 274.236 335.135C279.351 340.4 290.436 346.741 294.522 346.741C295.971 346.741 297.443 347.204 297.794 347.771C298.54 348.977 309.578 348.474 315.455 346.965C322.51 345.153 329.928 340.823 335.468 335.282C341.104 329.647 346.866 319.658 346.866 315.525C346.866 314.176 347.306 312.8 347.843 312.468C348.99 311.759 348.835 298.757 347.665 297.587C347.226 297.149 346.866 295.677 346.866 294.318C346.866 287.516 336.149 273.343 326.306 267.129L321.97 264.392L322.119 238.807C322.201 224.736 322.003 212.462 321.677 211.533C321.351 210.603 320.512 206.927 319.811 203.364C319.112 199.8 318.17 196.885 317.718 196.885C317.266 196.885 316.255 195.11 315.471 192.943C312.456 184.604 295.473 167.407 287.465 164.585C286.362 164.196 283.178 162.816 280.389 161.518C275.763 159.364 272.953 159.128 248.277 158.823C233.404 158.639 220.475 158.175 219.545 157.792C218.616 157.408 217.171 157.208 216.334 157.347C209.135 158.543 192.186 141.241 194.234 134.787C194.572 133.723 194.321 132.525 193.677 132.126C192.927 131.664 192.504 123.313 192.504 109.032V86.6633L199.413 81.9468C207.686 76.2996 210.441 73.2484 214.662 65.057C217.64 59.2769 217.851 57.9879 217.791 45.9025C217.753 38.2362 217.171 31.7947 216.368 30.1283C211.877 20.8113 204.399 11.9743 199.176 9.81096C197.366 9.06056 195.884 8.05213 195.884 7.56876C195.884 7.08652 193.221 6.06682 189.969 5.30402C186.716 4.5401 183.546 3.60378 182.926 3.22294C181.439 2.30691 168.811 2.22691 168.253 3.12942ZM179.455 19.84C179.787 20.3775 182.007 21.1301 184.386 21.5099C190.379 22.4687 198.443 30.4933 200.385 37.434C202.564 45.2164 201.293 55.1823 197.407 60.7912C193.127 66.9669 185.164 71.9898 180.409 71.5132C178.405 71.3115 176.503 71.6789 176.184 72.3279C175.778 73.1493 175.427 73.1493 175.021 72.3279C174.702 71.6789 172.8 71.3115 170.796 71.5132C166.041 71.9898 158.079 66.9669 153.798 60.7912C149.912 55.1823 148.641 45.2164 150.82 37.434C152.763 30.4933 160.827 22.4687 166.82 21.5099C169.198 21.1301 171.418 20.3775 171.75 19.84C172.083 19.3015 173.817 18.8609 175.603 18.8609C177.389 18.8609 179.123 19.3015 179.455 19.84ZM51.379 279.083C57.9896 280.337 65.0846 284.784 67.3178 289.075C68.1831 290.735 69.4248 292.44 70.0772 292.863C70.7307 293.285 71.2907 295.692 71.3222 298.211C71.3538 300.729 71.7605 302.793 72.2247 302.795C72.6889 302.797 73.0698 303.843 73.0698 305.118C73.0698 306.394 72.5706 307.129 71.9599 306.752C71.2738 306.328 71.1081 307.355 71.525 309.443C72.7611 315.619 64.6418 326.184 56.7321 328.688C54.2533 329.474 51.3452 330.561 50.2692 331.105C47.7374 332.384 42.9567 332.377 42.1634 331.094C41.8243 330.545 39.7207 329.753 37.4886 329.334C31.8268 328.271 23.8619 320.695 22.1797 314.77C21.454 312.213 20.4389 309.64 19.9228 309.052C18.6981 307.652 18.7262 303.284 19.9746 300.811C20.5189 299.735 21.5938 296.826 22.3644 294.348C23.5915 290.402 26.4128 287.026 33.0076 281.61C34.4723 280.407 37.9821 279.392 45.0299 278.134C45.4096 278.065 48.267 278.493 51.379 279.083ZM188.982 282.338C196.613 286.977 200.516 293.237 201.217 301.961C201.85 309.855 200.357 316.172 196.758 320.826C193.689 324.793 185.889 329.84 182.824 329.84C181.404 329.84 179.929 330.347 179.546 330.967C179.163 331.586 177.389 332.093 175.603 332.093C173.817 332.093 172.042 331.586 171.659 330.967C171.276 330.347 169.801 329.84 168.381 329.84C165.317 329.84 157.516 324.793 154.447 320.826C148.47 313.098 148.142 298.325 153.768 290.208C161.902 278.471 177.049 275.085 188.982 282.338ZM316.788 281.034C322.039 283.7 327.357 289.575 328.841 294.348C329.612 296.826 330.686 299.735 331.231 300.811C332.479 303.284 332.507 307.652 331.283 309.052C330.766 309.64 329.751 312.213 329.026 314.77C327.343 320.695 319.379 328.271 313.717 329.334C311.485 329.753 309.381 330.545 309.042 331.094C308.249 332.377 303.468 332.384 300.936 331.105C299.86 330.561 296.952 329.474 294.473 328.688C289.474 327.105 285.321 323.406 281.85 317.446C273.363 302.87 282.441 282.462 298.881 279.158C304.498 278.03 312.528 278.871 316.788 281.034Z" fill="#E01A4F"/>
</svg>
